<svg xmlns="http://www.w3.org/2000/svg" viewBox="0 0 191.8 91.41"><defs><style>.cls-1{fill:#231815;}</style></defs><title>資產 89</title><g id="圖層_2" data-name="圖層 2"><g id="購物車_我要跟團_手機版_1101_刪運費_OK置圖"><path class="cls-1" d="M42.58,0a44.28,44.28,0,0,1,7.81,2.15,1.07,1.07,0,0,1,.78,1.07c0,.52-.58,1-1.76,1.37a19.8,19.8,0,0,1-3.71.59,69,69,0,0,0,8.6,9.76,101.91,101.91,0,0,0,11.62,9.18,99.39,99.39,0,0,0,13.08,7,71.69,71.69,0,0,0,12,4v1.56c-3.32,0-5.54.91-6.64,2.73a57.27,57.27,0,0,1-11.72-5.86A56.17,56.17,0,0,1,62.5,25.68,95.46,95.46,0,0,1,53,17.19a88.23,88.23,0,0,1-8.4-10,56.53,56.53,0,0,1-4.3,6.54,94.22,94.22,0,0,1-8.1,9q-5,4.7-9.28,8a78.58,78.58,0,0,1-9.67,6.64A79.82,79.82,0,0,1,1.66,43.75L0,41.8a96.24,96.24,0,0,0,13.28-7.52q5.37-3.91,10.65-8.5a103.05,103.05,0,0,0,9.27-9.47,49.84,49.84,0,0,0,6-8.11A38.85,38.85,0,0,0,42.58,0ZM21.78,32.81A43.77,43.77,0,0,0,33.11,34H54.3l4.29-4.68,6.64,4.78c.52.33.79.69.79,1.08,0,1-.4,1.56-1.18,1.56H46.09V52h25l4.69-5.47q3.7,2.84,7,5.47a1.63,1.63,0,0,1,.78,1.27q0,1.47-1.56,1.47H46.09V85.55H77l5.47-6.25,7.72,6A1.87,1.87,0,0,1,91,86.72a1.39,1.39,0,0,1-1.57,1.56H11.62c-4.62.07-7.75.2-9.37.39l-2-4.29a44.52,44.52,0,0,0,11.33,1.17H41.31V54.69H17.09c-4.56.06-7.68.19-9.38.39l-1.95-4.3A44.52,44.52,0,0,0,17.09,52H41.31V36.72h-8.2c-4.63.06-7.75.19-9.38.39Zm-5,26.57A48.84,48.84,0,0,1,22.17,65a27.65,27.65,0,0,1,4.2,5,14.11,14.11,0,0,1,2.34,4.3,10.43,10.43,0,0,1,.59,3.51,5.49,5.49,0,0,1-.49,2.44,2.33,2.33,0,0,1-1.86,1,1.58,1.58,0,0,1-1.36-.68,5.81,5.81,0,0,1-1.08-2.84,28.57,28.57,0,0,0-1.85-6c-.92-2-1.86-3.78-2.84-5.47a50.53,50.53,0,0,0-4.2-5.66ZM68,60.16q7.82,3.42,7.81,5.17c0,.65-1.56,1-4.69,1.08a72.8,72.8,0,0,1-6.73,8,79.58,79.58,0,0,1-8.5,8.4l-1.17-.68q4-4.89,6.44-8.4a58.48,58.48,0,0,0,4.2-6.84A49,49,0,0,0,68,60.16Z"/><path class="cls-1" d="M117.19,16q9.47,1.85,9.47,3.61c0,.85-1.86,1.33-5.57,1.46A34.88,34.88,0,0,1,119.24,25h11.23l3.12-2.73a25.45,25.45,0,0,1,5.28,3.8.94.94,0,0,1,.58.88c0,.52-.45,1-1.36,1.37a8.7,8.7,0,0,1-2.93,1A101,101,0,0,1,129,41.41a51.1,51.1,0,0,1,6.06,3.12,59.81,59.81,0,0,1,5.66,3.52,8.37,8.37,0,0,1,1.86,1.85,5,5,0,0,1,1.07,1.76,3.75,3.75,0,0,1,.49,1.86q0,2.34-1.56,2.34a2.5,2.5,0,0,1-1.08-.59,48,48,0,0,0-3.9-3.61,46.19,46.19,0,0,0-6.64-5q-1.86-1.17-3.91-2.34a56.56,56.56,0,0,1-6,6.73,45.63,45.63,0,0,1-7.81,6.16l.88.58H132l2.74-3.12q5.07,3.12,5.07,4.29c0,.66-.91,1.57-2.73,2.74V82.81c0,1.24-1.06,2-3.19,2.35-1.06,0-1.6-.26-1.6-.78V80.47H114.16v.78a11,11,0,0,0,.1,1.76,14.38,14.38,0,0,1,.19,2.54q0,1.56-3.51,2c-1,0-1.56-.36-1.56-1.07v-27a70.18,70.18,0,0,1-9.38,4.2L98.83,62.5A91.53,91.53,0,0,0,110.16,56a43.94,43.94,0,0,0,6.64-5.18,55.63,55.63,0,0,0,5.47-6.44,17.77,17.77,0,0,0,1.36-2c-.91-.45-1.85-.94-2.83-1.46a60.67,60.67,0,0,0-9.57-4.3c-1,1-2,2-2.93,2.93a54.8,54.8,0,0,1-7.91,6.15l-1.17-2a81.43,81.43,0,0,0,6.44-5.86,43.82,43.82,0,0,0,4.79-6.54,42.31,42.31,0,0,0,4.2-7.52A43.18,43.18,0,0,0,117.19,16ZM121.78.78a37.06,37.06,0,0,1,9.37,2.15c.85.33,1.27.78,1.27,1.37s-.42,1-1.27,1.27A13.92,13.92,0,0,1,127,6.74v4.69h13.67l2.74-3.23a49.11,49.11,0,0,1,6,4.89.85.85,0,0,1,.29.58c0,.52-.59.95-1.76,1.27s-2,.52-2.93.78a46,46,0,0,1-3.22,3.52,31,31,0,0,1-3.81,3.42l-1.56-1.18a19.81,19.81,0,0,0,2.63-3.9,11.94,11.94,0,0,0,1.66-3.52H106.84a17.59,17.59,0,0,1-.3,3.32,13.69,13.69,0,0,1-1.07,4.3,9.27,9.27,0,0,1-1.37,2.54,3.28,3.28,0,0,1-1.46,1.27,2.5,2.5,0,0,1-1.08.29c-1.63,0-2.44-.52-2.44-1.56a3.4,3.4,0,0,1,1-1.86,19.35,19.35,0,0,0,3.32-4.59,16.84,16.84,0,0,0,1.56-4.1,27.77,27.77,0,0,0,.78-5.86h1.17v3.62h15.24V8.59A57.8,57.8,0,0,0,121.78.78Zm-9,33.79a119.16,119.16,0,0,1,11.62,4.69,7.46,7.46,0,0,0,1,.49c.65-1.11,1.3-2.18,2-3.23a56.71,56.71,0,0,0,3.52-8.69H117.68q-1.28,2.05-2.64,3.91A26.39,26.39,0,0,1,112.79,34.57Zm1.37,43.26h18.16V60.55H114.16ZM160.94,77A42.18,42.18,0,0,1,153.12,83a49.26,49.26,0,0,1-7.81,4.69,47.4,47.4,0,0,1-9.37,3.71l-1.17-2a78.67,78.67,0,0,0,11.71-6.25,46.63,46.63,0,0,0,7.72-5.76A28.29,28.29,0,0,0,159,71.09q3.61,2.25,6.35,4a1.72,1.72,0,0,1,.29,1.07q0,.78-2,.78ZM146.88,5.47A40.28,40.28,0,0,0,158.2,6.74h21.1L183.59,2q3.53,2.45,6.64,4.89c.52.32.79.65.79,1,0,1-.4,1.57-1.18,1.57H169a41.33,41.33,0,0,1-2.83,6.15,44,44,0,0,1-4.1,7.13h18.75l3.12-4.3a23.46,23.46,0,0,1,5.18,4.2,2.22,2.22,0,0,1,.68,1.37q0,.87-3.51,3V55.86q0,7.32.29,9.57c.07,1.82.1,3.35.1,4.59a2.79,2.79,0,0,1-1,2.15,7.07,7.07,0,0,1-2.15.49c-1.3,0-2-.39-2-1.18V68.36H153.12v3.91c0,.84-.65,1.27-2,1.27A5.42,5.42,0,0,1,149,73a2.89,2.89,0,0,1-1-2.25,42.3,42.3,0,0,1,.29-4.49,55.85,55.85,0,0,0,.49-9.47V25a25.16,25.16,0,0,0-.78-6.64l5.86,4.3h5.56a39.91,39.91,0,0,0,2.64-7.43,34.41,34.41,0,0,0,1.37-5.85H158.2q-6.93.09-9.37.39ZM153.12,36h28.42V25.39H153.12Zm0,14.74h28.42V38.67H153.12Zm0,14.94h28.42V53.52H153.12Zm19.54,6.16a60.58,60.58,0,0,1,8.39,3.9A57.46,57.46,0,0,1,187.3,80a13.92,13.92,0,0,1,2.84,3.22,11.41,11.41,0,0,1,1.36,2.64,6.92,6.92,0,0,1,.3,2c0,1.37-.52,2-1.57,2-.26,0-.61-.29-1.07-.88a7.35,7.35,0,0,1-1.86-2q-1.65-2.15-3.12-3.71a39.7,39.7,0,0,0-4.49-3.81,54.65,54.65,0,0,0-7.81-5.95Z"/></g></g></svg>