<svg xmlns="http://www.w3.org/2000/svg" viewBox="0 0 178.13 88.38"><defs><style>.cls-1{fill:#231815;}</style></defs><title>資產 88</title><g id="圖層_2" data-name="圖層 2"><g id="購物車_我要跟團_手機版_1101_刪運費_OK置圖"><path class="cls-1" d="M38.77,60.25q0,15.73-18.65,18.46v9.67H17.29V78.71A31.25,31.25,0,0,1,0,73.54V60.06H1.76q2,8.68,5.08,12.21,3.4,3.8,10.35,3.8V44.82q-8.12-5.37-11.43-9a18.87,18.87,0,0,1-5-12.79A15.65,15.65,0,0,1,4.39,12.5q4.31-5,12.9-5.76V0h2.83V6.74Q31.54,8.4,35.64,12.21V23.54h-2Q32.33,15.34,28.32,12q-2.84-2.34-8.2-2.93V36.43Q31,43.56,34.08,47,38.78,52.15,38.77,60.25ZM17.19,35.74V8.89Q6.74,11,6.74,20.8a13,13,0,0,0,2.54,7.81A45.44,45.44,0,0,0,17.19,35.74Zm15.23,27A14.26,14.26,0,0,0,29,53.12a49.74,49.74,0,0,0-8.88-7V76.27q5.46-1.27,7.61-2.83Q32.42,70.22,32.42,62.7Z"/><path class="cls-1" d="M82.32,55.47q0,11.13-7.52,17.87T55.86,80.18a18.51,18.51,0,0,1-6.06-1q-3.7-1.28-3.9-3.81c-.13-2.21.71-3.32,2.54-3.32a2,2,0,0,1,.68.1q5.37,2.34,5.67,2.44a18.86,18.86,0,0,0,7.91,1.27A16.27,16.27,0,0,0,77.54,59.77q0-11.15-6.93-15.24A25.85,25.85,0,0,0,56,40.92v-.3a35.4,35.4,0,0,0,12.5-7.22q5.66-5.17,5.66-10.65a14.28,14.28,0,0,0-3.61-9.18q-4-4.78-9.38-4.78-6,0-13.18,13.67l-1.76-.39q4.5-16.69,18.17-16.7,7.9,0,11.81,5.47a14.82,14.82,0,0,1,2.74,8.69q0,9.28-9,16,5.86,3.31,7.91,5.66Q82.33,46.3,82.32,55.47Z"/><path class="cls-1" d="M131.74,55.18a31.54,31.54,0,0,1-3.81,15.62q-5.37,9.38-16.31,9.38-9,0-14.65-8-6-8.79-6-25A43.16,43.16,0,0,1,101.86,18,38.21,38.21,0,0,1,129.39,4.49l.59,2Q116.3,9.07,108.11,18.36a35.5,35.5,0,0,0-9,19.92,20.6,20.6,0,0,1,15.24-6.44,15,15,0,0,1,12.5,6.44Q131.74,44.54,131.74,55.18Zm-6,4.29q.1-10-3.42-16.21-4.1-7.51-12.3-6.93-7.23.59-10.94,5Q96.78,44,96.78,51.17q0,12.9,5.27,19.92Q106.54,77,113,77a10.93,10.93,0,0,0,8.69-4Q125.68,68.36,125.78,59.47Z"/><path class="cls-1" d="M178.12,42.77q0,13.57-4,23.64-5.67,13.77-17.19,13.77T139.75,66.41a64.18,64.18,0,0,1-4-23.64,64.32,64.32,0,0,1,4-23.53q5.66-13.87,17.18-13.87t17.19,13.87Q178.13,29.29,178.12,42.77Zm-6.44,0A75.49,75.49,0,0,0,169,22.36Q165,7.92,156.93,7.91t-12,14.45a73.54,73.54,0,0,0-2.83,20.41,74,74,0,0,0,2.83,20.9q3.9,14,12,14t12-14.07A75.56,75.56,0,0,0,171.68,42.77Z"/></g></g></svg>