<svg xmlns="http://www.w3.org/2000/svg" viewBox="0 0 352 102"><defs><style>.cls-1{fill:#231815;}.cls-2{fill:#d3d3d4;}.cls-3{fill:none;stroke:#231815;stroke-linecap:round;stroke-linejoin:round;stroke-width:2px;}</style></defs><title>資產 68</title><g id="圖層_2" data-name="圖層 2"><g id="購物車_我要跟團_手機版_1101_刪運費_OK置圖"><path class="cls-1" d="M187.44,76.78H166.25V75.17q4.27-.17,5.88-1.29,2.42-1.69,2.42-6.45v-40q0-4.59-3.3-4.59a17.21,17.21,0,0,0-5.81,1.45V23l13.62-6.52V69c0,2.31.64,3.94,1.93,4.91s3.44,1.29,6.45,1.29Z"/><rect class="cls-2" x="1" y="1" width="75" height="100"/><path class="cls-1" d="M47.81,59.3h-19V53.66h19Z"/><rect class="cls-2" x="276" y="1" width="75" height="100"/><path class="cls-1" d="M333.4,55.83h-18v21h-3v-21H294.32V52.45h18.13v-21h3v21h18Z"/><rect class="cls-3" x="1" y="1" width="350" height="100"/></g></g></svg>