<svg xmlns="http://www.w3.org/2000/svg" viewBox="0 0 372.67 87.21"><defs><style>.cls-1{fill:#231815;}</style></defs><title>資產 83</title><g id="圖層_2" data-name="圖層 2"><g id="購物車_我要跟團_手機版_1101_刪運費_OK置圖"><path class="cls-1" d="M10.48.74l5.57,4.08H68L71,.74a20.36,20.36,0,0,1,4.83,4,1.78,1.78,0,0,1,.74,1.21q0,.93-3.25,3v13q0,7,.19,9.1.09,2.6.09,4.26a2.65,2.65,0,0,1-1,2.14,5,5,0,0,1-2,.55c-1.24,0-1.85-.4-1.85-1.2V34.88H44.25v11.6H66.52L71,41.19q3.52,2.7,6.68,5.29c.5.31.74.65.74,1A1.31,1.31,0,0,1,76.91,49H44.25V60.49H73.94l4.82-5.57q3.72,2.88,7,5.48a1.56,1.56,0,0,1,.84,1.29,1.24,1.24,0,0,1-1.39,1.4H10.76q-6.58.09-8.81.37L0,59.38a42.31,42.31,0,0,0,10.76,1.11h29V49H21.52c-4.33.07-7.3.19-8.9.38l-1.86-4.09a38.84,38.84,0,0,0,10.76,1.21H39.71V34.88H15.29V39c0,.75-.61,1.12-1.84,1.12a5.86,5.86,0,0,1-2-.47,2.55,2.55,0,0,1-.93-2.13c0-1,.1-2.47.28-4.27a54.1,54.1,0,0,0,.47-9.09v-17A24.08,24.08,0,0,0,10.48.74Zm2.23,67.54,1.21.37A71.66,71.66,0,0,1,12,76.54a20.67,20.67,0,0,1-2.32,4.64,9.41,9.41,0,0,1-2.51,3,12.74,12.74,0,0,1-2.59,1.57,4.59,4.59,0,0,1-1.86.47c-1.24,0-1.85-.65-1.85-2a2.71,2.71,0,0,1,.37-1.39,25.94,25.94,0,0,1,3.24-2.6,19.86,19.86,0,0,0,4.27-3.9A15.92,15.92,0,0,0,11,72.83,16.18,16.18,0,0,0,12.71,68.28Zm2.6-36h24.4V7.42H15.31ZM23.1,11.88a28.69,28.69,0,0,1,5.75,5.28,17.24,17.24,0,0,1,2.88,4.36,7.41,7.41,0,0,1,.65,3c0,2-.74,3-2.23,3a1.58,1.58,0,0,1-1-.37A6.75,6.75,0,0,1,28.3,25a38.6,38.6,0,0,0-2.42-6.22A34.64,34.64,0,0,0,22,13.36Zm8.16,56.4A27.21,27.21,0,0,1,33,72.55a20.76,20.76,0,0,1,1.3,4.64,34,34,0,0,1,.27,4.08,8.82,8.82,0,0,1-.46,3,3.51,3.51,0,0,1-1.39,1.58,2.44,2.44,0,0,1-1.11.37q-1.86,0-1.86-2a7.8,7.8,0,0,1,.37-1.95,19,19,0,0,0,.19-4.73,44.44,44.44,0,0,0-.93-8.91Zm13-60.86V32.29h24.5V7.42Zm6.31,60.12a32.17,32.17,0,0,1,4.92,6.68A20.38,20.38,0,0,1,58.08,79a10.33,10.33,0,0,1,.65,3.34,5,5,0,0,1-.65,2.41c-.69.93-1.33,1.4-1.95,1.4a2.8,2.8,0,0,1-1.49-.47,3.48,3.48,0,0,1-.74-2.22,43.42,43.42,0,0,0-1.48-8.26,43.25,43.25,0,0,0-2.88-7Zm6.68-56.41q7.42,3.34,7.42,4.83c0,.68-1.48,1.05-4.45,1.11a40.87,40.87,0,0,1-4,5.47A49.64,49.64,0,0,1,51.3,28.2l-1.11-.74a66.34,66.34,0,0,0,3.43-6.31,34.67,34.67,0,0,0,2.23-5Q56.69,13.55,57.24,11.13Zm14.1,57.15a58.69,58.69,0,0,1,5.2,4.36,32.51,32.51,0,0,1,4.17,4A11.4,11.4,0,0,1,83,80.06a7.29,7.29,0,0,1,.56,2.69,4.78,4.78,0,0,1-.47,2.32,2.1,2.1,0,0,1-1.76,1.12,1.62,1.62,0,0,1-1.3-.56,4,4,0,0,1-1-2.41,18.3,18.3,0,0,0-2-4.73A38,38,0,0,0,74.31,74a32.43,32.43,0,0,0-4.08-4.64Z"/><path class="cls-1" d="M95,30.52a45.89,45.89,0,0,0,10.76,1h3.34V7.79a71.61,71.61,0,0,0-.28-7.42,36.15,36.15,0,0,1,8.82,2c.8.37,1.2.81,1.2,1.3s-.4,1-1.2,1.21a11.83,11.83,0,0,1-4,1v25.6h5.19l3.71-3.71q2.88,2,5.29,4c.43.25.65.53.65.84,0,1.05-.37,1.57-1.11,1.57H113.65v7.43q2.13,1.58,3.89,3.15a40,40,0,0,1,3.34,3.34,10,10,0,0,1,1.77,2.23,12.09,12.09,0,0,1,.74,1.57,4.36,4.36,0,0,1,.28,1.49c-.07,1.73-.68,2.6-1.86,2.6a.87.87,0,0,1-.74-.38,10.29,10.29,0,0,1-1.86-3.24,27.45,27.45,0,0,0-3.15-5.11,30.16,30.16,0,0,0-2.41-3.06V78.39a14.14,14.14,0,0,0,.18,2.79,24,24,0,0,1,.19,2.69c0,2-1,3-3,3-1.45,0-2.18-.47-2.18-1.4,0-1.36,0-3.06.1-5.1.12-2.22.18-4.14.18-5.75V46.39a74.89,74.89,0,0,1-3.25,8.07c-1.23,2.78-2.63,5.56-4.17,8.35S98,68.28,95.74,71.25l-1.11-1.39a79.44,79.44,0,0,0,4.92-9.65,65.18,65.18,0,0,0,3.71-9.56,67.39,67.39,0,0,0,2.59-9.27q.93-3.81,1.49-7.15h-1.58q-6.58.1-8.81.37ZM97,7.79a49.56,49.56,0,0,1,4.27,7,22.64,22.64,0,0,1,2,5.1,11.39,11.39,0,0,1,.65,3.53,5,5,0,0,1-.56,2.23c-.55.8-1.11,1.2-1.67,1.2a2.76,2.76,0,0,1-1.48-.46,3.43,3.43,0,0,1-.74-2.23,57.56,57.56,0,0,0-1.21-8.53,53.69,53.69,0,0,0-2.5-7Zm24.4,0a34.29,34.29,0,0,1,6.49,3.62.89.89,0,0,1,.56.84c0,.37-.31.68-.93.92a12.13,12.13,0,0,1-2.78.56c-.5,1.36-1,2.66-1.48,3.9a31.58,31.58,0,0,1-1.77,3.8c-.62,1.11-1.33,2.29-2.13,3.53s-1.55,2.19-2.41,3.24l-1.12-1.11a51.77,51.77,0,0,0,2.14-5q.83-2.5,1.58-5.1t1.29-4.92C121.13,10.52,121.32,9.09,121.44,7.79ZM151,.37a33.64,33.64,0,0,1,8.81,2c.86.37,1.3.81,1.3,1.3s-.44,1-1.3,1.21a10.85,10.85,0,0,1-3.9,1v5.94h14.1l4.09-4.46q3.33,2.33,6.3,4.64.75.38.75.93c0,1-.34,1.58-1,1.58H134v21h18.56V27.09h-3.71a58.18,58.18,0,0,0-8.91.37l-1.48-3.71a54.65,54.65,0,0,0,10.39.74h3.71V23.38a56.08,56.08,0,0,0-.37-7.42,27.74,27.74,0,0,1,7.51,1.95c.75.43,1.12.89,1.12,1.39a1.25,1.25,0,0,1-.93,1.2,6,6,0,0,1-2.78,1v3h11.87l2.6-3q4.82,3,4.82,4.09c0,.68-.86,1.54-2.6,2.59v6.68l2.6-2.59q2.59,1.93,5,3.71a.83.83,0,0,1,.56.74c0,1-.37,1.58-1.11,1.58h-7.06V50.84c0,1.18-1,1.92-3,2.23-1,0-1.51-.25-1.51-.75v-3H157v6.3c0,1.24-.86,1.86-2.59,1.86a2,2,0,0,1-2.23-2.23q0-1.11.18-3a24.15,24.15,0,0,0,.19-3h-5.2q-7.41,0-8.9.46l-1.49-3.71a64.25,64.25,0,0,0,10.39.65h5.2V38.32H134q0,7.6-.46,13.35a92.72,92.72,0,0,1-1.21,10.4,39.78,39.78,0,0,1-2,6.4,25,25,0,0,1-2.87,6.21,24,24,0,0,1-3.9,5.66,25.78,25.78,0,0,1-4.73,5.1l-1.48-1.57a34.15,34.15,0,0,0,4-5.2,30,30,0,0,0,2.88-5.1,52,52,0,0,0,2.32-6,45.81,45.81,0,0,0,1.76-7.79,84.68,84.68,0,0,0,1-9.56q.28-7.14.28-13.82Q130,17.44,128.4,8.16l6.31,3.72h16.7V7.79A56.19,56.19,0,0,0,151,.37ZM139.16,57.15l5.58,3h24.93l2.6-3q4.83,3,4.83,4.08c0,.68-.86,1.55-2.59,2.6v20c0,1.17-1,1.95-3,2.32-1,0-1.52-.25-1.52-.75V80.9H143.71V85c0,.62-.38,1.08-1.14,1.39a7.06,7.06,0,0,1-2.27.47q-1.14,0-1.14-1Zm4.55,21.24H170V62.71H143.71Zm13.36-51.3v8.53h12.15V27.09Zm0,11.23v8.44h12.15V38.32Z"/><path class="cls-1" d="M189.63,8.54a42.31,42.31,0,0,0,10.76,1.11h13.08l4.08-4.45,6.31,4.54a1.47,1.47,0,0,1,.74,1.11c0,.93-.37,1.4-1.11,1.4H207.16V35.62h4.09l4.08-4.08c2,1.43,3.86,2.85,5.66,4.27.43.31.65.62.65.93,0,1-.38,1.58-1.12,1.58H207.16v25c1.36-.43,2.75-.89,4.18-1.39q5.66-2,12.89-5.1l.37,1.85a86.68,86.68,0,0,1-10.66,5.57,95.88,95.88,0,0,1-9.52,4.08,64.72,64.72,0,0,1-8.85,3c-.62,2.23-1.12,3.34-1.49,3.34s-2-2.47-4.45-7.42A71.67,71.67,0,0,0,201,64.85l1.67-.37V38.32h-1.86q-6.58.09-8.81.37L190,34.6a45.36,45.36,0,0,0,10.76,1h1.86V12.25h-2.23q-6.58.09-8.91.37ZM239.54,0a65.51,65.51,0,0,1,7.89,3.25,1.9,1.9,0,0,1,.55,1.2c0,.56-.62.93-1.85,1.12a18,18,0,0,1-3,.37,148,148,0,0,1-6.22,16.33,3.16,3.16,0,0,0-.18.46h27.55l4.45-5.29q3.72,2.7,7,5.29.84.46.84,1c0,1-.47,1.48-1.39,1.48H264.5a88.69,88.69,0,0,1-3.62,16.33,41.39,41.39,0,0,1-6.77,14.2,59,59,0,0,1-4,5.93c.74.87,1.51,1.71,2.32,2.51A37.34,37.34,0,0,0,262.27,73a94.69,94.69,0,0,0,15,8.72l-.37,1c-2.66,0-4.39.75-5.2,2.23a76.52,76.52,0,0,1-12.43-8.07A97.54,97.54,0,0,1,250,67.26c-.68-.93-1.33-1.88-1.94-2.88q-1.86,2.15-3.71,4a63.14,63.14,0,0,1-13.55,9.93,102.65,102.65,0,0,1-20.32,8.91L209,85.44a120.45,120.45,0,0,0,20.59-10.39,71.88,71.88,0,0,0,12.71-10.39,48.57,48.57,0,0,0,3.44-3.8c-1.12-1.86-2.23-3.8-3.34-5.85a55,55,0,0,1-5.2-13,54.53,54.53,0,0,1-2.78-14.48q-2.24,4.36-4.55,8a119.89,119.89,0,0,1-9.37,12l-1.48-1a108.55,108.55,0,0,0,8.25-12.34Q230,29,232.68,22.92q2.5-6.23,4.36-11.69A100.07,100.07,0,0,0,239.54,0Zm-2.87,25.23a89,89,0,0,0,3.06,16.15,55.5,55.5,0,0,0,5.38,12.71,29.58,29.58,0,0,0,2.6,4.36q1.57-2.23,3-4.36a57.19,57.19,0,0,0,6-13.46,108.59,108.59,0,0,0,3-15.4Z"/><path class="cls-1" d="M284.63,8.16a41.8,41.8,0,0,0,10.76,1.12H305.5l4.09-4.46,6.3,4.55a1.32,1.32,0,0,1,.75,1.11c0,.93-.38,1.4-1.12,1.4H301.05V32.66h3l4.08-4.46q3.24,2.41,5.94,4.55c.49.31.74.65.74,1,0,1-.37,1.48-1.11,1.48H301.05V58.63c1-.37,2-.8,3.15-1.3A123.45,123.45,0,0,0,315.89,52l.37,1.95q-5.37,3.62-9.46,5.85A94.52,94.52,0,0,1,298.11,64a59.55,59.55,0,0,1-7.91,3.16c-.62,2.22-1.12,3.34-1.49,3.34s-2-2.47-4.45-7.42a68.93,68.93,0,0,0,10.3-2.42c.68-.18,1.32-.37,1.94-.55V35.25h-1.11q-6.58.11-8.91.37l-1.85-4.08a41.8,41.8,0,0,0,10.76,1.12h1.11V11.88h-1.11q-6.58.09-8.91.37ZM338.53,0a43.66,43.66,0,0,1,8,3.15,1.28,1.28,0,0,1,.56.93c0,.56-.44,1-1.3,1.3a14.87,14.87,0,0,1-3.9.56,22.38,22.38,0,0,1-1,2.41c-.37.8-.77,1.61-1.21,2.41a11.76,11.76,0,0,1-1.3,1.86h21l3-4.08a22.47,22.47,0,0,1,4.92,4,1.85,1.85,0,0,1,.65,1.21c0,.62-1.12,1.61-3.34,3V34.23q0,6.87.18,9c.13,1.8.19,3.22.19,4.27a2.72,2.72,0,0,1-.93,2.13,5.07,5.07,0,0,1-2,.56c-1.24,0-1.86-.4-1.86-1.21V46.11H344.1V76.45a3.32,3.32,0,0,0,3,3.43,68.22,68.22,0,0,0,7.7.28c3,0,5.72-.1,8.25-.28a3.55,3.55,0,0,0,2.14-.74,4.07,4.07,0,0,0,1.2-2c.5-1.23,1-4.29,1.49-9.18l1.48.37V75a4.34,4.34,0,0,0,.56,2.41,4.18,4.18,0,0,0,2,1.86,1.34,1.34,0,0,1,.74,1.3,2.92,2.92,0,0,1-.37,1,4.9,4.9,0,0,1-2.41,1.39,21,21,0,0,1-5.75.93c-2.91.24-5.45.37-7.61.37a79.15,79.15,0,0,1-9.09-.37,12.64,12.64,0,0,1-4.48-.75,5.12,5.12,0,0,1-2.65-1.94,4.15,4.15,0,0,1-.76-2.14V46.11h-5.26a49.92,49.92,0,0,1-.74,9,32.71,32.71,0,0,1-2.22,8.63,29.64,29.64,0,0,1-4.06,7.6,44.51,44.51,0,0,1-5.82,6.31,55.05,55.05,0,0,1-8.9,5.29,64.55,64.55,0,0,1-10.76,3.9L300.68,85q8.71-2.79,12.89-5.66a42.31,42.31,0,0,0,7.33-6,24.4,24.4,0,0,0,4.89-7.51,30.09,30.09,0,0,0,2.77-8.63,93.25,93.25,0,0,0,.65-11H324v3.25c0,.8-.62,1.2-1.85,1.2a4.91,4.91,0,0,1-2-.56,2.72,2.72,0,0,1-.93-2.13c0-1,.1-2.47.28-4.27a53.28,53.28,0,0,0,.47-9V14.94a24,24,0,0,0-.75-6.4l5.57,4.08h10.76c.31-.74.59-1.52.84-2.32q.56-1.86,1-3.9a33.51,33.51,0,0,0,.83-4.27A7.88,7.88,0,0,0,338.53,0ZM324.06,27.83h15.49V15.21H324.06Zm0,15.59h15.49V30.52H324.06Zm20-28.21V27.83H360V15.21Zm0,28.21H360V30.52H344.1ZM353,52A49.53,49.53,0,0,1,360.89,55a1.53,1.53,0,0,1,.65,1c0,.55-.44,1-1.3,1.29a13.24,13.24,0,0,1-3.9.65q-.55,2-1.2,3.9a42.27,42.27,0,0,1-1.58,4c-.5,1.11-1,2.13-1.48,3.06,1.54-.12,3.18-.28,4.91-.46,1.49-.19,3.12-.4,4.92-.65a24.53,24.53,0,0,0-1.49-2.88,21,21,0,0,0-2.59-3.25l1.11-1.2c1.3,1,2.47,2.07,3.53,3.06a16.91,16.91,0,0,1,2.69,2.78,7.27,7.27,0,0,1,1.57,2.32,4.93,4.93,0,0,1,.37,1.86,4.82,4.82,0,0,1-.46,2.32,2.12,2.12,0,0,1-1.76,1.11.91.91,0,0,1-.84-.56c-.25-.12-.46-.68-.65-1.67a15.44,15.44,0,0,0-.46-1.67c-1.3.5-2.44.9-3.43,1.21-1.61.5-3.13.9-4.55,1.21l-4.17,1.11c-.69,2.16-1.18,3.25-1.49,3.25-.49,0-2-2.48-4.45-7.43,1.61-.06,3.09-.15,4.45-.27.31-.87.59-1.73.84-2.6.55-1.79,1.05-3.65,1.48-5.57s.8-3.86,1.11-5.84C352.85,54.06,352.94,53,353,52Z"/></g></g></svg>