<svg xmlns="http://www.w3.org/2000/svg" viewBox="0 0 1485.45 93.57"><defs><style>.cls-1{fill:#231815;}</style></defs><title>資產 61</title><g id="圖層_2" data-name="圖層 2"><g id="購物車_我要跟團_手機版_1101_刪運費_OK置圖"><path class="cls-1" d="M21.15,30.12a73.85,73.85,0,0,1,8,3.24,2,2,0,0,1,.56,1.21q0,.84-1.77,1.11a20,20,0,0,1-3.06.37A135.59,135.59,0,0,1,18.37,50.8,83.88,83.88,0,0,1,11.23,63,102.66,102.66,0,0,1,1.48,73.91L0,72.88A120.8,120.8,0,0,0,8.54,61.47,100.64,100.64,0,0,0,14.1,51.08q2.69-5.56,4.64-10.57A76.1,76.1,0,0,0,21.15,30.12ZM43.7,6.37a31.28,31.28,0,0,1,9.09,2.41c.68.25,1,.55,1,.93,0,.62-.4,1.08-1.21,1.39-1.24.31-2.56.59-4,.83V85.41a6.28,6.28,0,0,1-1.7,4.82,10.63,10.63,0,0,1-4.23,2.42,12.16,12.16,0,0,1-4.18.92l-.09-1.11a3.62,3.62,0,0,0-1.21-1.95,13.05,13.05,0,0,0-4.82-2,45.11,45.11,0,0,0-8.72-1.3V85a75.86,75.86,0,0,0,14.1,1.48,14.42,14.42,0,0,0,5-.55c.86-.38,1.3-1.3,1.3-2.79V13.79A51,51,0,0,0,43.7,6.37Zm19,26.07A97,97,0,0,1,73.94,43.85a93.31,93.31,0,0,1,7.7,9.37,51.6,51.6,0,0,1,4.18,6.12c.61,1.73,1.14,3.34,1.57,4.82A15.59,15.59,0,0,1,88,68.43c-.06,1.67-.68,2.51-1.86,2.51a2.64,2.64,0,0,1-1.94-.84q-.93-1.2-4.18-8.81a81.53,81.53,0,0,0-7.33-13.64,111,111,0,0,0-11-14.19Z"/><path class="cls-1" d="M96.48,22.69a41.89,41.89,0,0,0,10.77,1.12h16.32l4.09-4.08L133.32,24a1.14,1.14,0,0,1,.64,1c0,.93-.37,1.4-1.11,1.4h-25.6q-6.6.09-8.91.37Zm3-11.87a42.31,42.31,0,0,0,10.76,1.11h11.23l3.62-3.71c1.85,1.36,3.62,2.69,5.29,4a1,1,0,0,1,.65.93c0,.93-.38,1.39-1.12,1.39H110.21c-4.39.06-7.36.19-8.9.37Zm0,24.49a38.84,38.84,0,0,0,10.76,1.21h9.65l3.71-3.71c1.92,1.3,3.68,2.59,5.29,3.89.43.25.65.53.65.84,0,1-.37,1.48-1.11,1.48H110.21c-4.39.06-7.36.19-8.9.37Zm0,13.45a45.36,45.36,0,0,0,10.76,1h10.4l3.71-3.71c1.91,1.36,3.71,2.69,5.38,4a1,1,0,0,1,.55.84c0,1.05-.37,1.57-1.11,1.57H110.21c-4.39.07-7.36.19-8.9.38Zm1,12.25,5.59,2.88h16.38L125.05,61q4.83,2.79,4.83,4c0,.68-.86,1.55-2.59,2.6V88.75c0,1.17-1,1.92-3,2.23-1,0-1.51-.25-1.51-.75V86.52H105V90.6c0,.56-.38,1-1.14,1.4a6,6,0,0,1-2.27.55q-1.14,0-1.14-1.2ZM105,84h17.72V66.48H105Zm28.85-45.74a42.31,42.31,0,0,0,10.76,1.11h9.65V13.79a54.39,54.39,0,0,0-.37-7.42,40.31,40.31,0,0,1,8.91,1.94c.8.44,1.2.9,1.2,1.4s-.4,1-1.2,1.2a11.38,11.38,0,0,1-4,1V39.39h12.62l4.45-5.19c2.35,1.79,4.57,3.52,6.68,5.19a1.4,1.4,0,0,1,.74,1.21c0,.93-.5,1.39-1.48,1.39h-23V85a14.63,14.63,0,0,0,.18,2.87,24.2,24.2,0,0,1,.19,2.69c0,2-1,3-3,3-1.51,0-2.27-.46-2.27-1.39,0-1.36.06-3.09.19-5.19s.18-4,.18-5.66V42h-9.65c-4.33.06-7.29.19-8.9.37Z"/><path class="cls-1" d="M1300.2,60.25q0,15.73-18.66,18.46v9.67h-2.83V78.71a31.22,31.22,0,0,1-17.28-5.17V60.06h1.75q2,8.68,5.08,12.21,3.42,3.8,10.35,3.8V44.82q-8.1-5.35-11.42-9a18.85,18.85,0,0,1-5-12.79,15.6,15.6,0,0,1,3.61-10.55q4.29-5,12.89-5.76V0h2.83V6.74q11.43,1.66,15.53,5.47V23.54h-2q-1.36-8.2-5.37-11.53-2.84-2.34-8.21-2.93V36.43q10.85,7.13,14,10.54Q1300.19,52.15,1300.2,60.25Zm-21.59-24.51V8.89Q1268.17,11,1268.16,20.8a13,13,0,0,0,2.54,7.81A45.82,45.82,0,0,0,1278.61,35.74Zm15.24,27a14.28,14.28,0,0,0-3.42-9.58,49.9,49.9,0,0,0-8.89-7V76.27q5.48-1.27,7.62-2.83Q1293.86,70.22,1293.85,62.7Z"/><path class="cls-1" d="M1340,78.91h-25.68V77q5.17-.2,7.12-1.56c2-1.37,2.93-4,2.93-7.81V19.14q0-5.57-4-5.57a21,21,0,0,0-7,1.76V13.77l16.5-7.91V69.43q0,4.2,2.35,6Q1334.57,77,1340,77Z"/><path class="cls-1" d="M1393.65,42.77q0,13.57-4,23.64-5.67,13.77-17.19,13.77t-17.19-13.77q-4-10.15-4-23.64a64.33,64.33,0,0,1,4-23.53q5.67-13.86,17.19-13.87t17.19,13.87Q1393.65,29.29,1393.65,42.77Zm-6.44,0a75.49,75.49,0,0,0-2.74-20.41q-3.9-14.44-12-14.45t-12,14.45a73.54,73.54,0,0,0-2.83,20.41,74,74,0,0,0,2.83,20.9q3.9,14,12,14t12-14.07A75.56,75.56,0,0,0,1387.21,42.77Z"/><path class="cls-1" d="M1436.82,62.79a17.39,17.39,0,0,1-3.62,10.75q-5,6.63-15,6.64a17.46,17.46,0,0,1-13.28-5.38,16,16,0,0,1-4.59-11.52q0-6.83,2.93-11.23,2.44-3.61,9.67-9.57-7.12-6.54-9.37-10.16a18.86,18.86,0,0,1-2.74-10.54,14.91,14.91,0,0,1,5.86-12.21,18,18,0,0,1,11.82-4.2q7.51,0,12.2,4.49a14.2,14.2,0,0,1,4.2,10.45A17.61,17.61,0,0,1,1430.57,32a36.93,36.93,0,0,1-8.89,7q9.57,7.23,12.79,13A22.16,22.16,0,0,1,1436.82,62.79Zm-6.55-43a11.45,11.45,0,0,0-3.12-8.3,15,15,0,0,0-18.46-.09,9.81,9.81,0,0,0-3.51,7.42,17,17,0,0,0,5.46,12.3,44.59,44.59,0,0,0,8.7,6.45,37.38,37.38,0,0,0,7.22-6.45A18.15,18.15,0,0,0,1430.27,19.82Zm2,45.61a18.39,18.39,0,0,0-5-12.6q-3-3.22-11.43-8.88-2.25,1.95-4.3,3.8a18.16,18.16,0,0,0-4.29,5.47,18.83,18.83,0,0,0-2,8.89q0,6.84,4,11a13.23,13.23,0,0,0,10.16,4.2,14.11,14.11,0,0,0,8.78-2.73A11.14,11.14,0,0,0,1432.23,65.43Z"/><path class="cls-1" d="M1485.45,42.77q0,13.57-4,23.64-5.67,13.77-17.19,13.77t-17.19-13.77q-4-10.15-4-23.64a64.33,64.33,0,0,1,4-23.53q5.67-13.86,17.19-13.87t17.19,13.87Q1485.44,29.29,1485.45,42.77Zm-6.45,0a75.49,75.49,0,0,0-2.73-20.41q-3.9-14.44-12-14.45t-12,14.45a73.55,73.55,0,0,0-2.84,20.41,74,74,0,0,0,2.84,20.9q3.9,14,12,14t12-14.07A75.56,75.56,0,0,0,1479,42.77Z"/><path class="cls-1" d="M994.06,53.86a26.09,26.09,0,0,1-3.14,12.89,14.51,14.51,0,0,1-13.46,7.73q-7.41,0-12.08-6.6-5-7.26-5-20.63a35.62,35.62,0,0,1,9-24.09A31.55,31.55,0,0,1,992.13,12l.48,1.62q-11.28,2.17-18.05,9.83a29.36,29.36,0,0,0-7.41,16.43,17,17,0,0,1,12.57-5.32A12.41,12.41,0,0,1,990,39.92Q994.07,45.08,994.06,53.86Zm-4.91,3.54q.08-8.22-2.82-13.37-3.39-6.21-10.15-5.72-6,.48-9,4.11-1.93,2.17-1.93,8.14,0,10.63,4.35,16.43,3.7,4.83,9,4.84a9,9,0,0,0,7.17-3.31Q989.06,64.74,989.15,57.4Z"/></g></g></svg>