<svg xmlns="http://www.w3.org/2000/svg" viewBox="0 0 352 102"><defs><style>.cls-1{fill:#231815;}.cls-2{fill:#d3d3d4;}.cls-3{fill:none;stroke:#231815;stroke-linecap:round;stroke-linejoin:round;stroke-width:2px;}</style></defs><title>資產 63</title><g id="圖層_2" data-name="圖層 2"><g id="購物車_我要跟團_手機版_1101_刪運費_OK置圖"><path class="cls-1" d="M193.8,47a52.59,52.59,0,0,1-3.3,19.5q-4.68,11.36-14.18,11.36T162.14,66.47a53,53,0,0,1-3.3-19.5,53.2,53.2,0,0,1,3.3-19.42q4.68-11.43,14.18-11.44T190.5,27.55A52.41,52.41,0,0,1,193.8,47Zm-5.31,0a62.35,62.35,0,0,0-2.26-16.84Q183,18.2,176.32,18.21t-9.91,11.92A60.67,60.67,0,0,0,164.07,47a60.94,60.94,0,0,0,2.34,17.24q3.22,11.52,9.91,11.52t9.91-11.6A62.37,62.37,0,0,0,188.49,47Z"/><rect class="cls-2" x="1" y="1" width="75" height="100"/><path class="cls-1" d="M47.81,59.3h-19V53.66h19Z"/><rect class="cls-2" x="276" y="1" width="75" height="100"/><path class="cls-1" d="M333.4,55.83h-18v21h-3v-21H294.32V52.45h18.13v-21h3v21h18Z"/><rect class="cls-3" x="1" y="1" width="350" height="100"/></g></g></svg>