<svg xmlns="http://www.w3.org/2000/svg" viewBox="0 0 372.67 86.84"><defs><style>.cls-1{fill:#231815;}</style></defs><title>資產 82</title><g id="圖層_2" data-name="圖層 2"><g id="購物車_我要跟團_手機版_1101_刪運費_OK置圖"><path class="cls-1" d="M10.48.74l5.57,4.08H68L71,.74a20.36,20.36,0,0,1,4.83,4,1.78,1.78,0,0,1,.74,1.21q0,.93-3.25,3v13q0,7,.19,9.1.09,2.6.09,4.26a2.65,2.65,0,0,1-1,2.14,5,5,0,0,1-2,.55c-1.24,0-1.85-.4-1.85-1.2V34.88H44.25v11.6H66.52L71,41.19q3.52,2.7,6.68,5.29c.5.31.74.65.74,1A1.31,1.31,0,0,1,76.91,49H44.25V60.49H73.94l4.82-5.57q3.72,2.88,7,5.48a1.56,1.56,0,0,1,.84,1.29,1.24,1.24,0,0,1-1.39,1.4H10.76q-6.58.09-8.81.37L0,59.38a42.31,42.31,0,0,0,10.76,1.11h29V49H21.52c-4.33.07-7.3.19-8.9.38l-1.86-4.09a38.84,38.84,0,0,0,10.76,1.21H39.71V34.88H15.29V39c0,.75-.61,1.12-1.84,1.12a5.86,5.86,0,0,1-2-.47,2.55,2.55,0,0,1-.93-2.13c0-1,.1-2.47.28-4.27a54.1,54.1,0,0,0,.47-9.09v-17A24.08,24.08,0,0,0,10.48.74Zm2.23,67.54,1.21.37A71.66,71.66,0,0,1,12,76.54a20.67,20.67,0,0,1-2.32,4.64,9.41,9.41,0,0,1-2.51,3,12.74,12.74,0,0,1-2.59,1.57,4.59,4.59,0,0,1-1.86.47c-1.24,0-1.85-.65-1.85-2a2.71,2.71,0,0,1,.37-1.39,25.94,25.94,0,0,1,3.24-2.6,19.86,19.86,0,0,0,4.27-3.9A15.92,15.92,0,0,0,11,72.83,16.18,16.18,0,0,0,12.71,68.28Zm2.6-36h24.4V7.42H15.31ZM23.1,11.88a28.69,28.69,0,0,1,5.75,5.28,17.24,17.24,0,0,1,2.88,4.36,7.41,7.41,0,0,1,.65,3c0,2-.74,3-2.23,3a1.58,1.58,0,0,1-1-.37A6.75,6.75,0,0,1,28.3,25a38.6,38.6,0,0,0-2.42-6.22A34.64,34.64,0,0,0,22,13.36Zm8.16,56.4A27.21,27.21,0,0,1,33,72.55a20.76,20.76,0,0,1,1.3,4.64,34,34,0,0,1,.27,4.08,8.82,8.82,0,0,1-.46,3,3.51,3.51,0,0,1-1.39,1.58,2.44,2.44,0,0,1-1.11.37q-1.86,0-1.86-2a7.8,7.8,0,0,1,.37-1.95,19,19,0,0,0,.19-4.73,44.44,44.44,0,0,0-.93-8.91Zm13-60.86V32.29h24.5V7.42Zm6.31,60.12a32.17,32.17,0,0,1,4.92,6.68A20.38,20.38,0,0,1,58.08,79a10.33,10.33,0,0,1,.65,3.34,5,5,0,0,1-.65,2.41c-.69.93-1.33,1.4-1.95,1.4a2.8,2.8,0,0,1-1.49-.47,3.48,3.48,0,0,1-.74-2.22,43.42,43.42,0,0,0-1.48-8.26,43.25,43.25,0,0,0-2.88-7Zm6.68-56.41q7.42,3.34,7.42,4.83c0,.68-1.48,1.05-4.45,1.11a40.87,40.87,0,0,1-4,5.47A49.64,49.64,0,0,1,51.3,28.2l-1.11-.74a66.34,66.34,0,0,0,3.43-6.31,34.67,34.67,0,0,0,2.23-5Q56.69,13.55,57.24,11.13Zm14.1,57.15a58.69,58.69,0,0,1,5.2,4.36,32.51,32.51,0,0,1,4.17,4A11.4,11.4,0,0,1,83,80.06a7.29,7.29,0,0,1,.56,2.69,4.78,4.78,0,0,1-.47,2.32,2.1,2.1,0,0,1-1.76,1.12,1.62,1.62,0,0,1-1.3-.56,4,4,0,0,1-1-2.41,18.3,18.3,0,0,0-2-4.73A38,38,0,0,0,74.31,74a32.43,32.43,0,0,0-4.08-4.64Z"/><path class="cls-1" d="M95,30.52a45.89,45.89,0,0,0,10.76,1h3.34V7.79a71.61,71.61,0,0,0-.28-7.42,36.15,36.15,0,0,1,8.82,2c.8.37,1.2.81,1.2,1.3s-.4,1-1.2,1.21a11.83,11.83,0,0,1-4,1v25.6h5.19l3.71-3.71q2.88,2,5.29,4c.43.25.65.53.65.84,0,1.05-.37,1.57-1.11,1.57H113.65v7.43q2.13,1.58,3.89,3.15a40,40,0,0,1,3.34,3.34,10,10,0,0,1,1.77,2.23,12.09,12.09,0,0,1,.74,1.57,4.36,4.36,0,0,1,.28,1.49c-.07,1.73-.68,2.6-1.86,2.6a.87.87,0,0,1-.74-.38,10.29,10.29,0,0,1-1.86-3.24,27.45,27.45,0,0,0-3.15-5.11,30.16,30.16,0,0,0-2.41-3.06V78.39a14.14,14.14,0,0,0,.18,2.79,24,24,0,0,1,.19,2.69c0,2-1,3-3,3-1.45,0-2.18-.47-2.18-1.4,0-1.36,0-3.06.1-5.1.12-2.22.18-4.14.18-5.75V46.39a74.89,74.89,0,0,1-3.25,8.07c-1.23,2.78-2.63,5.56-4.17,8.35S98,68.28,95.74,71.25l-1.11-1.39a79.44,79.44,0,0,0,4.92-9.65,65.18,65.18,0,0,0,3.71-9.56,67.39,67.39,0,0,0,2.59-9.27q.93-3.81,1.49-7.15h-1.58q-6.58.1-8.81.37ZM97,7.79a49.56,49.56,0,0,1,4.27,7,22.64,22.64,0,0,1,2,5.1,11.39,11.39,0,0,1,.65,3.53,5,5,0,0,1-.56,2.23c-.55.8-1.11,1.2-1.67,1.2a2.76,2.76,0,0,1-1.48-.46,3.43,3.43,0,0,1-.74-2.23,57.56,57.56,0,0,0-1.21-8.53,53.69,53.69,0,0,0-2.5-7Zm24.4,0a34.29,34.29,0,0,1,6.49,3.62.89.89,0,0,1,.56.84c0,.37-.31.68-.93.92a12.13,12.13,0,0,1-2.78.56c-.5,1.36-1,2.66-1.48,3.9a31.58,31.58,0,0,1-1.77,3.8c-.62,1.11-1.33,2.29-2.13,3.53s-1.55,2.19-2.41,3.24l-1.12-1.11a51.77,51.77,0,0,0,2.14-5q.83-2.5,1.58-5.1t1.29-4.92C121.13,10.52,121.32,9.09,121.44,7.79ZM151,.37a33.64,33.64,0,0,1,8.81,2c.86.37,1.3.81,1.3,1.3s-.44,1-1.3,1.21a10.85,10.85,0,0,1-3.9,1v5.94h14.1l4.09-4.46q3.33,2.33,6.3,4.64.75.38.75.93c0,1-.34,1.58-1,1.58H134v21h18.56V27.09h-3.71a58.18,58.18,0,0,0-8.91.37l-1.48-3.71a54.65,54.65,0,0,0,10.39.74h3.71V23.38a56.08,56.08,0,0,0-.37-7.42,27.74,27.74,0,0,1,7.51,1.95c.75.43,1.12.89,1.12,1.39a1.25,1.25,0,0,1-.93,1.2,6,6,0,0,1-2.78,1v3h11.87l2.6-3q4.82,3,4.82,4.09c0,.68-.86,1.54-2.6,2.59v6.68l2.6-2.59q2.59,1.93,5,3.71a.83.83,0,0,1,.56.74c0,1-.37,1.58-1.11,1.58h-7.06V50.84c0,1.18-1,1.92-3,2.23-1,0-1.51-.25-1.51-.75v-3H157v6.3c0,1.24-.86,1.86-2.59,1.86a2,2,0,0,1-2.23-2.23q0-1.11.18-3a24.15,24.15,0,0,0,.19-3h-5.2q-7.41,0-8.9.46l-1.49-3.71a64.25,64.25,0,0,0,10.39.65h5.2V38.32H134q0,7.6-.46,13.35a92.72,92.72,0,0,1-1.21,10.4,39.78,39.78,0,0,1-2,6.4,25,25,0,0,1-2.87,6.21,24,24,0,0,1-3.9,5.66,25.78,25.78,0,0,1-4.73,5.1l-1.48-1.57a34.15,34.15,0,0,0,4-5.2,30,30,0,0,0,2.88-5.1,52,52,0,0,0,2.32-6,45.81,45.81,0,0,0,1.76-7.79,84.68,84.68,0,0,0,1-9.56q.28-7.14.28-13.82Q130,17.44,128.4,8.16l6.31,3.72h16.7V7.79A56.19,56.19,0,0,0,151,.37ZM139.16,57.15l5.58,3h24.93l2.6-3q4.83,3,4.83,4.08c0,.68-.86,1.55-2.59,2.6v20c0,1.17-1,1.95-3,2.32-1,0-1.52-.25-1.52-.75V80.9H143.71V85c0,.62-.38,1.08-1.14,1.39a7.06,7.06,0,0,1-2.27.47q-1.14,0-1.14-1Zm4.55,21.24H170V62.71H143.71Zm13.36-51.3v8.53h12.15V27.09Zm0,11.23v8.44h12.15V38.32Z"/><path class="cls-1" d="M230.91,0a43,43,0,0,1,7.43,2,1,1,0,0,1,.74,1c0,.5-.56.93-1.67,1.3a18.69,18.69,0,0,1-3.53.56,65,65,0,0,0,8.17,9.27,97.52,97.52,0,0,0,11,8.73,93.5,93.5,0,0,0,12.43,6.67,67.19,67.19,0,0,0,11.41,3.81v1.48q-4.74,0-6.31,2.6a54.33,54.33,0,0,1-11.13-5.57,53.53,53.53,0,0,1-9.65-7.51,90.77,90.77,0,0,1-9-8.07,83.5,83.5,0,0,1-8-9.46,54.72,54.72,0,0,1-4.08,6.21,90.22,90.22,0,0,1-7.7,8.54q-4.74,4.45-8.81,7.6a74.51,74.51,0,0,1-9.19,6.31,75.23,75.23,0,0,1-11,6l-1.58-1.85a90.22,90.22,0,0,0,12.62-7.15q5.1-3.71,10.11-8.07a99.55,99.55,0,0,0,8.82-9,47.51,47.51,0,0,0,5.66-7.7A37.2,37.2,0,0,0,230.91,0ZM211.15,31.17a41.61,41.61,0,0,0,10.76,1.12h20.14l4.08-4.46,6.31,4.55c.49.31.74.65.74,1,0,1-.37,1.48-1.11,1.48H234.25V49.36H258l4.46-5.2c2.35,1.8,4.57,3.53,6.68,5.2a1.55,1.55,0,0,1,.74,1.2c0,.93-.5,1.39-1.49,1.39H234.25V81.27h29.32l5.19-5.94,7.33,5.75a1.77,1.77,0,0,1,.84,1.3,1.32,1.32,0,0,1-1.49,1.49H201.5q-6.58.09-8.9.37l-1.86-4.08a42.31,42.31,0,0,0,10.76,1.11h28.21V52h-23q-6.49.11-8.91.37l-1.85-4.08a42.25,42.25,0,0,0,10.76,1.12h23V34.88h-7.8q-6.58.1-8.9.37Zm-4.73,25.24a44.87,44.87,0,0,1,5.1,5.38,26.53,26.53,0,0,1,4,4.73,13.26,13.26,0,0,1,2.23,4.08,10,10,0,0,1,.56,3.34,5.15,5.15,0,0,1-.47,2.32,2.19,2.19,0,0,1-1.76.93,1.51,1.51,0,0,1-1.3-.65,5.5,5.5,0,0,1-1-2.69A26.92,26.92,0,0,0,212,68.1q-1.31-2.79-2.69-5.2a50.94,50.94,0,0,0-4-5.38Zm48.61.74q7.43,3.24,7.43,4.92c0,.61-1.49,1-4.46,1a69.35,69.35,0,0,1-6.4,7.6,76.25,76.25,0,0,1-8.07,8L242.42,78q3.79-4.63,6.12-8a55,55,0,0,0,4-6.49A46.19,46.19,0,0,0,255,57.15Z"/><path class="cls-1" d="M285,22.36a45.89,45.89,0,0,0,10.76,1h4.45V8.16a54.49,54.49,0,0,0-.37-7.42,37.24,37.24,0,0,1,8.91,2c.8.31,1.21.75,1.21,1.3s-.41,1-1.21,1.21a13.07,13.07,0,0,1-4,1.11v17h1.86L310.79,19c2,1.48,4,3,5.85,4.54.49.25.74.56.74.93,0,1.05-.37,1.58-1.12,1.58h-11.5v8.35a28.59,28.59,0,0,1,6,3.9,14.68,14.68,0,0,1,3.8,3.89,4.88,4.88,0,0,1,.93,2.69q0,3-2.22,3a2.77,2.77,0,0,1-1.4-.37,5.11,5.11,0,0,1-1.29-2,24.88,24.88,0,0,0-3.44-5.75,30.56,30.56,0,0,0-2.41-2.51v41.1a13.18,13.18,0,0,0,.19,2.79,26.24,26.24,0,0,1,.18,2.69c0,2-1,3-3,3-1.51,0-2.27-.47-2.27-1.4,0-1.36.06-3.06.19-5.1.12-2.22.18-4.14.18-5.75V36.65a82.2,82.2,0,0,1-4.08,10q-2,4.26-4.45,8.62a99.94,99.94,0,0,1-6.31,8.54l-1.11-1.39a79.78,79.78,0,0,0,5.38-9.84,75.41,75.41,0,0,0,4-9.74,78.83,78.83,0,0,0,2.87-9.55q.93-3.9,1.58-7.24h-2.32q-6.58.09-8.81.37Zm31.17-3.71a45.89,45.89,0,0,0,10.76,1h13V8.54a54.56,54.56,0,0,0-.37-7.43,37.24,37.24,0,0,1,8.91,2c.8.31,1.2.75,1.2,1.3s-.4,1-1.2,1.21a10.27,10.27,0,0,1-4,1.11v12.9H360.8l4.45-5.1q3.53,2.5,6.68,5.1a1.33,1.33,0,0,1,.74,1.11c0,1-.5,1.58-1.48,1.58H344.47V40.82h13.36l4.45-5.2q3.53,2.7,6.59,5.2A1.38,1.38,0,0,1,369.7,42c0,.92-.49,1.39-1.48,1.39H329.53q-6.5.09-8.91.37l-1.85-4.08a42.31,42.31,0,0,0,10.76,1.11h10.39V22.36h-13q-6.49.09-8.9.37ZM321,52.32l5.57,3H359.3l2.61-3q4.81,3,4.82,4.09c0,.62-.86,1.48-2.59,2.59V83.87c0,1.17-1,1.95-3,2.32-1,0-1.51-.25-1.51-.75V80.16h-34v4.45c0,.62-.38,1.08-1.13,1.39a7.12,7.12,0,0,1-2.28.46c-.76,0-1.13-.34-1.13-1Zm4.54,25.33h34V58h-34Z"/></g></g></svg>