<svg xmlns="http://www.w3.org/2000/svg" viewBox="0 0 372.67 87.58"><defs><style>.cls-1{fill:#231815;}</style></defs><title>資產 80</title><g id="圖層_2" data-name="圖層 2"><g id="購物車_我要跟團_手機版_1101_刪運費_OK置圖"><path class="cls-1" d="M10.48.74l5.57,4.08H68L71,.74a20.36,20.36,0,0,1,4.83,4,1.78,1.78,0,0,1,.74,1.21q0,.93-3.25,3v13q0,7,.19,9.1.09,2.6.09,4.26a2.65,2.65,0,0,1-1,2.14,5,5,0,0,1-2,.55c-1.24,0-1.85-.4-1.85-1.2V34.88H44.25v11.6H66.52L71,41.19q3.52,2.7,6.68,5.29c.5.31.74.65.74,1A1.31,1.31,0,0,1,76.91,49H44.25V60.49H73.94l4.82-5.57q3.72,2.88,7,5.48a1.56,1.56,0,0,1,.84,1.29,1.24,1.24,0,0,1-1.39,1.4H10.76q-6.58.09-8.81.37L0,59.38a42.31,42.31,0,0,0,10.76,1.11h29V49H21.52c-4.33.07-7.3.19-8.9.38l-1.86-4.09a38.84,38.84,0,0,0,10.76,1.21H39.71V34.88H15.29V39c0,.75-.61,1.12-1.84,1.12a5.86,5.86,0,0,1-2-.47,2.55,2.55,0,0,1-.93-2.13c0-1,.1-2.47.28-4.27a54.1,54.1,0,0,0,.47-9.09v-17A24.08,24.08,0,0,0,10.48.74Zm2.23,67.54,1.21.37A71.66,71.66,0,0,1,12,76.54a20.67,20.67,0,0,1-2.32,4.64,9.41,9.41,0,0,1-2.51,3,12.74,12.74,0,0,1-2.59,1.57,4.59,4.59,0,0,1-1.86.47c-1.24,0-1.85-.65-1.85-2a2.71,2.71,0,0,1,.37-1.39,25.94,25.94,0,0,1,3.24-2.6,19.86,19.86,0,0,0,4.27-3.9A15.92,15.92,0,0,0,11,72.83,16.18,16.18,0,0,0,12.71,68.28Zm2.6-36h24.4V7.42H15.31ZM23.1,11.88a28.69,28.69,0,0,1,5.75,5.28,17.24,17.24,0,0,1,2.88,4.36,7.41,7.41,0,0,1,.65,3c0,2-.74,3-2.23,3a1.58,1.58,0,0,1-1-.37A6.75,6.75,0,0,1,28.3,25a38.6,38.6,0,0,0-2.42-6.22A34.64,34.64,0,0,0,22,13.36Zm8.16,56.4A27.21,27.21,0,0,1,33,72.55a20.76,20.76,0,0,1,1.3,4.64,34,34,0,0,1,.27,4.08,8.82,8.82,0,0,1-.46,3,3.51,3.51,0,0,1-1.39,1.58,2.44,2.44,0,0,1-1.11.37q-1.86,0-1.86-2a7.8,7.8,0,0,1,.37-1.95,19,19,0,0,0,.19-4.73,44.44,44.44,0,0,0-.93-8.91Zm13-60.86V32.29h24.5V7.42Zm6.31,60.12a32.17,32.17,0,0,1,4.92,6.68A20.38,20.38,0,0,1,58.08,79a10.33,10.33,0,0,1,.65,3.34,5,5,0,0,1-.65,2.41c-.69.93-1.33,1.4-1.95,1.4a2.8,2.8,0,0,1-1.49-.47,3.48,3.48,0,0,1-.74-2.22,43.42,43.42,0,0,0-1.48-8.26,43.25,43.25,0,0,0-2.88-7Zm6.68-56.41q7.42,3.34,7.42,4.83c0,.68-1.48,1.05-4.45,1.11a40.87,40.87,0,0,1-4,5.47A49.64,49.64,0,0,1,51.3,28.2l-1.11-.74a66.34,66.34,0,0,0,3.43-6.31,34.67,34.67,0,0,0,2.23-5Q56.69,13.55,57.24,11.13Zm14.1,57.15a58.69,58.69,0,0,1,5.2,4.36,32.51,32.51,0,0,1,4.17,4A11.4,11.4,0,0,1,83,80.06a7.29,7.29,0,0,1,.56,2.69,4.78,4.78,0,0,1-.47,2.32,2.1,2.1,0,0,1-1.76,1.12,1.62,1.62,0,0,1-1.3-.56,4,4,0,0,1-1-2.41,18.3,18.3,0,0,0-2-4.73A38,38,0,0,0,74.31,74a32.43,32.43,0,0,0-4.08-4.64Z"/><path class="cls-1" d="M95,30.52a45.89,45.89,0,0,0,10.76,1h3.34V7.79a71.61,71.61,0,0,0-.28-7.42,36.15,36.15,0,0,1,8.82,2c.8.37,1.2.81,1.2,1.3s-.4,1-1.2,1.21a11.83,11.83,0,0,1-4,1v25.6h5.19l3.71-3.71q2.88,2,5.29,4c.43.25.65.53.65.84,0,1.05-.37,1.57-1.11,1.57H113.65v7.43q2.13,1.58,3.89,3.15a40,40,0,0,1,3.34,3.34,10,10,0,0,1,1.77,2.23,12.09,12.09,0,0,1,.74,1.57,4.36,4.36,0,0,1,.28,1.49c-.07,1.73-.68,2.6-1.86,2.6a.87.87,0,0,1-.74-.38,10.29,10.29,0,0,1-1.86-3.24,27.45,27.45,0,0,0-3.15-5.11,30.16,30.16,0,0,0-2.41-3.06V78.39a14.14,14.14,0,0,0,.18,2.79,24,24,0,0,1,.19,2.69c0,2-1,3-3,3-1.45,0-2.18-.47-2.18-1.4,0-1.36,0-3.06.1-5.1.12-2.22.18-4.14.18-5.75V46.39a74.89,74.89,0,0,1-3.25,8.07c-1.23,2.78-2.63,5.56-4.17,8.35S98,68.28,95.74,71.25l-1.11-1.39a79.44,79.44,0,0,0,4.92-9.65,65.18,65.18,0,0,0,3.71-9.56,67.39,67.39,0,0,0,2.59-9.27q.93-3.81,1.49-7.15h-1.58q-6.58.1-8.81.37ZM97,7.79a49.56,49.56,0,0,1,4.27,7,22.64,22.64,0,0,1,2,5.1,11.39,11.39,0,0,1,.65,3.53,5,5,0,0,1-.56,2.23c-.55.8-1.11,1.2-1.67,1.2a2.76,2.76,0,0,1-1.48-.46,3.43,3.43,0,0,1-.74-2.23,57.56,57.56,0,0,0-1.21-8.53,53.69,53.69,0,0,0-2.5-7Zm24.4,0a34.29,34.29,0,0,1,6.49,3.62.89.89,0,0,1,.56.84c0,.37-.31.68-.93.92a12.13,12.13,0,0,1-2.78.56c-.5,1.36-1,2.66-1.48,3.9a31.58,31.58,0,0,1-1.77,3.8c-.62,1.11-1.33,2.29-2.13,3.53s-1.55,2.19-2.41,3.24l-1.12-1.11a51.77,51.77,0,0,0,2.14-5q.83-2.5,1.58-5.1t1.29-4.92C121.13,10.52,121.32,9.09,121.44,7.79ZM151,.37a33.64,33.64,0,0,1,8.81,2c.86.37,1.3.81,1.3,1.3s-.44,1-1.3,1.21a10.85,10.85,0,0,1-3.9,1v5.94h14.1l4.09-4.46q3.33,2.33,6.3,4.64.75.38.75.93c0,1-.34,1.58-1,1.58H134v21h18.56V27.09h-3.71a58.18,58.18,0,0,0-8.91.37l-1.48-3.71a54.65,54.65,0,0,0,10.39.74h3.71V23.38a56.08,56.08,0,0,0-.37-7.42,27.74,27.74,0,0,1,7.51,1.95c.75.43,1.12.89,1.12,1.39a1.25,1.25,0,0,1-.93,1.2,6,6,0,0,1-2.78,1v3h11.87l2.6-3q4.82,3,4.82,4.09c0,.68-.86,1.54-2.6,2.59v6.68l2.6-2.59q2.59,1.93,5,3.71a.83.83,0,0,1,.56.74c0,1-.37,1.58-1.11,1.58h-7.06V50.84c0,1.18-1,1.92-3,2.23-1,0-1.51-.25-1.51-.75v-3H157v6.3c0,1.24-.86,1.86-2.59,1.86a2,2,0,0,1-2.23-2.23q0-1.11.18-3a24.15,24.15,0,0,0,.19-3h-5.2q-7.41,0-8.9.46l-1.49-3.71a64.25,64.25,0,0,0,10.39.65h5.2V38.32H134q0,7.6-.46,13.35a92.72,92.72,0,0,1-1.21,10.4,39.78,39.78,0,0,1-2,6.4,25,25,0,0,1-2.87,6.21,24,24,0,0,1-3.9,5.66,25.78,25.78,0,0,1-4.73,5.1l-1.48-1.57a34.15,34.15,0,0,0,4-5.2,30,30,0,0,0,2.88-5.1,52,52,0,0,0,2.32-6,45.81,45.81,0,0,0,1.76-7.79,84.68,84.68,0,0,0,1-9.56q.28-7.14.28-13.82Q130,17.44,128.4,8.16l6.31,3.72h16.7V7.79A56.19,56.19,0,0,0,151,.37ZM139.16,57.15l5.58,3h24.93l2.6-3q4.83,3,4.83,4.08c0,.68-.86,1.55-2.59,2.6v20c0,1.17-1,1.95-3,2.32-1,0-1.52-.25-1.52-.75V80.9H143.71V85c0,.62-.38,1.08-1.14,1.39a7.06,7.06,0,0,1-2.27.47q-1.14,0-1.14-1Zm4.55,21.24H170V62.71H143.71Zm13.36-51.3v8.53h12.15V27.09Zm0,11.23v8.44h12.15V38.32Z"/><path class="cls-1" d="M214.21,11.13q7.42,3.34,7.43,4.83c0,.68-1.49,1.05-4.46,1.11a106.46,106.46,0,0,1-8.48,13.55,136.05,136.05,0,0,1-8.12,11.5c.86-.06,1.79-.09,2.78-.09q7-.28,15.21-1a32.69,32.69,0,0,0-1.48-3.44A31.27,31.27,0,0,0,214.21,33l1.12-1.12a48.51,48.51,0,0,1,3.8,4.46,19.26,19.26,0,0,1,3,3.89,14.2,14.2,0,0,1,1.76,3.44,9.94,9.94,0,0,1,.37,2.78,4.6,4.6,0,0,1-.46,2.23A2.12,2.12,0,0,1,222,49.82a1.09,1.09,0,0,1-.93-.65,5.21,5.21,0,0,1-.65-2.32,32,32,0,0,0-.93-3.43q-4.26.82-9,1.58V78.39a13.18,13.18,0,0,0,.19,2.79,26.24,26.24,0,0,1,.18,2.69c0,2-1,3-3,3-1.51,0-2.26-.47-2.26-1.4q0-2,.18-5.1c.12-2.22.19-4.14.19-5.75V45.64c-3.1.44-6.31.81-9.65,1.12q-1.77,3.8-2.23,3.8t-1-.93a47.1,47.1,0,0,1-2.32-7.23c1.55,0,4.11-.06,7.7-.19a120.28,120.28,0,0,0,6.87-10.67,75.92,75.92,0,0,0,5.56-10.39A66.51,66.51,0,0,0,214.21,11.13ZM203.45,0q7.43,3.35,7.42,4.82c0,.69-1.48,1.06-4.45,1.12a52.81,52.81,0,0,1-4.17,7.14,49.27,49.27,0,0,1-4.36,6.68,23.41,23.41,0,0,1,2.69,2.6,12.69,12.69,0,0,1,1.85,2.23,12.1,12.1,0,0,1,.74,1.76,4.08,4.08,0,0,1,.28,1.48c-.06,1.8-.68,2.69-1.85,2.69a1.16,1.16,0,0,1-.84-.37c-.25-.37-.87-1.51-1.85-3.43a26.34,26.34,0,0,0-3.25-5.29A48.74,48.74,0,0,0,190.84,16l1.2-1a35.91,35.91,0,0,1,4.73,3.8c1.18-2.41,2.1-4.55,2.79-6.4A55.53,55.53,0,0,0,202,6.12,54.43,54.43,0,0,0,203.45,0Zm-7,53.9a53.4,53.4,0,0,1,7.24,2.88,1.67,1.67,0,0,1,.55,1.2c0,.56-.52.93-1.57,1.12a17.69,17.69,0,0,1-2.51.28c-.68,3-1.39,5.93-2.13,8.72a52.27,52.27,0,0,1-2.51,7.14,59.94,59.94,0,0,1-3.15,6.49l-1.48-.83a74.1,74.1,0,0,0,2.22-7.15c.5-2,1-4.17,1.49-6.58s.8-4.67,1.11-6.77A49.13,49.13,0,0,0,196.4,53.9Zm19.39-.46q1.58,2,2.88,3.89A20.78,20.78,0,0,1,221.08,61a11.23,11.23,0,0,1,1.3,3.06,8.76,8.76,0,0,1,.37,2.51,4.71,4.71,0,0,1-.46,2.23,2.14,2.14,0,0,1-1.77,1.11c-.25,0-.46-.19-.65-.56a4.67,4.67,0,0,1-.65-2.13,18.89,18.89,0,0,0-1-4.36,41.22,41.22,0,0,0-1.39-4.08,28.37,28.37,0,0,0-2.22-4.09Zm16.61,1.48a39,39,0,0,1,7.23,2.88c.37.31.56.59.56.83,0,.56-.37,1-1.11,1.3a11.18,11.18,0,0,1-3.34.56,52,52,0,0,1-3.25,5.75q-1.86,2.88-4,5.75a38,38,0,0,1-4.17,4.55A34.84,34.84,0,0,1,219,80.9l-1.49-1.11A32.93,32.93,0,0,0,222.93,74a72.74,72.74,0,0,0,4.83-7.23,56.26,56.26,0,0,0,3.71-7.8A15.35,15.35,0,0,0,232.4,54.92ZM245.66.37a34.85,34.85,0,0,1,8.82,2c.86.37,1.3.81,1.3,1.3s-.44,1-1.3,1.21a10.91,10.91,0,0,1-3.9,1v7.79h17.81l2.6-2.88a41.15,41.15,0,0,1,5.66,4.55.79.79,0,0,1,.28.56c0,.49-.56.89-1.67,1.2s-1.92.41-2.78.65a24.59,24.59,0,0,1-3.25,3.71,23.76,23.76,0,0,1-3.81,3.71l-1.48-1.11A20.11,20.11,0,0,0,266.72,20a16,16,0,0,0,1.67-3.71H228.5a23.18,23.18,0,0,1-.28,3.71,18.58,18.58,0,0,1-1,4.92,11.17,11.17,0,0,1-1.3,2.87,3.62,3.62,0,0,1-1.39,1.49,2,2,0,0,1-1.11.37c-1.49,0-2.23-.5-2.23-1.49a3.66,3.66,0,0,1,.93-2,28,28,0,0,0,3.15-5.47,22,22,0,0,0,1.49-4.83,49.2,49.2,0,0,0,.83-6.95h1v4.82H246V7.79A54.15,54.15,0,0,0,245.66.37Zm-20,44.16a42.4,42.4,0,0,0,10.77,1.11h28.29l4.08-4.45q3.35,2.41,6.22,4.64.84.47.84.93c0,1-.38,1.48-1.12,1.48H250.58V79a7.35,7.35,0,0,1-1.33,4.83,6.49,6.49,0,0,1-3.12,2.41,6.82,6.82,0,0,1-3.06.93l-.19-1.49a4,4,0,0,0-.74-1.57,8.3,8.3,0,0,0-3.62-2,22.34,22.34,0,0,0-6.22-1.3V78.67a39.42,39.42,0,0,0,10,1.49,5.38,5.38,0,0,0,3-.56c.5-.37.75-1.3.75-2.78V48.24h-9.65c-4.4.06-7.33.19-8.82.37ZM230.91,29a38.69,38.69,0,0,0,10.76,1.2h16l4.08-4.54c2.23,1.54,4.33,3.09,6.31,4.63.5.31.74.62.74.93,0,1-.37,1.49-1.11,1.49h-26q-6.58.09-8.9.37Zm29.32,27.46A50,50,0,0,1,266,62a26.72,26.72,0,0,1,4.45,5,12.11,12.11,0,0,1,2.51,4.27,8.72,8.72,0,0,1,.65,3.34,4.81,4.81,0,0,1-.47,2.32A2.11,2.11,0,0,1,271.36,78a1.76,1.76,0,0,1-1.48-.74c-.44-.31-.81-1.24-1.12-2.78a25,25,0,0,0-2.13-6q-1.39-2.79-3-5.38a44.32,44.32,0,0,0-4.54-5.57Z"/><path class="cls-1" d="M325.91.37a43,43,0,0,1,7.43,2,1,1,0,0,1,.74.93c0,.56-.56,1-1.67,1.39a13.16,13.16,0,0,1-3.34.47A53,53,0,0,0,337.23,14a94.28,94.28,0,0,0,11.23,8.63,89.42,89.42,0,0,0,12.61,6.68A61.15,61.15,0,0,0,372.67,33V34.6c-3.15,0-5.26.84-6.31,2.51A56.81,56.81,0,0,1,355,31.54a54.55,54.55,0,0,1-9.83-7.33,85.08,85.08,0,0,1-9.18-8A101.62,101.62,0,0,1,328,7a66.24,66.24,0,0,1-4.26,6.49,80.39,80.39,0,0,1-7.8,8.35,102.91,102.91,0,0,1-9,7.52,75.87,75.87,0,0,1-9.37,6.3,69.76,69.76,0,0,1-11.31,5.94l-1.49-1.85a86.29,86.29,0,0,0,12.9-7.05q5.1-3.72,10.3-8,5.1-4.63,9-8.91a43.2,43.2,0,0,0,5.57-7.7A32.15,32.15,0,0,0,325.91.37ZM299.47,48.24l5.58,3h46.46l2.6-3q4.83,3,4.83,4.08c0,.62-.87,1.49-2.6,2.6V85.44c0,1.12-1,1.83-3,2.14-1,0-1.51-.25-1.51-.74V80.9H304v4.92c0,.55-.35,1-1,1.29a8.74,8.74,0,0,1-2.37.47,1,1,0,0,1-1.14-1.12Zm3.81-14.84A39.28,39.28,0,0,0,314,34.6H341.5L346,29.32q3.53,2.68,6.59,5.28c.56.32.83.65.83,1a1.31,1.31,0,0,1-1.48,1.49H314q-6.5.09-8.91.37Zm.74,45H351.8V53.9H304Z"/></g></g></svg>