<svg xmlns="http://www.w3.org/2000/svg" viewBox="0 0 466.93 87.21"><defs><style>.cls-1{fill:#231815;}</style></defs><title>資產 85</title><g id="圖層_2" data-name="圖層 2"><g id="購物車_我要跟團_手機版_1101_刪運費_OK置圖"><path class="cls-1" d="M10.48.37l5.57,4.08H68L71,.37a19.89,19.89,0,0,1,4.83,4,1.76,1.76,0,0,1,.74,1.21q0,.93-3.25,3v13q0,7,.19,9.1.09,2.6.09,4.26a2.65,2.65,0,0,1-1,2.14,5,5,0,0,1-2,.55c-1.24,0-1.85-.4-1.85-1.2V34.51H44.25v11.6H66.52L71,40.82c2.35,1.79,4.58,3.56,6.68,5.29.5.31.74.65.74,1a1.31,1.31,0,0,1-1.48,1.48H44.25V60.12H73.94l4.82-5.57q3.72,2.88,7,5.47a1.59,1.59,0,0,1,.84,1.3,1.23,1.23,0,0,1-1.39,1.39H10.76c-4.39.07-7.33.19-8.81.38L0,59a41.8,41.8,0,0,0,10.76,1.12h29V48.61H21.52q-6.49.11-8.9.37L10.76,44.9a38.84,38.84,0,0,0,10.76,1.21H39.71V34.51H15.29v4.08c0,.75-.61,1.12-1.84,1.12a5.86,5.86,0,0,1-2-.47,2.55,2.55,0,0,1-.93-2.13c0-1,.1-2.47.28-4.27a54.1,54.1,0,0,0,.47-9.09v-17A24.08,24.08,0,0,0,10.48.37Zm2.23,67.54,1.21.37A71.66,71.66,0,0,1,12,76.17a20.67,20.67,0,0,1-2.32,4.64,9.37,9.37,0,0,1-2.51,3,12.4,12.4,0,0,1-2.59,1.58,4.59,4.59,0,0,1-1.86.47c-1.24,0-1.85-.65-1.85-1.95a2.71,2.71,0,0,1,.37-1.39,25,25,0,0,1,3.24-2.6A19.86,19.86,0,0,0,8.72,76,15.92,15.92,0,0,0,11,72.46,16.3,16.3,0,0,0,12.71,67.91Zm2.6-36h24.4V7.05H15.31ZM23.1,11.5a29,29,0,0,1,5.75,5.29,17.24,17.24,0,0,1,2.88,4.36,7.41,7.41,0,0,1,.65,3c0,2-.74,3-2.23,3a1.58,1.58,0,0,1-1-.37,6.73,6.73,0,0,1-.83-2.14,38.82,38.82,0,0,0-2.42-6.21A34.64,34.64,0,0,0,22,13Zm8.16,56.41A27.21,27.21,0,0,1,33,72.18a20.76,20.76,0,0,1,1.3,4.64,34,34,0,0,1,.27,4.08,8.82,8.82,0,0,1-.46,3,3.43,3.43,0,0,1-1.39,1.57,2.36,2.36,0,0,1-1.11.38q-1.86,0-1.86-1.95a7.64,7.64,0,0,1,.37-2,19,19,0,0,0,.19-4.73,44.44,44.44,0,0,0-.93-8.91Zm13-60.86V31.91h24.5V7.05Zm6.31,60.12a31.91,31.91,0,0,1,4.92,6.68,20.38,20.38,0,0,1,2.6,4.82A10.33,10.33,0,0,1,58.73,82a5.07,5.07,0,0,1-.65,2.41c-.69.93-1.33,1.4-1.95,1.4a2.8,2.8,0,0,1-1.49-.47,3.48,3.48,0,0,1-.74-2.23,43.29,43.29,0,0,0-1.48-8.25,43.25,43.25,0,0,0-2.88-7Zm6.68-56.41q7.42,3.35,7.42,4.83c0,.68-1.48,1.05-4.45,1.11a41.52,41.52,0,0,1-4,5.47,49.64,49.64,0,0,1-4.92,5.66l-1.11-.74a66.34,66.34,0,0,0,3.43-6.31,34.67,34.67,0,0,0,2.23-5Q56.69,13.18,57.24,10.76Zm14.1,57.15a57,57,0,0,1,5.2,4.36,32.51,32.51,0,0,1,4.17,4A11.4,11.4,0,0,1,83,79.69a7.29,7.29,0,0,1,.56,2.69,4.78,4.78,0,0,1-.47,2.32,2.12,2.12,0,0,1-1.76,1.12,1.62,1.62,0,0,1-1.3-.56,4,4,0,0,1-1-2.41,18.3,18.3,0,0,0-2-4.73,38,38,0,0,0-2.78-4.46A32.43,32.43,0,0,0,70.23,69Z"/><path class="cls-1" d="M95,30.15a45.89,45.89,0,0,0,10.76,1h3.34V7.42A71.47,71.47,0,0,0,108.82,0a36.15,36.15,0,0,1,8.82,2c.8.37,1.2.81,1.2,1.3s-.4,1-1.2,1.21a11.83,11.83,0,0,1-4,1v25.6h5.19l3.71-3.71q2.88,2,5.29,4c.43.25.65.53.65.84,0,1.05-.37,1.57-1.11,1.57H113.65v7.42q2.13,1.59,3.89,3.16a40,40,0,0,1,3.34,3.34A9.94,9.94,0,0,1,122.65,50a12.83,12.83,0,0,1,.74,1.58,4.36,4.36,0,0,1,.28,1.49c-.07,1.73-.68,2.59-1.86,2.59a.86.86,0,0,1-.74-.37,10.43,10.43,0,0,1-1.86-3.24,27.45,27.45,0,0,0-3.15-5.11,30.16,30.16,0,0,0-2.41-3.06V78a14.14,14.14,0,0,0,.18,2.79A23.9,23.9,0,0,1,114,83.5c0,2-1,3-3,3-1.45,0-2.18-.46-2.18-1.39,0-1.36,0-3.06.1-5.1.12-2.23.18-4.14.18-5.75V46a75.74,75.74,0,0,1-3.25,8.07c-1.23,2.78-2.63,5.56-4.17,8.35S98,67.91,95.74,70.88l-1.11-1.39a79.44,79.44,0,0,0,4.92-9.65,65.18,65.18,0,0,0,3.71-9.56A67.79,67.79,0,0,0,105.85,41q.93-3.81,1.49-7.15h-1.58c-4.39.06-7.33.19-8.81.37ZM97,7.42a49.56,49.56,0,0,1,4.27,7,22.64,22.64,0,0,1,2,5.1A11.39,11.39,0,0,1,104,23a4.93,4.93,0,0,1-.56,2.22c-.55.81-1.11,1.21-1.67,1.21a2.76,2.76,0,0,1-1.48-.46,3.43,3.43,0,0,1-.74-2.23,57.73,57.73,0,0,0-1.21-8.54,54.73,54.73,0,0,0-2.5-7Zm24.4,0A34.29,34.29,0,0,1,127.93,11a.88.88,0,0,1,.56.84c0,.37-.31.68-.93.92a12.13,12.13,0,0,1-2.78.56c-.5,1.36-1,2.66-1.48,3.9a31.58,31.58,0,0,1-1.77,3.8c-.62,1.11-1.33,2.29-2.13,3.52A39.54,39.54,0,0,1,117,27.83l-1.12-1.11a51.77,51.77,0,0,0,2.14-5q.83-2.51,1.58-5.1t1.29-4.92C121.13,10.14,121.32,8.72,121.44,7.42ZM151,0a33.64,33.64,0,0,1,8.81,2c.86.37,1.3.81,1.3,1.3s-.44,1-1.3,1.21a10.85,10.85,0,0,1-3.9,1V11.5h14.1l4.09-4.45c2.22,1.55,4.32,3.09,6.3,4.64q.75.38.75.93c0,1.05-.34,1.57-1,1.57H134V35.25h18.56V26.72h-3.71a58.18,58.18,0,0,0-8.91.37l-1.48-3.71a55.5,55.5,0,0,0,10.39.74h3.71V23a56.08,56.08,0,0,0-.37-7.42,28.14,28.14,0,0,1,7.51,1.94c.75.44,1.12.9,1.12,1.4a1.25,1.25,0,0,1-.93,1.2,6,6,0,0,1-2.78,1v3h11.87l2.6-3q4.82,3,4.82,4.08c0,.69-.86,1.55-2.6,2.6v6.68l2.6-2.6q2.59,1.95,5,3.71a.86.86,0,0,1,.56.75c0,1.05-.37,1.57-1.11,1.57h-7.06V50.47c0,1.17-1,1.92-3,2.23-1,0-1.51-.25-1.51-.75V49H157v6.31c0,1.24-.86,1.86-2.59,1.86a2,2,0,0,1-2.23-2.23q0-1.11.18-3a24.18,24.18,0,0,0,.19-3h-5.2q-7.41,0-8.9.47l-1.49-3.71a64.25,64.25,0,0,0,10.39.65h5.2V37.94H134q0,7.62-.46,13.36a92.25,92.25,0,0,1-1.21,10.39,39.93,39.93,0,0,1-2,6.41,25,25,0,0,1-2.87,6.21,24,24,0,0,1-3.9,5.66,25.78,25.78,0,0,1-4.73,5.1l-1.48-1.57a34.15,34.15,0,0,0,4-5.2,30.37,30.37,0,0,0,2.88-5.1,52,52,0,0,0,2.32-6,45.81,45.81,0,0,0,1.76-7.79,84.68,84.68,0,0,0,1-9.56q.28-7.14.28-13.82Q130,17.07,128.4,7.79l6.31,3.71h16.7V7.42A56.08,56.08,0,0,0,151,0ZM139.16,56.78l5.58,3h24.93l2.6-3q4.83,3,4.83,4.08c0,.68-.86,1.55-2.59,2.6v20c0,1.17-1,1.94-3,2.32-1,0-1.52-.25-1.52-.75V80.53H143.71v4.08c0,.62-.38,1.08-1.14,1.39a7,7,0,0,1-2.27.46q-1.14,0-1.14-1ZM143.71,78H170V62.34H143.71Zm13.36-51.3v8.53h12.15V26.72Zm0,11.22v8.45h12.15V37.94Z"/><path class="cls-1" d="M195.29,4.45l5.56,4.09h65.32l3-4.09a20.49,20.49,0,0,1,4.82,4,1.78,1.78,0,0,1,.74,1.21q0,.93-3.34,3V65.41c0,4.57.1,7.57.28,9,.06,1.74.09,3.16.09,4.27a2.65,2.65,0,0,1-1,2.14,4.93,4.93,0,0,1-1.95.55c-1.23,0-1.85-.4-1.85-1.2V74.22h-66.8v6.31c0,.8-.62,1.2-1.85,1.2a5.56,5.56,0,0,1-2-.55,2.75,2.75,0,0,1-.93-2.14q0-1.58.18-4.26a44.94,44.94,0,0,0,.56-9v-55A24.13,24.13,0,0,0,195.29,4.45Zm4.82,67.17h66.71V53c-.81.13-1.74.28-2.79.47a43.15,43.15,0,0,1-5.56.46,40,40,0,0,1-8.54-.93q-4.08-.47-5.29-1.39a3.28,3.28,0,0,1-1.48-1.67,10.87,10.87,0,0,1-.74-2.78q-.1-1.58-.1-5.94V11.13H223.86V22.36a62,62,0,0,1-.94,11.41,38.94,38.94,0,0,1-3.13,9.65,33.85,33.85,0,0,1-5.39,8.72,53.71,53.71,0,0,1-9.93,8.72L203,59a47.64,47.64,0,0,0,8.35-8,51.81,51.81,0,0,0,4.36-7,39.92,39.92,0,0,0,2.6-8.35,68,68,0,0,0,1-13.36V11.13H200.11Zm46.76-60.49V41.66a36.4,36.4,0,0,0,.18,4.82,2.6,2.6,0,0,0,1.3,1.58A12.07,12.07,0,0,0,252,49.17a27.69,27.69,0,0,0,6.1.65,19.49,19.49,0,0,0,4.34-.56,4.25,4.25,0,0,0,2.4-.93,1.65,1.65,0,0,1,.83-.46,6.92,6.92,0,0,1,1.11.09V11.13Z"/><path class="cls-1" d="M325.91,0a43,43,0,0,1,7.43,2,1,1,0,0,1,.74.93c0,.56-.56,1-1.67,1.39a13.13,13.13,0,0,1-3.34.46,53,53,0,0,0,8.16,8.82,94.28,94.28,0,0,0,11.23,8.63A89.42,89.42,0,0,0,361.07,29a61.88,61.88,0,0,0,11.6,3.71v1.57c-3.15,0-5.26.84-6.31,2.51A56.81,56.81,0,0,1,355,31.17a55,55,0,0,1-9.83-7.33,84.08,84.08,0,0,1-9.18-8A100.05,100.05,0,0,1,328,6.59a66.24,66.24,0,0,1-4.26,6.49,80.39,80.39,0,0,1-7.8,8.35,104.72,104.72,0,0,1-9,7.52,77,77,0,0,1-9.37,6.3,69.76,69.76,0,0,1-11.31,5.94l-1.49-1.85a86.29,86.29,0,0,0,12.9-7.05q5.1-3.72,10.3-8c3.4-3.1,6.4-6.06,9-8.91a43.57,43.57,0,0,0,5.57-7.7A32.15,32.15,0,0,0,325.91,0ZM299.47,47.87l5.58,3h46.46l2.6-3q4.83,3,4.83,4.08c0,.62-.87,1.49-2.6,2.6V85.07c0,1.12-1,1.83-3,2.14-1,0-1.51-.25-1.51-.75V80.53H304v4.91c0,.56-.35,1-1,1.3a8.74,8.74,0,0,1-2.37.47,1,1,0,0,1-1.14-1.12ZM303.28,33A39.28,39.28,0,0,0,314,34.23H341.5L346,29q3.53,2.68,6.59,5.28c.56.31.83.65.83,1a1.31,1.31,0,0,1-1.48,1.49H314q-6.5.09-8.91.37ZM304,78H351.8V53.53H304Z"/><path class="cls-1" d="M379.72,38.32a45.89,45.89,0,0,0,10.76,1h63.09l5.19-5.94q3.9,3,7.33,5.84a1.53,1.53,0,0,1,.84,1.21c0,1-.5,1.58-1.49,1.58h-75q-6.59.09-8.9.37Z"/></g></g></svg>