<svg xmlns="http://www.w3.org/2000/svg" viewBox="0 0 371.56 86.46"><defs><style>.cls-1{fill:#231815;}</style></defs><title>資產 87</title><g id="圖層_2" data-name="圖層 2"><g id="購物車_我要跟團_手機版_1101_刪運費_OK置圖"><path class="cls-1" d="M10.48.37l5.57,4.08H68L71,.37a19.89,19.89,0,0,1,4.83,4,1.76,1.76,0,0,1,.74,1.21q0,.93-3.25,3v13q0,7,.19,9.1.09,2.6.09,4.26a2.65,2.65,0,0,1-1,2.14,5,5,0,0,1-2,.55c-1.24,0-1.85-.4-1.85-1.2V34.51H44.25v11.6H66.52L71,40.82q3.52,2.7,6.68,5.29c.5.31.74.65.74,1a1.31,1.31,0,0,1-1.48,1.48H44.25V60.12H73.94l4.82-5.57q3.72,2.88,7,5.47a1.59,1.59,0,0,1,.84,1.3,1.23,1.23,0,0,1-1.39,1.39H10.76c-4.39.07-7.33.19-8.81.38L0,59a41.8,41.8,0,0,0,10.76,1.12h29V48.61H21.52q-6.49.11-8.9.37L10.76,44.9a38.84,38.84,0,0,0,10.76,1.21H39.71V34.51H15.29v4.08c0,.75-.61,1.12-1.85,1.12a5.86,5.86,0,0,1-2-.47,2.55,2.55,0,0,1-.93-2.13c0-1,.1-2.47.28-4.27a54.1,54.1,0,0,0,.47-9.09v-17A24.08,24.08,0,0,0,10.48.37Zm2.23,67.54,1.21.37A71.66,71.66,0,0,1,12,76.17a20.67,20.67,0,0,1-2.32,4.64,9.37,9.37,0,0,1-2.51,3,12.4,12.4,0,0,1-2.59,1.58,4.59,4.59,0,0,1-1.86.47c-1.24,0-1.85-.65-1.85-1.95a2.71,2.71,0,0,1,.37-1.39,25,25,0,0,1,3.24-2.6A19.86,19.86,0,0,0,8.72,76,15.92,15.92,0,0,0,11,72.46,16.18,16.18,0,0,0,12.71,67.91Zm2.6-36h24.4V7.05H15.31ZM23.1,11.5a29,29,0,0,1,5.75,5.29,17.24,17.24,0,0,1,2.88,4.36,7.41,7.41,0,0,1,.65,3c0,2-.74,3-2.23,3a1.58,1.58,0,0,1-1-.37,6.73,6.73,0,0,1-.83-2.14,38.82,38.82,0,0,0-2.42-6.21A34.64,34.64,0,0,0,22,13Zm8.16,56.41A27.21,27.21,0,0,1,33,72.18a20.76,20.76,0,0,1,1.3,4.64,34,34,0,0,1,.27,4.08,8.82,8.82,0,0,1-.46,3,3.43,3.43,0,0,1-1.39,1.57,2.36,2.36,0,0,1-1.11.38q-1.86,0-1.86-1.95a7.64,7.64,0,0,1,.37-2,19,19,0,0,0,.19-4.73,44.44,44.44,0,0,0-.93-8.91Zm13-60.86V31.91h24.5V7.05Zm6.31,60.12a31.91,31.91,0,0,1,4.92,6.68,20,20,0,0,1,2.6,4.82A10.33,10.33,0,0,1,58.73,82a5.07,5.07,0,0,1-.65,2.41c-.68.93-1.33,1.4-1.95,1.4a2.8,2.8,0,0,1-1.49-.47,3.48,3.48,0,0,1-.74-2.23,43.29,43.29,0,0,0-1.48-8.25,43.25,43.25,0,0,0-2.88-7Zm6.68-56.41q7.42,3.35,7.42,4.83c0,.68-1.48,1.05-4.45,1.11a41.52,41.52,0,0,1-4,5.47,49.64,49.64,0,0,1-4.92,5.66l-1.11-.74a66.34,66.34,0,0,0,3.43-6.31,34.67,34.67,0,0,0,2.23-5Q56.69,13.18,57.24,10.76Zm14.1,57.15a57,57,0,0,1,5.2,4.36,32.51,32.51,0,0,1,4.17,4A11.4,11.4,0,0,1,83,79.69a7.29,7.29,0,0,1,.56,2.69,4.78,4.78,0,0,1-.47,2.32,2.12,2.12,0,0,1-1.76,1.12,1.62,1.62,0,0,1-1.3-.56,4,4,0,0,1-1-2.41,18.3,18.3,0,0,0-2-4.73,38,38,0,0,0-2.78-4.46A32.43,32.43,0,0,0,70.23,69Z"/><path class="cls-1" d="M95,30.15a45.89,45.89,0,0,0,10.76,1h3.34V7.42A71.47,71.47,0,0,0,108.82,0a36.15,36.15,0,0,1,8.82,2c.8.37,1.2.81,1.2,1.3s-.4,1-1.2,1.21a11.83,11.83,0,0,1-4,1v25.6h5.19l3.71-3.71q2.88,2,5.29,4c.43.25.65.53.65.84,0,1.05-.37,1.57-1.11,1.57H113.65v7.42q2.13,1.59,3.89,3.16a40,40,0,0,1,3.34,3.34A10.17,10.17,0,0,1,122.65,50a12.83,12.83,0,0,1,.74,1.58,4.36,4.36,0,0,1,.28,1.49c-.07,1.73-.68,2.59-1.86,2.59a.86.86,0,0,1-.74-.37,10.43,10.43,0,0,1-1.86-3.24,27.45,27.45,0,0,0-3.15-5.11,30.16,30.16,0,0,0-2.41-3.06V78a14.14,14.14,0,0,0,.18,2.79A23.9,23.9,0,0,1,114,83.5c0,2-1,3-3,3-1.45,0-2.18-.46-2.18-1.39,0-1.36,0-3.06.1-5.1.12-2.23.18-4.14.18-5.75V46a75.74,75.74,0,0,1-3.25,8.07q-1.84,4.17-4.17,8.35-2.5,4-5.94,8.44l-1.11-1.39a79.44,79.44,0,0,0,4.92-9.65,65.18,65.18,0,0,0,3.71-9.56A67.39,67.39,0,0,0,105.85,41q.93-3.81,1.49-7.15h-1.58c-4.39.06-7.33.19-8.81.37ZM97,7.42a49.56,49.56,0,0,1,4.27,7,22.64,22.64,0,0,1,2,5.1A11.39,11.39,0,0,1,104,23a4.93,4.93,0,0,1-.56,2.22c-.55.81-1.11,1.21-1.67,1.21a2.76,2.76,0,0,1-1.48-.46,3.43,3.43,0,0,1-.74-2.23,57.94,57.94,0,0,0-1.21-8.54,54.73,54.73,0,0,0-2.5-7Zm24.4,0A34.29,34.29,0,0,1,127.93,11a.88.88,0,0,1,.56.84c0,.37-.31.68-.93.92a12.13,12.13,0,0,1-2.78.56c-.5,1.36-1,2.66-1.48,3.9a31.58,31.58,0,0,1-1.77,3.8c-.62,1.11-1.33,2.29-2.13,3.52A39.54,39.54,0,0,1,117,27.83l-1.12-1.11a51.77,51.77,0,0,0,2.14-5q.83-2.51,1.58-5.1t1.29-4.92C121.13,10.14,121.32,8.72,121.44,7.42ZM151,0a33.64,33.64,0,0,1,8.81,2c.86.37,1.3.81,1.3,1.3s-.44,1-1.3,1.21a10.85,10.85,0,0,1-3.9,1V11.5h14.1l4.09-4.45c2.22,1.55,4.32,3.09,6.3,4.64q.75.38.75.93c0,1.05-.34,1.57-1,1.57H134V35.25h18.56V26.72h-3.71a58.18,58.18,0,0,0-8.91.37l-1.48-3.71a54.65,54.65,0,0,0,10.39.74h3.71V23a54.39,54.39,0,0,0-.37-7.42,28.14,28.14,0,0,1,7.51,1.94c.75.44,1.12.9,1.12,1.4a1.25,1.25,0,0,1-.93,1.2,6,6,0,0,1-2.78,1v3h11.87l2.6-3q4.82,3,4.82,4.08c0,.69-.86,1.55-2.6,2.6v6.68l2.6-2.6q2.59,1.95,5,3.71a.86.86,0,0,1,.56.75c0,1.05-.37,1.57-1.11,1.57h-7.06V50.47c0,1.17-1,1.92-3,2.23-1,0-1.51-.25-1.51-.75V49H157v6.31c0,1.24-.86,1.86-2.59,1.86a2,2,0,0,1-2.23-2.23q0-1.11.18-3a24.18,24.18,0,0,0,.19-3h-5.2q-7.41,0-8.9.47l-1.49-3.71a64.25,64.25,0,0,0,10.39.65h5.2V37.94H134q0,7.62-.46,13.36a92.25,92.25,0,0,1-1.21,10.39,39.6,39.6,0,0,1-2,6.41,25,25,0,0,1-2.87,6.21,24,24,0,0,1-3.9,5.66,25.78,25.78,0,0,1-4.73,5.1l-1.48-1.57a33.52,33.52,0,0,0,4-5.2,30.37,30.37,0,0,0,2.88-5.1,52,52,0,0,0,2.32-6,45.81,45.81,0,0,0,1.76-7.79,84.68,84.68,0,0,0,1-9.56q.28-7.14.28-13.82Q130,17.07,128.4,7.79l6.31,3.71h16.7V7.42A56.08,56.08,0,0,0,151,0ZM139.16,56.78l5.58,3h24.93l2.6-3q4.83,3,4.83,4.08c0,.68-.86,1.55-2.59,2.6v20c0,1.17-1,1.94-3,2.32-1,0-1.52-.25-1.52-.75V80.53H143.71v4.08c0,.62-.38,1.08-1.14,1.39a7,7,0,0,1-2.27.46q-1.14,0-1.14-1ZM143.71,78H170V62.34H143.71Zm13.36-51.3v8.53h12.15V26.72Zm0,11.22v8.45h12.15V37.94Z"/><path class="cls-1" d="M197.79,14.19a45.36,45.36,0,0,0,10.76,1h16.7V7.42A54.39,54.39,0,0,0,224.88,0a36.3,36.3,0,0,1,8.91,2c.8.37,1.21.81,1.21,1.3s-.41,1-1.21,1.21a11.83,11.83,0,0,1-4,1v9.64H245l4.09-4.45c2.22,1.55,4.33,3.1,6.31,4.64.49.25.74.56.74.93v.18a68.25,68.25,0,0,0,7.79-13.17,48.89,48.89,0,0,1,8.16,4.27c.75.49,1.12.93,1.12,1.3s-.59.83-1.76,1.2a18.81,18.81,0,0,1-4.55.65,193.19,193.19,0,0,1-16.33,20.5c-1.11,1.12-2.26,2.2-3.43,3.25h17.53l4.46-4.73q3.33,2.41,6.3,4.82.75.46.75,1c0,1-.34,1.49-1,1.49h-30.8a124.84,124.84,0,0,1-10.12,8,107.52,107.52,0,0,1-9.65,6.49V62.44a108.61,108.61,0,0,0,22.55-8.26q7.78-4,11.6-9.28a56.56,56.56,0,0,1,7.42,4.55c.49.31.74.65.74,1q0,1-1.11,1.11a7.89,7.89,0,0,1-1.77-.37,8,8,0,0,0-2.69-.37,82.74,82.74,0,0,1-21,9.56,68.42,68.42,0,0,1-15.78,4.26V76.82a2.77,2.77,0,0,0,.38,1.39,2.12,2.12,0,0,0,1.11.93,6.45,6.45,0,0,0,2.13.65,48.56,48.56,0,0,0,6.78.37h18.18a59.47,59.47,0,0,0,6.77-.28c1-.25,1.92-.47,2.78-.65A2.87,2.87,0,0,0,264.5,78a5.47,5.47,0,0,0,1-2.32q.83-3.89,1.76-13.36l1.86.75v11.5c0,1.79.21,2.88.65,3.25,1.79.61,2.69,1.51,2.69,2.69a1.63,1.63,0,0,1-.47,1.2,4.09,4.09,0,0,1-1.95,1.12A18.81,18.81,0,0,1,265.24,84q-3.53.29-12.06.28H235a49.15,49.15,0,0,1-8.73-.56,11.33,11.33,0,0,1-3.84-1.11,4.92,4.92,0,0,1-1.9-2,6.29,6.29,0,0,1-.47-2.23v-24c-1.86,1-3.77,1.95-5.75,2.88a113.38,113.38,0,0,1-22.08,8.26l-1.12-1.95A195.28,195.28,0,0,0,212.45,55a89.35,89.35,0,0,0,14.38-8.9,90.26,90.26,0,0,0,11-9H200.76a73.58,73.58,0,0,0-8.81.46L190,33.4a42.31,42.31,0,0,0,10.76,1.11h24.49V17.91h-16.7q-6.59.09-8.9.37Zm43,20.32a18,18,0,0,0,1.57-1.58,110.41,110.41,0,0,0,12.81-15H229.8v16.6Z"/><path class="cls-1" d="M285,7.05a42.31,42.31,0,0,0,10.76,1.11h17.07V7.42A54.39,54.39,0,0,0,312.46,0a26.79,26.79,0,0,1,7.61,2c.68.37,1,.81,1,1.3a1.25,1.25,0,0,1-.84,1.21,6.82,6.82,0,0,1-2.87,1V8.16h20.69V7.42A56.08,56.08,0,0,0,337.7,0a28,28,0,0,1,7.6,2c.74.37,1.12.81,1.12,1.3s-.34,1-1,1.21a6.26,6.26,0,0,1-2.79,1V8.16h17.07L364.14,3c2.35,1.73,4.57,3.46,6.68,5.19a1.34,1.34,0,0,1,.74,1.12c0,1-.47,1.48-1.39,1.48H342.61v4.45c0,1.24-.87,1.86-2.6,1.86a2,2,0,0,1-2.24-2.23,27.43,27.43,0,0,1,.19-3,7,7,0,0,1,.09-1.12H317.3v4.45q0,1.86-2.61,1.86a2,2,0,0,1-2.23-2.23,27.43,27.43,0,0,1,.19-3,7.14,7.14,0,0,0,.09-1.12h-17c-4.39.06-7.33.19-8.81.37Zm.09,73.48a39.28,39.28,0,0,0,10.76,1.2h63.83l4.46-5.28c2.35,1.79,4.57,3.55,6.68,5.28.49.31.74.65.74,1,0,1-.47,1.49-1.39,1.49H295.85c-4.39.06-7.32.18-8.81.37Zm1.49-32.66A41.62,41.62,0,0,0,297.34,49h60.49l4.08-4.45,6.31,4.55a1.5,1.5,0,0,1,.74,1.11c0,.93-.37,1.39-1.11,1.39H297.34c-4.39.06-7.36.19-8.91.37Zm3.71-30a45.14,45.14,0,0,0,10.76,1h53.81l4.08-4.36c2.23,1.48,4.3,3,6.22,4.54.55.25.83.56.83.93,0,1-.37,1.48-1.11,1.48H301.05c-4.39.13-7.36.28-8.91.47Zm8.9,34.41,5.57,4.09h47.13l3-4.09a19.92,19.92,0,0,1,4.92,4,1.89,1.89,0,0,1,.64,1.3q0,.84-3.33,2.88v2.6c0,4.63.06,7.67.18,9.09.12,1.79.19,3.21.19,4.27a2.58,2.58,0,0,1-.93,2.13,6.54,6.54,0,0,1-2,.46q-1.86,0-1.86-1v-1.2H304V78.3q0,1.11-1.86,1.11a5.91,5.91,0,0,1-2-.46,2.75,2.75,0,0,1-.93-2.13c0-1.06.1-2.48.28-4.27a54.1,54.1,0,0,0,.47-9.09V58.63A23.68,23.68,0,0,0,299.19,52.32ZM301.05,22l5.57,4.08H350L353,22a16.41,16.41,0,0,1,4.83,3.89,2.07,2.07,0,0,1,.74,1.21q0,.93-3.34,3.06v.65a88.75,88.75,0,0,0,.28,9.09c.06,1.8.09,3.22.09,4.27a2.55,2.55,0,0,1-.93,2.13,6.5,6.5,0,0,1-2,.47c-1.24,0-1.85-.34-1.85-1V44.53H305.87v1.58c0,.68-.62,1-1.85,1a6.22,6.22,0,0,1-2-.47,2.55,2.55,0,0,1-.93-2.13c0-1.05.06-2.47.19-4.27a45.76,45.76,0,0,0,.55-9.09v-3A23,23,0,0,0,301.05,22Zm2.88,52.23h21.52V67.54H303.93Zm.09-9.28h21.43V59H304ZM305.78,42h20V36.37h-20Zm.09-8.17h19.95V28.57H305.87ZM330,59v5.94h22.54V59Zm0,15.22h22.63V67.54H330Zm.37-45.65v5.29h20.31V28.57Zm0,13.46h20.41V36.37H330.37Z"/></g></g></svg>