<svg xmlns="http://www.w3.org/2000/svg" viewBox="0 0 466.56 87.58"><defs><style>.cls-1{fill:#231815;}</style></defs><title>資產 84</title><g id="圖層_2" data-name="圖層 2"><g id="購物車_我要跟團_手機版_1101_刪運費_OK置圖"><path class="cls-1" d="M10.48.74l5.57,4.08H68L71,.74a20.13,20.13,0,0,1,4.83,4,1.76,1.76,0,0,1,.74,1.21q0,.93-3.25,3v13q0,7,.19,9.1.09,2.6.09,4.26a2.65,2.65,0,0,1-1,2.14,5,5,0,0,1-2,.55c-1.24,0-1.85-.4-1.85-1.2V34.88H44.25v11.6H66.52L71,41.19q3.52,2.7,6.68,5.29c.5.31.74.65.74,1A1.31,1.31,0,0,1,76.91,49H44.25V60.49H73.94l4.82-5.57q3.72,2.88,7,5.48a1.56,1.56,0,0,1,.84,1.29,1.24,1.24,0,0,1-1.39,1.4H10.76q-6.58.09-8.81.37L0,59.38a42.31,42.31,0,0,0,10.76,1.11h29V49H21.52c-4.33.07-7.3.19-8.9.38l-1.86-4.09a38.84,38.84,0,0,0,10.76,1.21H39.71V34.88H15.29V39c0,.75-.61,1.12-1.84,1.12a5.86,5.86,0,0,1-2-.47,2.55,2.55,0,0,1-.93-2.13c0-1,.1-2.47.28-4.27a54.1,54.1,0,0,0,.47-9.09v-17A24.08,24.08,0,0,0,10.48.74Zm2.23,67.54,1.21.37A71.66,71.66,0,0,1,12,76.54a20.67,20.67,0,0,1-2.32,4.64,9.41,9.41,0,0,1-2.51,3,12.74,12.74,0,0,1-2.59,1.57,4.59,4.59,0,0,1-1.86.47c-1.24,0-1.85-.65-1.85-2a2.71,2.71,0,0,1,.37-1.39,25.94,25.94,0,0,1,3.24-2.6,19.86,19.86,0,0,0,4.27-3.9A15.92,15.92,0,0,0,11,72.83,16.18,16.18,0,0,0,12.71,68.28Zm2.6-36h24.4V7.42H15.31ZM23.1,11.88a28.69,28.69,0,0,1,5.75,5.28,17.24,17.24,0,0,1,2.88,4.36,7.41,7.41,0,0,1,.65,3c0,2-.74,3-2.23,3a1.58,1.58,0,0,1-1-.37A6.75,6.75,0,0,1,28.3,25a38.6,38.6,0,0,0-2.42-6.22A34.64,34.64,0,0,0,22,13.36Zm8.16,56.4A27.21,27.21,0,0,1,33,72.55a20.76,20.76,0,0,1,1.3,4.64,34,34,0,0,1,.27,4.08,8.82,8.82,0,0,1-.46,3,3.51,3.51,0,0,1-1.39,1.58,2.44,2.44,0,0,1-1.11.37q-1.86,0-1.86-2a7.72,7.72,0,0,1,.37-1.95,19,19,0,0,0,.19-4.73,44.44,44.44,0,0,0-.93-8.91Zm13-60.86V32.29h24.5V7.42Zm6.31,60.12a31.91,31.91,0,0,1,4.92,6.68A20.38,20.38,0,0,1,58.08,79a10.33,10.33,0,0,1,.65,3.34,5,5,0,0,1-.65,2.41c-.69.93-1.33,1.4-1.95,1.4a2.8,2.8,0,0,1-1.49-.47,3.48,3.48,0,0,1-.74-2.22,43.42,43.42,0,0,0-1.48-8.26,43.25,43.25,0,0,0-2.88-7Zm6.68-56.41q7.42,3.34,7.42,4.83c0,.68-1.48,1.05-4.45,1.11a40.87,40.87,0,0,1-4,5.47A49.64,49.64,0,0,1,51.3,28.2l-1.11-.74a66.34,66.34,0,0,0,3.43-6.31,34.67,34.67,0,0,0,2.23-5Q56.69,13.55,57.24,11.13Zm14.1,57.15a58.69,58.69,0,0,1,5.2,4.36,32.51,32.51,0,0,1,4.17,4A11.4,11.4,0,0,1,83,80.06a7.29,7.29,0,0,1,.56,2.69,4.78,4.78,0,0,1-.47,2.32,2.1,2.1,0,0,1-1.76,1.12,1.62,1.62,0,0,1-1.3-.56,4,4,0,0,1-1-2.41,18.3,18.3,0,0,0-2-4.73A38,38,0,0,0,74.31,74a32.43,32.43,0,0,0-4.08-4.64Z"/><path class="cls-1" d="M95,30.52a45.89,45.89,0,0,0,10.76,1h3.34V7.79a71.61,71.61,0,0,0-.28-7.42,36.15,36.15,0,0,1,8.82,2c.8.37,1.2.81,1.2,1.3s-.4,1-1.2,1.21a11.83,11.83,0,0,1-4,1v25.6h5.19l3.71-3.71q2.88,2,5.29,4c.43.25.65.53.65.84,0,1.05-.37,1.57-1.11,1.57H113.65v7.43q2.13,1.58,3.89,3.15a40,40,0,0,1,3.34,3.34,10,10,0,0,1,1.77,2.23,12.09,12.09,0,0,1,.74,1.57,4.36,4.36,0,0,1,.28,1.49c-.07,1.73-.68,2.6-1.86,2.6a.87.87,0,0,1-.74-.38,10.43,10.43,0,0,1-1.86-3.24,27.45,27.45,0,0,0-3.15-5.11,30.16,30.16,0,0,0-2.41-3.06V78.39a14.14,14.14,0,0,0,.18,2.79,24,24,0,0,1,.19,2.69c0,2-1,3-3,3-1.45,0-2.18-.47-2.18-1.4,0-1.36,0-3.06.1-5.1.12-2.22.18-4.14.18-5.75V46.39a74.89,74.89,0,0,1-3.25,8.07c-1.23,2.78-2.63,5.56-4.17,8.35S98,68.28,95.74,71.25l-1.11-1.39a79.44,79.44,0,0,0,4.92-9.65,65.18,65.18,0,0,0,3.71-9.56,67.39,67.39,0,0,0,2.59-9.27q.93-3.81,1.49-7.15h-1.58q-6.58.1-8.81.37ZM97,7.79a49.56,49.56,0,0,1,4.27,7,22.64,22.64,0,0,1,2,5.1,11.39,11.39,0,0,1,.65,3.53,5,5,0,0,1-.56,2.23c-.55.8-1.11,1.2-1.67,1.2a2.76,2.76,0,0,1-1.48-.46,3.43,3.43,0,0,1-.74-2.23,57.56,57.56,0,0,0-1.21-8.53,53.69,53.69,0,0,0-2.5-7Zm24.4,0a34.29,34.29,0,0,1,6.49,3.62.89.89,0,0,1,.56.84c0,.37-.31.68-.93.92a12.13,12.13,0,0,1-2.78.56c-.5,1.36-1,2.66-1.48,3.9a31.58,31.58,0,0,1-1.77,3.8c-.62,1.11-1.33,2.29-2.13,3.53s-1.55,2.19-2.41,3.24l-1.12-1.11a51.77,51.77,0,0,0,2.14-5q.83-2.5,1.58-5.1t1.29-4.92C121.13,10.52,121.32,9.09,121.44,7.79ZM151,.37a33.64,33.64,0,0,1,8.81,2c.86.37,1.3.81,1.3,1.3s-.44,1-1.3,1.21a10.85,10.85,0,0,1-3.9,1v5.94h14.1l4.09-4.46q3.33,2.33,6.3,4.64.75.38.75.93c0,1-.34,1.58-1,1.58H134v21h18.56V27.09h-3.71a58.18,58.18,0,0,0-8.91.37l-1.48-3.71a54.65,54.65,0,0,0,10.39.74h3.71V23.38a56.08,56.08,0,0,0-.37-7.42,27.74,27.74,0,0,1,7.51,1.95c.75.43,1.12.89,1.12,1.39a1.25,1.25,0,0,1-.93,1.2,6,6,0,0,1-2.78,1v3h11.87l2.6-3q4.82,3,4.82,4.09c0,.68-.86,1.54-2.6,2.59v6.68l2.6-2.59q2.59,1.93,5,3.71a.83.83,0,0,1,.56.74c0,1-.37,1.58-1.11,1.58h-7.06V50.84c0,1.18-1,1.92-3,2.23-1,0-1.51-.25-1.51-.75v-3H157v6.3c0,1.24-.86,1.86-2.59,1.86a2,2,0,0,1-2.23-2.23q0-1.11.18-3a24.15,24.15,0,0,0,.19-3h-5.2q-7.41,0-8.9.46l-1.49-3.71a64.25,64.25,0,0,0,10.39.65h5.2V38.32H134q0,7.6-.46,13.35a92.72,92.72,0,0,1-1.21,10.4,39.78,39.78,0,0,1-2,6.4,25,25,0,0,1-2.87,6.21,24,24,0,0,1-3.9,5.66,25.78,25.78,0,0,1-4.73,5.1l-1.48-1.57a34.15,34.15,0,0,0,4-5.2,30,30,0,0,0,2.88-5.1,52,52,0,0,0,2.32-6,45.81,45.81,0,0,0,1.76-7.79,84.68,84.68,0,0,0,1-9.56q.28-7.14.28-13.82Q130,17.44,128.4,8.16l6.31,3.72h16.7V7.79A56.19,56.19,0,0,0,151,.37ZM139.16,57.15l5.58,3h24.93l2.6-3q4.83,3,4.83,4.08c0,.68-.86,1.55-2.59,2.6v20c0,1.17-1,1.95-3,2.32-1,0-1.52-.25-1.52-.75V80.9H143.71V85c0,.62-.38,1.08-1.14,1.39a7.06,7.06,0,0,1-2.27.47q-1.14,0-1.14-1Zm4.55,21.24H170V62.71H143.71Zm13.36-51.3v8.53h12.15V27.09Zm0,11.23v8.44h12.15V38.32Z"/><path class="cls-1" d="M190,7.42a42.25,42.25,0,0,0,10.76,1.12h16.7V6.77A43.53,43.53,0,0,0,217.09,0q4.44.75,7.33,1.48a1.39,1.39,0,0,1,.93,1.21c0,.31-.25.56-.75.74a11.27,11.27,0,0,1-2.59,1V8.54h21.8V6.77A44.84,44.84,0,0,0,243.44,0q4.44.75,7.23,1.48c.68.31,1,.72,1,1.21,0,.31-.27.56-.83.74a9.57,9.57,0,0,1-2.51,1V8.54h17.07l4.46-5.2c2.35,1.73,4.57,3.46,6.68,5.2a1.33,1.33,0,0,1,.74,1.11,1.31,1.31,0,0,1-1.48,1.48H248.63c.06.87.1,1.61.1,2.23a2.63,2.63,0,0,1-3,3c-1.49,0-2.23-.47-2.23-1.39s.06-1.92.18-3.16a2.79,2.79,0,0,0,.1-.65H222.11a15.32,15.32,0,0,1,.19,2.23c0,2-1,3-3,3-1.49,0-2.23-.47-2.23-1.39a30.83,30.83,0,0,1,.19-3.16,2.17,2.17,0,0,1,.09-.65H200.76c-4.39.06-7.33.19-8.81.37Zm10.48,53.81a49.7,49.7,0,0,0,10.39.84h39.71L253.92,59a12.57,12.57,0,0,1,4.55,3.44,2.2,2.2,0,0,1,.65,1.39c0,.68-.5,1.2-1.49,1.58-1.17.31-2.16.55-3,.74a62.36,62.36,0,0,1-12.24,8.44,145.29,145.29,0,0,0,16.14,3.06,145.5,145.5,0,0,0,17.63,1v1.86a5.59,5.59,0,0,0-4.83,3.71A163.29,163.29,0,0,1,252.44,81a120.64,120.64,0,0,1-14.57-4.27,102.3,102.3,0,0,1-18.46,5.94,189.24,189.24,0,0,1-28.2,3.8l-1.12-2.22q17.63-1.39,27.28-3.9a92.18,92.18,0,0,0,16.23-5.29,73.07,73.07,0,0,1-8.07-4,63,63,0,0,1-9.65-6.49h-5a56.89,56.89,0,0,0-8.9.37ZM195.2,40.08l5.57,3h65l2.6-3q4.83,3,4.83,4.08c0,.62-.87,1.48-2.6,2.6V57.15c0,1.17-1,1.92-3,2.23-1,0-1.52-.25-1.52-.75V56H199.74v1.48c0,.62-.38,1.08-1.14,1.39a7.73,7.73,0,0,1-2.27.47c-.76,0-1.13-.34-1.13-1Zm4.54,13.36H218.2v-7.8H199.74ZM206,15.21l5.57,3.07h44.24l2.6-3.07q4.92,3,4.92,4.09c0,.68-.9,1.54-2.69,2.59V37.48c0,1.18-1,1.92-3,2.23-1,0-1.48-.25-1.48-.75v-1H210.5v.75c0,.55-.38,1-1.13,1.3a7.12,7.12,0,0,1-2.28.46A1,1,0,0,1,206,39.34Zm4.54,11.6h45.55v-6H210.5Zm0,8.44h45.55V29.32H210.5Zm8.35,29.32a48.31,48.31,0,0,0,9.09,4.82,87.12,87.12,0,0,0,9.56,3.72,71.92,71.92,0,0,0,12.34-8.54Zm3.9-11.13H242v-7.8h-19.2Zm23.75,0h19.57v-7.8H246.5Z"/><path class="cls-1" d="M288.71,17.07a39.23,39.23,0,0,0,10.76,1.21h5.2V8.16A56.19,56.19,0,0,0,304.3.74a37.26,37.26,0,0,1,8.9,2c.81.31,1.21.75,1.21,1.3s-.4,1-1.21,1.21a13,13,0,0,1-4,1.11V18.28H314l4.08-4.09c2,1.43,3.86,2.85,5.66,4.27.43.25.65.53.65.84,0,1-.37,1.48-1.11,1.48H309.21v13h6.31l4.08-4.08c2,1.48,3.93,2.94,5.66,4.36.44.25.65.52.65.83,0,1-.37,1.49-1.11,1.49H309.21v16h3.34l4.09-4.08c2,1.49,3.83,2.91,5.56,4.27.5.25.74.56.74.93,0,1-.37,1.48-1.11,1.48H309.21V74.78a37.76,37.76,0,0,0,6.87,2.59A75.22,75.22,0,0,0,327.3,79a149.88,149.88,0,0,0,16.61.75q7.24,0,14.47-.65,7.42-.75,13.92-2v2.22c-2.91.56-4.64,2-5.2,4.46q-9.27.36-18,.37-15.58,0-22.73-1A52.34,52.34,0,0,1,314,80.81a37.4,37.4,0,0,1-8.52-4.09,32.43,32.43,0,0,1-7.63-7.14,33.63,33.63,0,0,1-3.24-4.45c-.44,2.1-.9,4-1.4,5.75a49.32,49.32,0,0,1-3,8.26,32.51,32.51,0,0,1-4.46,7l-1.48-2.32a41,41,0,0,0,3.52-7.7,76.15,76.15,0,0,0,2.14-8.07,109.25,109.25,0,0,0,1.67-11.23q.46-5.29.46-10.11V43.05a64,64,0,0,1,7.52,1.76,1.24,1.24,0,0,1,1,1.3c0,.43-.5.9-1.49,1.39a16.56,16.56,0,0,1-2.6,1.11,105.49,105.49,0,0,1-1,11.41,4.88,4.88,0,0,1-.09.93,46.36,46.36,0,0,0,5.47,8,24.24,24.24,0,0,0,3.81,3.25V36.37h-7.42q-6.6.09-8.91.37l-1.86-4.08a41.7,41.7,0,0,0,10.77,1.11h7.42v-13h-5.2c-4.39.06-7.36.19-8.9.37Zm75.8-2.5c2.22,1.48,4.33,3,6.31,4.54.49.25.74.56.74.93,0,1-.37,1.48-1.12,1.48H346.79c.18,3,.4,5.82.65,8.35a118.37,118.37,0,0,0,1.94,14,34.9,34.9,0,0,0,2.23,7.61l.74-1.3a95.51,95.51,0,0,0,5.29-11.87,64.82,64.82,0,0,0,3.53-10.86A49.85,49.85,0,0,1,368,31.17c.62.44.93.81.93,1.12s-.5.68-1.48.92a15.13,15.13,0,0,1-3.72.56,121.51,121.51,0,0,1-6.95,15.4,54.48,54.48,0,0,1-3.53,5.94,35.49,35.49,0,0,0,3.34,5,34.33,34.33,0,0,0,4.92,5.56,3.7,3.7,0,0,0,2.22,1.12,1.71,1.71,0,0,0,1-.47q.65-1.11,4.54-13.26l1.49,1.2q-2.61,9.46-2.6,12.53a3.28,3.28,0,0,0,1.48,2.87,3.69,3.69,0,0,1,1.12,2.69c0,1.3-.87,2-2.6,2a3.8,3.8,0,0,1-2-.56,15.83,15.83,0,0,1-5.11-3.24,30.28,30.28,0,0,1-7.14-6.87q-1.86-2.51-3.25-4.82a9.52,9.52,0,0,0-.74.83,59.62,59.62,0,0,1-8.44,9.19A37.55,37.55,0,0,1,332.22,75l-.74-1.39a77,77,0,0,0,8.72-6.49A53,53,0,0,0,346,60.21a44,44,0,0,0,3.07-4.45,2.1,2.1,0,0,1-.28-.56,61.1,61.1,0,0,1-3.53-10.58,96.14,96.14,0,0,1-2.13-14.84c-.25-3-.46-5.78-.65-8.26H330.74V59c.93-.37,1.85-.77,2.78-1.2q4.26-1.95,9.83-5.1l.38,1.94a60.18,60.18,0,0,1-7.61,5.48,69.17,69.17,0,0,1-6.87,4.08,42.61,42.61,0,0,1-6.31,3c-.68,2.22-1.17,3.34-1.48,3.34-.5,0-2-2.48-4.45-7.42a44.89,44.89,0,0,0,8.62-2.32,9.58,9.58,0,0,0,1-.28V21.15a22.55,22.55,0,0,0-.75-6.21L331.48,19h10.95c-.13-1.86-.19-3.46-.19-4.83Q342.15,4.08,341.5.74q7.42,2,7.42,3c0,.56-.83,1.18-2.5,1.86q0,7.23.18,13.45h13.82ZM353,3.06a35.49,35.49,0,0,1,7.15,3.06,13.69,13.69,0,0,1,3.52,2.51,2.54,2.54,0,0,1,.84,1.85c0,1.92-.75,2.88-2.23,2.88a2.66,2.66,0,0,1-1.21-.28,3,3,0,0,1-1.11-1.3,13.72,13.72,0,0,0-3.25-3.89,18.67,18.67,0,0,0-4.82-3.44Z"/><path class="cls-1" d="M396.79,16.33q9,1.86,9,3.34c0,.86-1.76,1.36-5.29,1.48a33,33,0,0,1-1.76,3.71h53l4.46-5.19c2.35,1.79,4.57,3.52,6.68,5.19a1.39,1.39,0,0,1,.74,1.21c0,.93-.5,1.39-1.49,1.39H397.26q-1.31,2.23-2.6,4.08a39.67,39.67,0,0,1-6.59,7.7,43.53,43.53,0,0,1-7.61,6l-1.11-1.85a69.72,69.72,0,0,0,6.22-5.75,35.12,35.12,0,0,0,4.73-6.31,51.71,51.71,0,0,0,4.08-7.42A55.15,55.15,0,0,0,396.79,16.33ZM380,8.91A42.31,42.31,0,0,0,390.76,10h16.7V7.14a44.68,44.68,0,0,0-.37-6.77c3,.5,5.4,1,7.33,1.49q.93.55.93,1.2c0,.31-.25.56-.75.74a11.27,11.27,0,0,1-2.59,1V10h22.54V7.14a44.68,44.68,0,0,0-.37-6.77c3,.5,5.4,1,7.33,1.49q.93.55.93,1.2c0,.31-.25.56-.75.74a11.27,11.27,0,0,1-2.59,1V10h15.58l4.46-5.2c2.35,1.8,4.57,3.53,6.68,5.2a1.5,1.5,0,0,1,.74,1.11c0,1-.47,1.49-1.39,1.49h-26a4.56,4.56,0,0,0,.09,1,24,24,0,0,1,.19,2.69,2.63,2.63,0,0,1-3,3c-1.49,0-2.23-.5-2.23-1.49a30.23,30.23,0,0,1,.19-3.06q.09-1.2.18-2.13h-22.7a6.23,6.23,0,0,0,.18,1.76,24,24,0,0,1,.19,2.69c0,2-1,3-3,3-1.49,0-2.23-.46-2.23-1.39a30.83,30.83,0,0,1,.19-3.16,27.3,27.3,0,0,0,.18-2.87h-16.7q-6.58.09-8.81.37Zm17.91,23,5.56,3.34h42.68l3.34-3.34a36.21,36.21,0,0,1,4.73,3.16c.56.55.83,1,.83,1.3q0,.93-3.34,3.34-.27,7.42-.65,13.36h3.62l4.46-5.2c2.35,1.8,4.57,3.53,6.68,5.2a1.39,1.39,0,0,1,.74,1.2,1.23,1.23,0,0,1-1.39,1.39H450.88q-.37,5.76-.93,10.12-.37,4.26-.93,7.33h4.92l4.45-5.2c2.35,1.79,4.55,3.53,6.59,5.2a1.52,1.52,0,0,1,.84,1.2c0,.93-.5,1.39-1.49,1.39H448.56a21.75,21.75,0,0,1-.84,3.34,10,10,0,0,1-2.5,4.64,6.6,6.6,0,0,1-3.06,2,20.76,20.76,0,0,1-6.4,1.86,6.49,6.49,0,0,0-1.3-2.69,6.07,6.07,0,0,0-3.06-1.39,56.33,56.33,0,0,0-7.89-1.4l.37-2.31q9.38,1.93,11.88,1.94a7.27,7.27,0,0,0,3.15-.65,6,6,0,0,0,2.6-1.85,13.59,13.59,0,0,0,1.95-3.53H395.77a12.63,12.63,0,0,1-.83,3c-.19,1-1.18,1.49-3,1.49-1.49,0-2.23-.25-2.23-.75a2.29,2.29,0,0,1,.47-1.39c.18-.55.64-2,1.39-4.45q1.75-6.41,3.24-14.94c.13-1,.25-2,.37-3h-4.36c-4.39.07-7.32.19-8.81.38l-2-4.09a41.8,41.8,0,0,0,10.76,1.12h4.74q.65-4.37,1.29-9.1Q397.72,37.11,397.91,31.91Zm46.29,41.2a106.51,106.51,0,0,0,1.76-11c.25-2.17.43-4.33.56-6.5H399.85c-.12.93-.24,1.83-.37,2.69-.8,4.71-1.85,9.62-3.15,14.76Zm-44-20H446.7q.57-7.6.56-15.13H402Q401.06,46.85,400.22,53.07ZM412.75,59c2.78.56,5.6,1.27,8.44,2.14s4.89,1.79,6.31,2.41a14.47,14.47,0,0,1,2.88,1.67,15.42,15.42,0,0,1,1.39,1.58,2.53,2.53,0,0,1,.28,1.11c0,1.3-.5,2-1.49,2a2.23,2.23,0,0,1-1.2-.56,12.42,12.42,0,0,1-1.77-1.11c-1.17-.8-2.26-1.49-3.24-2a33.27,33.27,0,0,0-4.64-2.23q-3-1.39-8.07-3.43Zm1.48-18.55a53,53,0,0,1,7.52,2,51.93,51.93,0,0,1,5.56,2.13,10.46,10.46,0,0,1,2.51,1.58A13.72,13.72,0,0,1,431,47.59a2,2,0,0,1,.27,1c0,1.3-.49,2-1.48,2a2,2,0,0,1-1.11-.46A5.14,5.14,0,0,1,427.22,49c-1.05-.74-2-1.36-2.87-1.85q-1.68-.93-4.09-2-2.6-1.31-7.14-3.06Z"/></g></g></svg>