<svg xmlns="http://www.w3.org/2000/svg" viewBox="0 0 178.13 88.38"><defs><style>.cls-1{fill:#231815;}</style></defs><title>資產 77</title><g id="圖層_2" data-name="圖層 2"><g id="購物車_我要跟團_手機版_1101_刪運費_OK置圖"><path class="cls-1" d="M38.77,60.25q0,15.73-18.65,18.46v9.67H17.29V78.71A31.25,31.25,0,0,1,0,73.54V60.06H1.76q2,8.68,5.08,12.21,3.4,3.8,10.35,3.8V44.82q-8.12-5.37-11.43-9a18.87,18.87,0,0,1-5-12.79A15.65,15.65,0,0,1,4.39,12.5q4.31-5,12.9-5.76V0h2.83V6.74Q31.54,8.4,35.64,12.21V23.54h-2Q32.33,15.34,28.32,12q-2.84-2.34-8.2-2.93V36.43Q31,43.56,34.08,47,38.78,52.15,38.77,60.25ZM17.19,35.74V8.89Q6.74,11,6.74,20.8a13,13,0,0,0,2.54,7.81A45.44,45.44,0,0,0,17.19,35.74Zm15.23,27A14.26,14.26,0,0,0,29,53.12a49.74,49.74,0,0,0-8.88-7V76.27q5.46-1.27,7.61-2.83Q32.42,70.22,32.42,62.7Z"/><path class="cls-1" d="M78.61,78.91H52.93V77q5.18-.2,7.13-1.56Q63,73.33,63,67.58V19.14q0-5.57-4-5.57a21,21,0,0,0-7,1.76V13.77L68.46,5.86V69.43q0,4.2,2.34,6C72.36,76.43,75,77,78.61,77Z"/><path class="cls-1" d="M129.49,62.79a17.4,17.4,0,0,1-3.61,10.75q-5,6.63-15,6.64-8.2,0-13.28-5.38A16,16,0,0,1,93,63.28q0-6.84,2.93-11.23,2.43-3.61,9.67-9.57-7.14-6.54-9.38-10.16a18.94,18.94,0,0,1-2.73-10.54A14.89,14.89,0,0,1,99.32,9.57a18,18,0,0,1,11.81-4.2c5,0,9.08,1.5,12.21,4.49a14.2,14.2,0,0,1,4.2,10.45A17.57,17.57,0,0,1,123.24,32a36.89,36.89,0,0,1-8.88,7q9.57,7.23,12.79,13A22.28,22.28,0,0,1,129.49,62.79Zm-6.54-43a11.41,11.41,0,0,0-3.13-8.3,13.35,13.35,0,0,0-9.37-3.22,13.33,13.33,0,0,0-9.08,3.13,9.78,9.78,0,0,0-3.52,7.42,17,17,0,0,0,5.47,12.3A44.46,44.46,0,0,0,112,37.6a37.49,37.49,0,0,0,7.23-6.45A18.22,18.22,0,0,0,123,19.82Zm2,45.61a18.39,18.39,0,0,0-5-12.6q-3-3.22-11.42-8.88-2.25,1.95-4.3,3.8a18.2,18.2,0,0,0-4.3,5.47,19,19,0,0,0-2.05,8.89q0,6.84,4,11A13.21,13.21,0,0,0,112,77.34a14.16,14.16,0,0,0,8.79-2.73A11.13,11.13,0,0,0,124.9,65.43Z"/><path class="cls-1" d="M178.12,42.77q0,13.57-4,23.64-5.67,13.77-17.19,13.77T139.75,66.41a64.18,64.18,0,0,1-4-23.64,64.32,64.32,0,0,1,4-23.53q5.66-13.87,17.18-13.87t17.19,13.87Q178.13,29.29,178.12,42.77Zm-6.44,0A75.49,75.49,0,0,0,169,22.36Q165,7.92,156.93,7.91t-12,14.45a73.54,73.54,0,0,0-2.83,20.41,74,74,0,0,0,2.83,20.9q3.9,14,12,14t12-14.07A75.56,75.56,0,0,0,171.68,42.77Z"/></g></g></svg>