<svg xmlns="http://www.w3.org/2000/svg" viewBox="0 0 239.45 74.8"><defs><style>.cls-1{fill:#666464;}</style></defs><title>資產 78</title><g id="圖層_2" data-name="圖層 2"><g id="購物車_我要跟團_手機版_1101_刪運費_OK置圖"><path class="cls-1" d="M62.79,37.79q0,13.68-7.22,23.25Q46,73.54,26.76,73.54H0v-2c3.84-.32,6.41-1.11,7.71-2.34s2-3.87,2-7.72V13.77c0-4-.69-6.71-2-8Q6,4.2,0,3.61V1.66H25.39q17.47,0,27.15,9.08Q62.8,20.11,62.79,37.79Zm-7.71.1q0-16.22-9-25.39Q39,5,20.9,5c-2.35,0-3.84.49-4.49,1.47a7.32,7.32,0,0,0-.59,3.61V65c0,2.21.52,3.68,1.56,4.39.78.52,2.38.78,4.79.78Q55.08,70.21,55.08,37.89Z"/><path class="cls-1" d="M109.47,37.4q0,13.58-4,23.64Q99.8,74.79,88.28,74.8T71.09,61q-4-10.17-4-23.64a64.33,64.33,0,0,1,4-23.53Q76.76,0,88.28,0t17.19,13.87Q109.48,23.92,109.47,37.4Zm-6.44,0A75.49,75.49,0,0,0,100.29,17q-3.9-14.44-12-14.45T76.27,17A73.54,73.54,0,0,0,73.44,37.4a74,74,0,0,0,2.83,20.9q3.9,14,12,14t12-14.07A75.56,75.56,0,0,0,103,37.4Z"/><path class="cls-1" d="M155.37,37.4q0,13.58-4,23.64Q145.7,74.79,134.18,74.8T117,61q-4-10.17-4-23.64a64.33,64.33,0,0,1,4-23.53Q122.66,0,134.18,0t17.19,13.87Q155.38,23.92,155.37,37.4Zm-6.44,0A75.49,75.49,0,0,0,146.19,17q-3.9-14.44-12-14.45T122.17,17a73.54,73.54,0,0,0-2.83,20.41,74,74,0,0,0,2.83,20.9q3.9,14,12,14t12-14.07A75.56,75.56,0,0,0,148.93,37.4Z"/><path class="cls-1" d="M201.27,37.4q0,13.58-4,23.64Q191.6,74.79,180.08,74.8T162.89,61q-4-10.17-4-23.64a64.33,64.33,0,0,1,4-23.53Q168.56,0,180.08,0t17.19,13.87Q201.26,23.92,201.27,37.4Zm-6.45,0A75.49,75.49,0,0,0,192.09,17q-3.9-14.44-12-14.45T168.07,17a73.55,73.55,0,0,0-2.84,20.41,74,74,0,0,0,2.84,20.9q3.9,14,12,14t12-14.07A75.56,75.56,0,0,0,194.82,37.4Z"/><path class="cls-1" d="M239.45,73.54H213.77v-2q5.17-.19,7.13-1.56,2.92-2.05,2.93-7.81V13.77q0-5.56-4-5.57a21,21,0,0,0-7,1.76V8.4L229.3.49V64.06q0,4.2,2.34,6c1.56,1,4.17,1.56,7.81,1.56Z"/></g></g></svg>