<svg xmlns="http://www.w3.org/2000/svg" viewBox="0 0 192.29 91.41"><defs><style>.cls-1{fill:#231815;}</style></defs><title>資產 70</title><g id="圖層_2" data-name="圖層 2"><g id="購物車_我要跟團_手機版_1101_刪運費_OK置圖"><path class="cls-1" d="M7,5.08,12.89,8.2H24.61V7.81A57.8,57.8,0,0,0,24.22,0q4.47.78,7.23,1.56c.71.33,1.07.75,1.07,1.27,0,.33-.23.59-.68.78a11.57,11.57,0,0,1-2.45,1.08V8.2h12.5l2.74-3.12c3.38,2.08,5.08,3.51,5.08,4.3s-.92,1.56-2.74,2.73v6.25h.78l3.52-3.42c1.89,1.3,3.61,2.54,5.18,3.71.45.33.68.65.68,1,0,1-.39,1.46-1.17,1.46H47v9.38c0,1.24-1.06,2-3.19,2.34-1.06,0-1.59-.22-1.59-.68V30.47H29.39v7.42H42.68l2.73-3.12c3.38,2.08,5.08,3.51,5.08,4.29s-.91,1.63-2.74,2.74V53.52c0,1.23-1.06,2-3.19,2.34q-1.59,0-1.59-.78V53.22H11.82V54.3c0,.58-.4,1-1.2,1.36a7,7,0,0,1-2.39.59A1,1,0,0,1,7,55.08V34.77l5.86,3.12H24.61V30.47H11.82v.39c0,.65-.4,1.14-1.2,1.46a8.05,8.05,0,0,1-2.39.49c-.8,0-1.2-.35-1.2-1.07V21.19c-2.28.07-4,.16-5.08.29L0,17.19a37.86,37.86,0,0,0,7,1.07ZM24.32,53.91A37.91,37.91,0,0,1,31,55.57a1.38,1.38,0,0,1,.78,1.17c0,.39-.46.72-1.37,1a20.72,20.72,0,0,1-3.71.88q-1.36,2.35-2.54,4.3H44.63l4.3-4.3c2.08,1.57,4.06,3.06,6,4.5.46.32.69.65.69,1,0,1.11-.39,1.66-1.18,1.66H41.7a27.7,27.7,0,0,1-2.15,7,22.46,22.46,0,0,1-3.61,6.06c.78.26,1.53.52,2.24.78a43.19,43.19,0,0,1,5.77,2,5.91,5.91,0,0,1,1.85,1.07,2.32,2.32,0,0,1,1,1,1.41,1.41,0,0,1,.58,1.08q0,2.73-2,2.73a4.4,4.4,0,0,1-1-.29q-1.36-.88-4-2.25a72.8,72.8,0,0,0-6.84-2.83,6.52,6.52,0,0,1-.68-.29A25.56,25.56,0,0,1,28.12,85a37.52,37.52,0,0,1-10,4.1A88.24,88.24,0,0,1,4.39,91.41l-1.17-2a94.51,94.51,0,0,0,12.4-2.34,41.24,41.24,0,0,0,7.82-3,23.85,23.85,0,0,0,5.27-3.71q-2.54-.78-5.27-1.66a86.27,86.27,0,0,0-8.79-2.34c-.65.84-1.34,1.69-2.05,2.54a3.58,3.58,0,0,1-2.74,1.56,4.2,4.2,0,0,1-2.44-.68,1.71,1.71,0,0,1-.68-1.27c0-.2.13-.36.39-.49q2-2.06,4.3-4.59,2.63-3.14,5.86-7.72H11.43c-4.63.07-7.75.17-9.38.3L.1,61.72a44.46,44.46,0,0,0,11.33,1.17h7.81A66.85,66.85,0,0,0,24.32,53.91ZM11.82,18.36H24.61V11H11.82Zm0,9.47H24.61V21.09H11.82Zm0,22.56H24.61V40.72H11.82Zm24.8,15.33H22.27c-.79,1.17-1.53,2.35-2.25,3.52C18.85,70.8,17.68,72.4,16.5,74q6,1.17,10.84,2.44c1.44.4,2.77.75,4,1.08a21.61,21.61,0,0,0,2.83-4.3A26.68,26.68,0,0,0,36.62,65.72ZM29.39,11v7.32h12.8V11Zm0,10.05v6.74h12.8V21.09Zm0,19.63v9.67H43V40.72ZM66.11,1.17Q71,2.93,74.51,4.59a2,2,0,0,1,.59,1.27c0,.65-.65,1.07-2,1.27A19.71,19.71,0,0,1,70,7.52q-2.25,8.69-5,16.89a6.89,6.89,0,0,0-.49,1H79.79l4.68-5.08Q88,23,91.11,25.49a1.33,1.33,0,0,1,.78,1.07c0,1.11-.39,1.66-1.17,1.66H85.94a147,147,0,0,1-2.64,16.6,50.49,50.49,0,0,1-4.78,14.46,68,68,0,0,1-3.81,8c.19.39.39.74.58,1.07a31.63,31.63,0,0,0,6.94,9.18,79.86,79.86,0,0,0,10.45,8.89l-.39,1.07c-2.8,0-4.63.81-5.47,2.44a60.94,60.94,0,0,1-8.3-8.3q-3.22-4.78-6.16-10.06a1,1,0,0,0-.19-.29,3.57,3.57,0,0,1-.49.88,50.24,50.24,0,0,1-9.57,10.15,68.41,68.41,0,0,1-14.36,9.09l-1.56-2A70.1,70.1,0,0,0,60.25,78.91,54.39,54.39,0,0,0,69,68.26a14.13,14.13,0,0,0,1.17-1.76,78.07,78.07,0,0,1-2.83-7.61,97.89,97.89,0,0,1-3.52-13.48A102.56,102.56,0,0,1,62,32.23q-1.36,3.12-2.73,6.05a119.42,119.42,0,0,1-7.62,12.5L50.1,49.61a124.66,124.66,0,0,0,6.44-12.79q2.15-5.37,4.3-11.82,1.95-6.45,3.32-12.11A89.67,89.67,0,0,0,66.11,1.17ZM64.26,28.22q.78,9.09,2.15,16.6a69.63,69.63,0,0,0,3.8,13.09,50.22,50.22,0,0,0,2,4.88,49.73,49.73,0,0,0,2.54-5.27,81.57,81.57,0,0,0,4.1-13.77q1.17-6.34,2-15.53Z"/><path class="cls-1" d="M118.36,39.45l5.87,3.13h45.39l2.74-3.13q5.17,3.13,5.18,4.3c0,.72-.95,1.63-2.83,2.73V66.41c0,1.23-1.07,2-3.19,2.34-1.07,0-1.6-.26-1.6-.78V65.72H148.54v8.89h23.82l4.3-4.59c2.34,1.56,4.56,3.16,6.64,4.78.52.27.78.59.78,1,0,1.11-.39,1.66-1.17,1.66H148.54v8.11h31.25l4.68-5.47q3.72,2.83,7,5.47a1.59,1.59,0,0,1,.79,1.17,1.39,1.39,0,0,1-1.57,1.56h-79c-4.62.07-7.72.2-9.28.39l-2-4.29a44.46,44.46,0,0,0,11.33,1.17h32V77.44H118c-4.56.07-7.68.2-9.38.39l-2-4.29A48.63,48.63,0,0,0,118,74.61h25.78V65.72H123.14v1.86c0,.58-.39,1-1.19,1.37a6.33,6.33,0,0,1-2.39.68c-.8,0-1.2-.42-1.2-1.27Zm-17.48-7.32a48.09,48.09,0,0,0,11.33,1.07h67.18l4.69-5.37q3.72,2.64,7,5.37a1.4,1.4,0,0,1,.78,1.18c0,1.1-.52,1.66-1.56,1.66H112.21c-4.63.06-7.75.19-9.38.39ZM117.58,2l5.87,3.13h44.61L170.8,2c3.38,2.09,5.08,3.52,5.08,4.3S175,7.88,173.14,9V26.56c0,1.24-1.06,2-3.19,2.35q-1.59,0-1.59-.69V26.56h-46v1.27c0,.59-.4,1-1.19,1.37a7.35,7.35,0,0,1-2.4.49,1,1,0,0,1-1.19-1.17Zm4.78,12.5h46V7.81h-46Zm0,9.48h46V17.19h-46Zm.78,28.51h20.61V45.31H123.14Zm0,10.45h20.61V55.08H123.14Zm25.4-17.58v7.13h21.38V45.31Zm0,9.77v7.81h21.38V55.08Z"/></g></g></svg>