<svg xmlns="http://www.w3.org/2000/svg" viewBox="0 0 1875 175"><defs><style>.cls-1{fill:#d2cce6;}.cls-2{fill:#231815;}</style></defs><title>資產 95</title><g id="圖層_2" data-name="圖層 2"><g id="購物車_我要跟團_手機版_1101_刪運費_OK置圖"><rect class="cls-1" width="1875" height="175"/><path class="cls-2" d="M761.54,106.87a67.63,67.63,0,0,1,7.52,4.08,1.28,1.28,0,0,1,.65,1.08c0,.42-.36.78-1.08,1.07a20,20,0,0,1-3.22.75c-.86,1.65-1.76,3.29-2.69,4.94-1.14,1.72-2.29,3.33-3.43,4.84a50.88,50.88,0,0,1-4,4.4q-2,2.15-4.51,4.3l-1.29-1.4a73.06,73.06,0,0,0,4.62-6.34c1.22-2.07,2.36-4.15,3.44-6.23s2-4.29,2.68-6.23A40.5,40.5,0,0,0,761.54,106.87Zm-7.73-72.62L760.25,39h15.9l3.44-4.73a25.83,25.83,0,0,1,5.69,4.62,2.18,2.18,0,0,1,.76,1.5q0,1-3.87,3.33V87.53q0,8.06.21,10.53c.15,2.08.22,3.72.22,4.94a3,3,0,0,1-1.08,2.47,6.79,6.79,0,0,1-2.36.54c-1.43,0-2.15-.39-2.15-1.18v-3.12H759.39v3.87c0,.86-.71,1.29-2.14,1.29a6.79,6.79,0,0,1-2.37-.54,3.06,3.06,0,0,1-1.07-2.36c0-1.29.11-3,.32-5a62.83,62.83,0,0,0,.54-10.53V41.56A27.77,27.77,0,0,0,753.81,34.25Zm5.58,23.2H776.9V42H759.39Zm0,19.45H776.9V60.46H759.39Zm0,21.8H776.9V79.8H759.39Zm14.61,9a33.06,33.06,0,0,1,7.31,6.44,22.54,22.54,0,0,1,3.54,5,9.59,9.59,0,0,1,.76,3.65q0,3.33-2.58,3.33a1.61,1.61,0,0,1-1.18-.53,6.21,6.21,0,0,1-1.08-2.47,50.86,50.86,0,0,0-3.22-7.42,28.54,28.54,0,0,0-4.84-6.23Zm11.93-64.45a45.31,45.31,0,0,0,12.46,1.39h6V42a63,63,0,0,0-.43-8.6,61.7,61.7,0,0,1,7.95,1.83c.79.36,1.19.75,1.19,1.18a1.06,1.06,0,0,1-.76,1,13,13,0,0,1-2.68,1.18v6.12h13.21V42a63,63,0,0,0-.43-8.6,68,68,0,0,1,8.06,1.83c.71.36,1.07.75,1.07,1.18a1,1,0,0,1-.75,1,13.09,13.09,0,0,1-2.69,1.18v6.12h9.46l4.29-4.3c2.22,1.51,4.26,3,6.13,4.52.57.28.86.61.86,1,0,1.15-.47,1.72-1.4,1.72H828.14v9h7l4.19-4.3c2.14,1.57,4.19,3.11,6.12,4.62.5.28.75.61.75,1,0,1.15-.43,1.72-1.29,1.72H828.14v9h11.18L844,63.9c2.29,1.65,4.48,3.29,6.56,4.94q.75.54.75,1.08,0,1.71-1.29,1.71H819.55v8.6h14.18l3.44-4.73a23.11,23.11,0,0,1,5.58,4.62,2,2,0,0,1,.86,1.5q0,1-4.29,3.33V106H841l3.86-3.87q3,2.27,5.8,4.3a1,1,0,0,1,.65.86c0,1.22-.43,1.82-1.29,1.82H839.32v12.79a9.46,9.46,0,0,1-1.4,5.58,7.73,7.73,0,0,1-3.44,2.69,6,6,0,0,1-3.33,1.29l-.21-2a3.12,3.12,0,0,0-.75-1.51,7,7,0,0,0-3.44-2.47,23.74,23.74,0,0,0-6.34-1.39v-2.58a30.83,30.83,0,0,0,9.88,1.82q2.58,0,3.33-.75c.65-.43,1-1.5,1-3.22V109.12h-34.8v21.81c0,.93-.72,1.4-2.15,1.4a5.89,5.89,0,0,1-2.37-.65,3.19,3.19,0,0,1-1.07-2.47c0-1.22.11-2.86.32-4.94a61.79,61.79,0,0,0,.54-10.42v-4.73a77.23,77.23,0,0,0-7.74.43l-2.14-4.72a49.06,49.06,0,0,0,9.88,1.18V82.81a27.77,27.77,0,0,0-.86-7.31l6.41,4.73h13.68v-8.6H798q-7.51.23-10.31.54l-2.15-4.72A53.52,53.52,0,0,0,798,68.63h6.44v-9h-4.29q-7.64.12-10.32.43l-2.14-4.72a48.79,48.79,0,0,0,12.46,1.29h4.29v-9h-6c-5,.07-8.45.22-10.31.43Zm13.86,49.84h14.5V83.24h-14.5Zm0,12.89h14.5V96.13h-14.5ZM822.88,56.6v-9H809.67v9Zm-13.21,12h13.21v-9H809.67Zm9.88,24.49h15V83.24h-15Zm0,12.89h15V96.13h-15Z"/><path class="cls-2" d="M894,40.37A89,89,0,0,1,903.23,44a2.22,2.22,0,0,1,.65,1.39c0,.72-.72,1.15-2.15,1.29a19.69,19.69,0,0,1-3.44.43Q897.21,52.3,896,57h10V41.13a64.71,64.71,0,0,0-.43-8.6,44.5,44.5,0,0,1,10.2,2.26c1,.5,1.5,1,1.5,1.61s-.5,1.11-1.5,1.4A12.31,12.31,0,0,1,911.29,39V57h2.58l4.72-5.16q3.87,2.79,7.2,5.26a1.53,1.53,0,0,1,1,1.29c0,1.08-.43,1.61-1.29,1.61H911.29V85.6q6-2.68,13.75-7.09l.43,2.15a88.94,88.94,0,0,1-11.39,7.62c-.93.51-1.86,1-2.79,1.62v33.4a16.22,16.22,0,0,0,.21,3.23,27.93,27.93,0,0,1,.22,3.11q0,3.44-3.5,3.44c-1.75,0-2.62-.54-2.62-1.61q0-2.37.21-5.91c.14-2.58.22-4.8.22-6.66V92.69l-2.15,1.07a55.59,55.59,0,0,1-9.46,4.09c-.79,2.57-1.36,3.86-1.72,3.86q-.86,0-5.15-8.59a66.27,66.27,0,0,0,12.24-3.22c1.94-.58,4-1.29,6.24-2.15V60H895.18c-.94,2.94-1.83,5.59-2.69,8q-1.72,4.08-4.08,8.49l-1.72-1.4q1.71-4.93,3-9.24,1-3.86,1.82-8.48c.65-3.08,1.18-6,1.61-8.7Q893.67,45,894,40.37Zm45.66-7q4.94,1.83,8.38,3.44a1.85,1.85,0,0,1,.64,1.29c0,.64-.61,1.07-1.82,1.29A12,12,0,0,1,944,40a134.64,134.64,0,0,1-6.13,13.75h38.35L980,49.83a25.87,25.87,0,0,1,5.37,3.54c.71.65,1.07,1.15,1.07,1.51,0,.71-1.28,2-3.86,4q-.87,25.35-2.37,40-1.39,14.84-2.9,20.63c-1.07,3.43-2.18,5.8-3.33,7.09a8.42,8.42,0,0,1-4.4,3.22c-1.65,1.22-4.48,2.18-8.49,2.9a7.94,7.94,0,0,0-1.39-3.44,4.83,4.83,0,0,0-3-1.82q-1.83-1-8.06-2l.43-2.48q9.55,2.91,12,2.91a10.81,10.81,0,0,0,4.41-.86,7.51,7.51,0,0,0,3.65-2.9,27.91,27.91,0,0,0,3.44-7q1.39-4.94,2.9-20,1.94-19.33,1.93-38.45h-8.59q-3.23,13.42-6,22a144,144,0,0,1-7.2,15.68,76.76,76.76,0,0,1-7.19,10.85,80.74,80.74,0,0,1-7.74,8.7q-4.94,4.29-13.1,10.21l-1.72-1.61a104.37,104.37,0,0,0,11-9A116.39,116.39,0,0,0,944.8,104a99.21,99.21,0,0,0,6.77-10.64A106.14,106.14,0,0,0,958,78.08a137.43,137.43,0,0,0,5.37-21.48H952.54a67.94,67.94,0,0,1-3,9.34,100.74,100.74,0,0,1-4.4,9.56,79,79,0,0,1-6.45,10.1q-3.33,4.29-7,8.38a97.74,97.74,0,0,1-10.1,8.16l-1.29-2a59.43,59.43,0,0,0,9.46-8.91,62.43,62.43,0,0,0,7.62-10.64,76.52,76.52,0,0,0,6.34-12.89A83.9,83.9,0,0,0,947,56.6H936.21a81.32,81.32,0,0,1-5.91,9.23,101.06,101.06,0,0,1-9.56,10.64l-1.72-1a118,118,0,0,0,8.38-11.17q2.69-4.62,5.37-10.21t4.52-10.52A89.33,89.33,0,0,0,939.65,33.39Z"/><path class="cls-2" d="M1026.55,47.14A48.85,48.85,0,0,0,1039,48.43h32.23V41.56a63,63,0,0,0-.43-8.6A38.78,38.78,0,0,1,1081,35.33q1.5.64,1.5,1.5c0,.64-.5,1.11-1.5,1.4a12.36,12.36,0,0,1-4.52,1.18v9h30.08l5.59-6.44q4.29,3.33,8,6.33a1.83,1.83,0,0,1,1,1.51c0,1.07-.57,1.61-1.72,1.61h-43V63.15h24.07l3-3.55c3.73,2.3,5.59,3.87,5.59,4.73s-1,1.83-3,3.12V99.67c0,1.29-1.17,2.11-3.51,2.47-1.17,0-1.75-.28-1.75-.86V97.85H1076.5v13.32h34l5.59-6.34q4.29,3.12,8,6.23a1.75,1.75,0,0,1,1,1.39,1.52,1.52,0,0,1-1.72,1.72H1076.5v9.89a16,16,0,0,0,.22,3.33,27.71,27.71,0,0,1,.21,3.11c0,2.29-1.16,3.44-3.5,3.44-1.75,0-2.62-.54-2.62-1.61,0-1.58.07-3.58.22-6s.21-4.62.21-6.55v-5.59h-35.66q-7.53.12-10.32.43l-2.14-4.72a48.79,48.79,0,0,0,12.46,1.29h35.66V97.85h-24.38v3a1.88,1.88,0,0,1-1.21,1.61,10,10,0,0,1-2.74.54,1.15,1.15,0,0,1-1.32-1.29V59.6l6.45,3.55h23.2V51.44H1039q-7.52.11-10.31.43Zm20.31,32.23h24.38V66.05h-24.38Zm0,15.58h24.38V82.38h-24.38Zm29.64-28.9V79.37h24.39V66.05Zm0,16.33V95h24.39V82.38Z"/></g></g></svg>