<svg xmlns="http://www.w3.org/2000/svg" viewBox="0 0 372.3 88.69"><defs><style>.cls-1{fill:#231815;}</style></defs><title>資產 86</title><g id="圖層_2" data-name="圖層 2"><g id="購物車_我要跟團_手機版_1101_刪運費_OK置圖"><path class="cls-1" d="M10.48,1.48l5.57,4.09H68l3-4.09a20.36,20.36,0,0,1,4.83,4,1.78,1.78,0,0,1,.74,1.21q0,.93-3.25,3v13q0,7,.19,9.09c.06,1.73.09,3.15.09,4.27a2.64,2.64,0,0,1-1,2.13,5.07,5.07,0,0,1-2,.56c-1.24,0-1.85-.41-1.85-1.21V35.62H44.25v11.6H66.52L71,41.93q3.52,2.7,6.68,5.29c.5.31.74.65.74,1a1.31,1.31,0,0,1-1.48,1.49H44.25v11.5H73.94l4.82-5.57q3.72,2.88,7,5.48a1.57,1.57,0,0,1,.84,1.3,1.23,1.23,0,0,1-1.39,1.39H10.76q-6.58.09-8.81.37L0,60.12a42.31,42.31,0,0,0,10.76,1.11h29V49.73H21.52q-6.49.09-8.9.37L10.76,46a39.28,39.28,0,0,0,10.76,1.2H39.71V35.62H15.29v4.09c0,.74-.61,1.11-1.84,1.11a5.82,5.82,0,0,1-2-.46,2.59,2.59,0,0,1-.93-2.14c0-1,.1-2.47.28-4.27a54.1,54.1,0,0,0,.47-9.09v-17A24.1,24.1,0,0,0,10.48,1.48ZM12.71,69l1.21.37A71.07,71.07,0,0,1,12,77.28a20.46,20.46,0,0,1-2.32,4.64,9.3,9.3,0,0,1-2.51,3,12.74,12.74,0,0,1-2.59,1.57,4.59,4.59,0,0,1-1.86.47c-1.24,0-1.85-.65-1.85-2a2.71,2.71,0,0,1,.37-1.39A25.94,25.94,0,0,1,4.45,81a19.86,19.86,0,0,0,4.27-3.9A15.69,15.69,0,0,0,11,73.57,16.18,16.18,0,0,0,12.71,69Zm2.6-36h24.4V8.16H15.31ZM23.1,12.62a28.42,28.42,0,0,1,5.75,5.29,16.9,16.9,0,0,1,2.88,4.36,7.4,7.4,0,0,1,.65,3c0,2-.74,3-2.23,3a1.58,1.58,0,0,1-1-.37,6.75,6.75,0,0,1-.83-2.13,38.6,38.6,0,0,0-2.42-6.22A35.12,35.12,0,0,0,22,14.1ZM31.26,69A27.62,27.62,0,0,1,33,73.29a20.76,20.76,0,0,1,1.3,4.64A34,34,0,0,1,34.6,82a8.82,8.82,0,0,1-.46,3,3.46,3.46,0,0,1-1.39,1.58,2.44,2.44,0,0,1-1.11.37q-1.86,0-1.86-2a7.8,7.8,0,0,1,.37-2,19,19,0,0,0,.19-4.73,44.44,44.44,0,0,0-.93-8.91Zm13-60.86V33h24.5V8.16Zm6.31,60.12A32.17,32.17,0,0,1,55.48,75a20.26,20.26,0,0,1,2.6,4.83,10.27,10.27,0,0,1,.65,3.33,5.11,5.11,0,0,1-.65,2.42c-.69.92-1.33,1.39-1.95,1.39a2.8,2.8,0,0,1-1.49-.47,3.46,3.46,0,0,1-.74-2.22A43.42,43.42,0,0,0,52.42,76a43.63,43.63,0,0,0-2.88-7Zm6.68-56.4q7.42,3.33,7.42,4.82c0,.68-1.48,1.05-4.45,1.11a41.56,41.56,0,0,1-4,5.48A51.42,51.42,0,0,1,51.3,29l-1.11-.75a66.34,66.34,0,0,0,3.43-6.31,34.67,34.67,0,0,0,2.23-5Q56.69,14.29,57.24,11.88ZM71.34,69a58.69,58.69,0,0,1,5.2,4.36,33.93,33.93,0,0,1,4.17,4A11.43,11.43,0,0,1,83,80.81a7.21,7.21,0,0,1,.56,2.69,4.84,4.84,0,0,1-.47,2.32,2.11,2.11,0,0,1-1.76,1.11,1.62,1.62,0,0,1-1.3-.56A4,4,0,0,1,79,84a18.3,18.3,0,0,0-2-4.73,37.84,37.84,0,0,0-2.78-4.45,31.9,31.9,0,0,0-4.08-4.64Z"/><path class="cls-1" d="M95,31.26a45.29,45.29,0,0,0,10.76,1h3.34V8.54a71.69,71.69,0,0,0-.28-7.43,37.1,37.1,0,0,1,8.82,2c.8.38,1.2.81,1.2,1.3s-.4,1-1.2,1.21a11.38,11.38,0,0,1-4,1V32.29h5.19l3.71-3.72c1.92,1.37,3.68,2.69,5.29,4,.43.25.65.53.65.84,0,1.05-.37,1.58-1.11,1.58H113.65V42.4q2.13,1.58,3.89,3.15a40,40,0,0,1,3.34,3.34,10.19,10.19,0,0,1,1.77,2.23,11.6,11.6,0,0,1,.74,1.58,4.31,4.31,0,0,1,.28,1.48c-.07,1.73-.68,2.6-1.86,2.6a.89.89,0,0,1-.74-.37,10.54,10.54,0,0,1-1.86-3.25,27,27,0,0,0-3.15-5.1A28.1,28.1,0,0,0,113.65,45V79.14a14,14,0,0,0,.18,2.78,24,24,0,0,1,.19,2.69c0,2-1,3-3,3-1.45,0-2.18-.47-2.18-1.39,0-1.36,0-3.07.1-5.11.12-2.22.18-4.14.18-5.75V47.13a74.07,74.07,0,0,1-3.25,8.07c-1.23,2.78-2.63,5.57-4.17,8.35S98,69,95.74,72L94.63,70.6A78.71,78.71,0,0,0,99.55,61a65,65,0,0,0,3.71-9.55,67.94,67.94,0,0,0,2.59-9.28q.93-3.81,1.49-7.14h-1.58q-6.58.09-8.81.37ZM97,8.54a48.91,48.91,0,0,1,4.27,7,22.54,22.54,0,0,1,2,5.11,11.28,11.28,0,0,1,.65,3.52,5,5,0,0,1-.56,2.23c-.55.8-1.11,1.2-1.67,1.2a2.76,2.76,0,0,1-1.48-.46,3.43,3.43,0,0,1-.74-2.23,57.56,57.56,0,0,0-1.21-8.53,53.69,53.69,0,0,0-2.5-7Zm24.4,0a34.3,34.3,0,0,1,6.49,3.61.89.89,0,0,1,.56.84q0,.55-.93.93a12.08,12.08,0,0,1-2.78.55c-.5,1.36-1,2.66-1.48,3.9a31.58,31.58,0,0,1-1.77,3.8c-.62,1.12-1.33,2.29-2.13,3.53S117.85,27.89,117,29l-1.12-1.12a51.77,51.77,0,0,0,2.14-5q.83-2.51,1.58-5.1t1.29-4.92C121.13,11.26,121.32,9.83,121.44,8.54ZM151,1.11a34.46,34.46,0,0,1,8.81,2c.86.38,1.3.81,1.3,1.3s-.44,1-1.3,1.21a10.46,10.46,0,0,1-3.9,1v5.94h14.1l4.09-4.46q3.33,2.33,6.3,4.64.75.38.75.93c0,1-.34,1.58-1,1.58H134V36.37h18.56V27.83h-3.71a59.63,59.63,0,0,0-8.91.37l-1.48-3.71a54.65,54.65,0,0,0,10.39.74h3.71V24.12a56.08,56.08,0,0,0-.37-7.42,27.74,27.74,0,0,1,7.51,1.95c.75.43,1.12.89,1.12,1.39a1.26,1.26,0,0,1-.93,1.21,6.22,6.22,0,0,1-2.78,1v3h11.87l2.6-3q4.82,3,4.82,4.08c0,.68-.86,1.54-2.6,2.6v6.67l2.6-2.59c1.73,1.3,3.4,2.53,5,3.71a.83.83,0,0,1,.56.74c0,1.05-.37,1.58-1.11,1.58h-7.06V51.58c0,1.18-1,1.92-3,2.23-1,0-1.51-.25-1.51-.74v-3H157v6.31c0,1.23-.86,1.85-2.59,1.85A2,2,0,0,1,152.15,56q0-1.12.18-3a24.18,24.18,0,0,0,.19-3h-5.2q-7.41,0-8.9.46l-1.49-3.71a64.25,64.25,0,0,0,10.39.65h5.2V39.06H134q0,7.61-.46,13.36a92.52,92.52,0,0,1-1.21,10.39,39.78,39.78,0,0,1-2,6.4,25,25,0,0,1-2.87,6.21,24,24,0,0,1-3.9,5.66,26.11,26.11,0,0,1-4.73,5.11l-1.48-1.58a33.66,33.66,0,0,0,4-5.2,30,30,0,0,0,2.88-5.1,52,52,0,0,0,2.32-6,45.59,45.59,0,0,0,1.76-7.79,84.68,84.68,0,0,0,1-9.56q.28-7.14.28-13.82.47-18.93-1.11-28.2l6.31,3.71h16.7V8.54A56.26,56.26,0,0,0,151,1.11ZM139.16,57.89l5.58,3h24.93l2.6-3q4.83,3,4.83,4.08c0,.68-.86,1.55-2.59,2.6v20c0,1.17-1,2-3,2.32-1,0-1.52-.25-1.52-.74V81.64H143.71v4.08c0,.62-.38,1.08-1.14,1.39a7.06,7.06,0,0,1-2.27.47q-1.14,0-1.14-1Zm4.55,21.25H170V63.46H143.71Zm13.36-51.31v8.54h12.15V27.83Zm0,11.23V47.5h12.15V39.06Z"/><path class="cls-1" d="M196.4,55a53.4,53.4,0,0,1,7.24,2.88,1.92,1.92,0,0,1,.55,1.21c0,.55-.52.92-1.57,1.11a16.31,16.31,0,0,1-2.51.28c-.8,3.09-1.64,6-2.5,8.81a59.51,59.51,0,0,1-3,7.24,56.24,56.24,0,0,1-3.8,6.58l-1.49-.64c1.11-2.6,2.07-5,2.88-7.33q.92-3.06,1.85-6.68c.56-2.48,1-4.8,1.49-7A56.72,56.72,0,0,0,196.4,55Zm19.67-40.54q7.43,3.26,7.42,4.92c0,.62-1.48,1-4.45,1a116.9,116.9,0,0,1-8.94,12.43q-4,5.47-8.78,10.76c1.05-.06,2.19-.09,3.43-.09q8.16-.18,18-1c-.25-.56-.46-1-.65-1.39A27.44,27.44,0,0,0,217.92,35l.75-1.21A30.34,30.34,0,0,1,225,40.08a27.32,27.32,0,0,1,3.06,5.1,10,10,0,0,1,.65,3.43c0,1.8-.62,2.69-1.86,2.69a1.32,1.32,0,0,1-1-.55,7.74,7.74,0,0,1-1-2.42,35.93,35.93,0,0,0-1-3.52q-5.76.93-12.15,1.86V79.14a14,14,0,0,0,.18,2.78,26.73,26.73,0,0,1,.19,2.69q0,3-3,3c-1.51,0-2.26-.47-2.26-1.39,0-1.36.06-3.07.18-5.11.13-2.22.19-4.14.19-5.75V47.13q-5.48.65-11.5,1.11c-1.18,2.48-1.92,3.71-2.23,3.71s-.68-.24-.93-.74A47.23,47.23,0,0,1,190,43.79c1.86,0,4.88-.06,9.09-.19a106.35,106.35,0,0,0,7.52-10.11,73.52,73.52,0,0,0,5.93-9.65A59.49,59.49,0,0,0,216.07,14.47Zm-11.5-13Q212,4.82,212,6.31c0,.68-1.49,1.08-4.46,1.2a57,57,0,0,1-4.63,7.06A47.84,47.84,0,0,1,198,21.25q2,1.84,3.25,3.06a13.94,13.94,0,0,1,2.13,2.59,6.75,6.75,0,0,1,.93,1.86,4.87,4.87,0,0,1,.28,1.67c-.07,1.73-.69,2.6-1.86,2.6a1.64,1.64,0,0,1-1-.37A23.58,23.58,0,0,1,199.56,29a30.3,30.3,0,0,0-3.81-5.76,53.27,53.27,0,0,0-5.66-6.12L191.21,16a36.88,36.88,0,0,1,5.56,4.36q2-3.62,3.44-6.5a48.64,48.64,0,0,0,2.69-6.21A42.64,42.64,0,0,0,204.57,1.48Zm14.1,52.7a46.71,46.71,0,0,1,3.62,5.1,22.3,22.3,0,0,1,2.87,4.55,15.28,15.28,0,0,1,1.58,4A10.48,10.48,0,0,1,227.2,71a5.68,5.68,0,0,1-.46,2.51,2.11,2.11,0,0,1-1.76,1.2c-.38,0-.69-.25-.93-.74a7.09,7.09,0,0,1-.74-2.6,41,41,0,0,0-1.3-5.66q-.93-2.69-1.95-5.1a43.7,43.7,0,0,0-2.88-5.19Zm5.47-43.42a42.25,42.25,0,0,0,10.76,1.12h29.41l4.08-4.37q3.35,2.24,6.22,4.55c.56.25.83.56.83.93,0,1-.37,1.48-1.11,1.48H249.84V79.14h15.21l4.46-5.29c2.35,1.79,4.57,3.55,6.68,5.29a1.27,1.27,0,0,1,.74,1,1.32,1.32,0,0,1-1.49,1.48H230.82c-4.33.06-7.3.19-8.91.37l-1.85-4.08a39.23,39.23,0,0,0,10.76,1.21h14.47V14.47H234.9a75.27,75.27,0,0,0-8.9.47Z"/><path class="cls-1" d="M284.63,46a39.28,39.28,0,0,0,10.76,1.2h30.8v-.83a52.31,52.31,0,0,0-.37-7.33A26.17,26.17,0,0,1,333.43,41q1.11.47,1.11,1.29a1.19,1.19,0,0,1-1,1.21,6,6,0,0,1-2.78,1v2.69h29.68l4.46-5.29c2.35,1.8,4.57,3.56,6.68,5.29.49.31.74.65.74,1a1.32,1.32,0,0,1-1.48,1.49H330.74v7.05h24.12l2.23-3c3.46,2.16,5.19,3.65,5.19,4.45s-.87,1.43-2.6,1.86v5.93a4.51,4.51,0,0,1-.94,2.88A7.16,7.16,0,0,1,356,71.25a11.21,11.21,0,0,1-3.82,1.48,8.35,8.35,0,0,0-.65-3.43,2.3,2.3,0,0,0-1.39-1.11,17.19,17.19,0,0,0-4.64-1.67v-2a14.63,14.63,0,0,0,6.68,2,2.9,2.9,0,0,0,2.41-.84,2.36,2.36,0,0,0,.56-1.85V59.38H332.77a48.43,48.43,0,0,0,7,6.12,87.05,87.05,0,0,0,9.89,6.12,85.65,85.65,0,0,0,11.12,4.83,69.88,69.88,0,0,0,10.29,2.69v1.39q-4.72,0-6.3,2.59A62.64,62.64,0,0,1,354.86,79a49,49,0,0,1-8.5-5.47,64,64,0,0,1-8-5.94,79.6,79.6,0,0,1-7.58-7.7v27c0,1.17-.89,1.76-2.65,1.76-1.51,0-2.27-.71-2.27-2.13A28,28,0,0,1,326,83.5c.12-1.3.18-2.42.18-3.34V62.07a15.58,15.58,0,0,1-1.94,2.41q-2.49,2.77-5.82,5.84A72.45,72.45,0,0,1,310,76.17q-4.53,2.68-9.34,5.1-5.21,2.22-13.36,4.92l-1.11-2.32a105.1,105.1,0,0,0,13.08-5,78.63,78.63,0,0,0,10.36-6.13,48.21,48.21,0,0,0,8.6-7.51,33.33,33.33,0,0,0,4.15-5.84H303.65V71c0,.56-.38,1-1.14,1.3a7.72,7.72,0,0,1-2.27.46,1,1,0,0,1-1.14-1.11V53.81l5.57,3h21.52V49.73h-30.8q-6.58.09-8.91.37Zm1.48-38.13a45.23,45.23,0,0,0,10.77,1h29.31V7.51A54.11,54.11,0,0,0,325.82,0a30.66,30.66,0,0,1,7.61,2,1.67,1.67,0,0,1,1.11,1.48c0,.5-.34.87-1,1.12a6.17,6.17,0,0,1-2.78,1V8.91h28.2l4.45-4.83q3.35,2.51,6.22,4.92c.56.31.83.65.83,1,0,1.05-.37,1.58-1.11,1.58H330.74v6.58h22.63l2.23-2.87c3.46,2.1,5.2,3.59,5.2,4.45,0,.68-.84,1.27-2.51,1.76v3.71a3.9,3.9,0,0,1-1.11,2.88,7.38,7.38,0,0,1-2.69,2.23,14,14,0,0,1-3.81,1.57c.93.38,1.7.72,2.32,1a23.77,23.77,0,0,1,4.64,3.16A14.67,14.67,0,0,1,360,38.78a4.49,4.49,0,0,1,.46,2,1.31,1.31,0,0,1-1.48,1.48,4.51,4.51,0,0,1-1.95-.74,20.94,20.94,0,0,1-2.87-2q-2.88-2.13-5.29-3.61a76.63,76.63,0,0,0-7.52-3.81,104.3,104.3,0,0,0-10.57-4.73V36c0,1.23-.89,1.85-2.65,1.85a2,2,0,0,1-2.27-2.23,27.43,27.43,0,0,1,.19-3c.12-1.24.18-2.35.18-3.34V23.75l-1.11,1.3A52.05,52.05,0,0,1,319.82,30a60.2,60.2,0,0,1-7.58,5.28q-4.07,2.23-8.41,4.36-4.72,1.86-12.06,4.18l-1.11-2.23a80.77,80.77,0,0,0,11.6-4.36A64.77,64.77,0,0,0,311.59,32a51.81,51.81,0,0,0,7.67-6.4,35.22,35.22,0,0,0,3.61-4.83H304V31.64a1.44,1.44,0,0,1-1,1.29,8.74,8.74,0,0,1-2.37.47,1,1,0,0,1-1.14-1.11v-17L305,18.18h21.15V11.6H296.88q-6.6.09-8.91.28Zm44.63,17.44a100.18,100.18,0,0,1,12,3.43c3.09,1.11,5.65,2.1,7.7,3a10.15,10.15,0,0,0-.65-3.25,2.86,2.86,0,0,0-1.4-1.11,14.19,14.19,0,0,0-4.63-1.76V23.75a15.59,15.59,0,0,0,6.68,1.86c1.35,0,2.22-.22,2.59-.65a2.18,2.18,0,0,0,.75-1.86V20.78h-23Z"/></g></g></svg>