<svg xmlns="http://www.w3.org/2000/svg" viewBox="0 0 370.82 86.84"><defs><style>.cls-1{fill:#231815;}</style></defs><title>資產 81</title><g id="圖層_2" data-name="圖層 2"><g id="購物車_我要跟團_手機版_1101_刪運費_OK置圖"><path class="cls-1" d="M10.48.74l5.57,4.08H68L71,.74a20.36,20.36,0,0,1,4.83,4,1.78,1.78,0,0,1,.74,1.21q0,.93-3.25,3v13q0,7,.19,9.1.09,2.6.09,4.26a2.65,2.65,0,0,1-1,2.14,5,5,0,0,1-2,.55c-1.24,0-1.85-.4-1.85-1.2V34.88H44.25v11.6H66.52L71,41.19q3.52,2.7,6.68,5.29c.5.31.74.65.74,1A1.31,1.31,0,0,1,76.91,49H44.25V60.49H73.94l4.82-5.57q3.72,2.88,7,5.48a1.56,1.56,0,0,1,.84,1.29,1.24,1.24,0,0,1-1.39,1.4H10.76q-6.58.09-8.81.37L0,59.38a42.31,42.31,0,0,0,10.76,1.11h29V49H21.52c-4.33.07-7.3.19-8.9.38l-1.86-4.09a38.84,38.84,0,0,0,10.76,1.21H39.71V34.88H15.29V39c0,.75-.61,1.12-1.84,1.12a5.86,5.86,0,0,1-2-.47,2.55,2.55,0,0,1-.93-2.13c0-1,.1-2.47.28-4.27a54.1,54.1,0,0,0,.47-9.09v-17A24.08,24.08,0,0,0,10.48.74Zm2.23,67.54,1.21.37A71.66,71.66,0,0,1,12,76.54a20.67,20.67,0,0,1-2.32,4.64,9.41,9.41,0,0,1-2.51,3,12.74,12.74,0,0,1-2.59,1.57,4.59,4.59,0,0,1-1.86.47c-1.24,0-1.85-.65-1.85-2a2.71,2.71,0,0,1,.37-1.39,25.94,25.94,0,0,1,3.24-2.6,19.86,19.86,0,0,0,4.27-3.9A15.92,15.92,0,0,0,11,72.83,16.18,16.18,0,0,0,12.71,68.28Zm2.6-36h24.4V7.42H15.31ZM23.1,11.88a28.69,28.69,0,0,1,5.75,5.28,17.24,17.24,0,0,1,2.88,4.36,7.41,7.41,0,0,1,.65,3c0,2-.74,3-2.23,3a1.58,1.58,0,0,1-1-.37A6.75,6.75,0,0,1,28.3,25a38.6,38.6,0,0,0-2.42-6.22A34.64,34.64,0,0,0,22,13.36Zm8.16,56.4A27.21,27.21,0,0,1,33,72.55a20.76,20.76,0,0,1,1.3,4.64,34,34,0,0,1,.27,4.08,8.82,8.82,0,0,1-.46,3,3.51,3.51,0,0,1-1.39,1.58,2.44,2.44,0,0,1-1.11.37q-1.86,0-1.86-2a7.8,7.8,0,0,1,.37-1.95,19,19,0,0,0,.19-4.73,44.44,44.44,0,0,0-.93-8.91Zm13-60.86V32.29h24.5V7.42Zm6.31,60.12a32.17,32.17,0,0,1,4.92,6.68A20.38,20.38,0,0,1,58.08,79a10.33,10.33,0,0,1,.65,3.34,5,5,0,0,1-.65,2.41c-.69.93-1.33,1.4-1.95,1.4a2.8,2.8,0,0,1-1.49-.47,3.48,3.48,0,0,1-.74-2.22,43.42,43.42,0,0,0-1.48-8.26,43.25,43.25,0,0,0-2.88-7Zm6.68-56.41q7.42,3.34,7.42,4.83c0,.68-1.48,1.05-4.45,1.11a40.87,40.87,0,0,1-4,5.47A49.64,49.64,0,0,1,51.3,28.2l-1.11-.74a66.34,66.34,0,0,0,3.43-6.31,34.67,34.67,0,0,0,2.23-5Q56.69,13.55,57.24,11.13Zm14.1,57.15a58.69,58.69,0,0,1,5.2,4.36,32.51,32.51,0,0,1,4.17,4A11.4,11.4,0,0,1,83,80.06a7.29,7.29,0,0,1,.56,2.69,4.78,4.78,0,0,1-.47,2.32,2.1,2.1,0,0,1-1.76,1.12,1.62,1.62,0,0,1-1.3-.56,4,4,0,0,1-1-2.41,18.3,18.3,0,0,0-2-4.73A38,38,0,0,0,74.31,74a32.43,32.43,0,0,0-4.08-4.64Z"/><path class="cls-1" d="M95,30.52a45.89,45.89,0,0,0,10.76,1h3.34V7.79a71.61,71.61,0,0,0-.28-7.42,36.15,36.15,0,0,1,8.82,2c.8.37,1.2.81,1.2,1.3s-.4,1-1.2,1.21a11.83,11.83,0,0,1-4,1v25.6h5.19l3.71-3.71q2.88,2,5.29,4c.43.25.65.53.65.84,0,1.05-.37,1.57-1.11,1.57H113.65v7.43q2.13,1.58,3.89,3.15a40,40,0,0,1,3.34,3.34,10,10,0,0,1,1.77,2.23,12.09,12.09,0,0,1,.74,1.57,4.36,4.36,0,0,1,.28,1.49c-.07,1.73-.68,2.6-1.86,2.6a.87.87,0,0,1-.74-.38,10.29,10.29,0,0,1-1.86-3.24,27.45,27.45,0,0,0-3.15-5.11,30.16,30.16,0,0,0-2.41-3.06V78.39a14.14,14.14,0,0,0,.18,2.79,24,24,0,0,1,.19,2.69c0,2-1,3-3,3-1.45,0-2.18-.47-2.18-1.4,0-1.36,0-3.06.1-5.1.12-2.22.18-4.14.18-5.75V46.39a74.89,74.89,0,0,1-3.25,8.07c-1.23,2.78-2.63,5.56-4.17,8.35S98,68.28,95.74,71.25l-1.11-1.39a79.44,79.44,0,0,0,4.92-9.65,65.18,65.18,0,0,0,3.71-9.56,67.39,67.39,0,0,0,2.59-9.27q.93-3.81,1.49-7.15h-1.58q-6.58.1-8.81.37ZM97,7.79a49.56,49.56,0,0,1,4.27,7,22.64,22.64,0,0,1,2,5.1,11.39,11.39,0,0,1,.65,3.53,5,5,0,0,1-.56,2.23c-.55.8-1.11,1.2-1.67,1.2a2.76,2.76,0,0,1-1.48-.46,3.43,3.43,0,0,1-.74-2.23,57.56,57.56,0,0,0-1.21-8.53,53.69,53.69,0,0,0-2.5-7Zm24.4,0a34.29,34.29,0,0,1,6.49,3.62.89.89,0,0,1,.56.84c0,.37-.31.68-.93.92a12.13,12.13,0,0,1-2.78.56c-.5,1.36-1,2.66-1.48,3.9a31.58,31.58,0,0,1-1.77,3.8c-.62,1.11-1.33,2.29-2.13,3.53s-1.55,2.19-2.41,3.24l-1.12-1.11a51.77,51.77,0,0,0,2.14-5q.83-2.5,1.58-5.1t1.29-4.92C121.13,10.52,121.32,9.09,121.44,7.79ZM151,.37a33.64,33.64,0,0,1,8.81,2c.86.37,1.3.81,1.3,1.3s-.44,1-1.3,1.21a10.85,10.85,0,0,1-3.9,1v5.94h14.1l4.09-4.46q3.33,2.33,6.3,4.64.75.38.75.93c0,1-.34,1.58-1,1.58H134v21h18.56V27.09h-3.71a58.18,58.18,0,0,0-8.91.37l-1.48-3.71a54.65,54.65,0,0,0,10.39.74h3.71V23.38a56.08,56.08,0,0,0-.37-7.42,27.74,27.74,0,0,1,7.51,1.95c.75.43,1.12.89,1.12,1.39a1.25,1.25,0,0,1-.93,1.2,6,6,0,0,1-2.78,1v3h11.87l2.6-3q4.82,3,4.82,4.09c0,.68-.86,1.54-2.6,2.59v6.68l2.6-2.59q2.59,1.93,5,3.71a.83.83,0,0,1,.56.74c0,1-.37,1.58-1.11,1.58h-7.06V50.84c0,1.18-1,1.92-3,2.23-1,0-1.51-.25-1.51-.75v-3H157v6.3c0,1.24-.86,1.86-2.59,1.86a2,2,0,0,1-2.23-2.23q0-1.11.18-3a24.15,24.15,0,0,0,.19-3h-5.2q-7.41,0-8.9.46l-1.49-3.71a64.25,64.25,0,0,0,10.39.65h5.2V38.32H134q0,7.6-.46,13.35a92.72,92.72,0,0,1-1.21,10.4,39.78,39.78,0,0,1-2,6.4,25,25,0,0,1-2.87,6.21,24,24,0,0,1-3.9,5.66,25.78,25.78,0,0,1-4.73,5.1l-1.48-1.57a34.15,34.15,0,0,0,4-5.2,30,30,0,0,0,2.88-5.1,52,52,0,0,0,2.32-6,45.81,45.81,0,0,0,1.76-7.79,84.68,84.68,0,0,0,1-9.56q.28-7.14.28-13.82Q130,17.44,128.4,8.16l6.31,3.72h16.7V7.79A56.19,56.19,0,0,0,151,.37ZM139.16,57.15l5.58,3h24.93l2.6-3q4.83,3,4.83,4.08c0,.68-.86,1.55-2.59,2.6v20c0,1.17-1,1.95-3,2.32-1,0-1.52-.25-1.52-.75V80.9H143.71V85c0,.62-.38,1.08-1.14,1.39a7.06,7.06,0,0,1-2.27.47q-1.14,0-1.14-1Zm4.55,21.24H170V62.71H143.71Zm13.36-51.3v8.53h12.15V27.09Zm0,11.23v8.44h12.15V38.32Z"/><path class="cls-1" d="M195.29,4.82l5.56,4.09h65.32l3-4.09a20.49,20.49,0,0,1,4.82,4A1.78,1.78,0,0,1,274.7,10q0,.93-3.34,3V65.78c0,4.57.1,7.57.28,9q.09,2.59.09,4.26a2.65,2.65,0,0,1-1,2.14,4.93,4.93,0,0,1-1.95.55c-1.23,0-1.85-.4-1.85-1.2V74.59h-66.8V80.9c0,.8-.62,1.2-1.85,1.2a5.56,5.56,0,0,1-2-.55,2.75,2.75,0,0,1-.93-2.14q0-1.57.18-4.26a44.87,44.87,0,0,0,.56-9v-55A24.13,24.13,0,0,0,195.29,4.82ZM200.11,72h66.71V53.34c-.81.13-1.74.28-2.79.47a43.15,43.15,0,0,1-5.56.46,40,40,0,0,1-8.54-.93c-2.72-.3-4.48-.77-5.29-1.39a3.28,3.28,0,0,1-1.48-1.67,10.75,10.75,0,0,1-.74-2.78q-.1-1.57-.1-5.94V11.5H223.86V22.73a62,62,0,0,1-.94,11.41,38.94,38.94,0,0,1-3.13,9.65,33.85,33.85,0,0,1-5.39,8.72,53.71,53.71,0,0,1-9.93,8.72L203,59.38a48,48,0,0,0,8.35-8,51.81,51.81,0,0,0,4.36-7,39.92,39.92,0,0,0,2.6-8.35,68,68,0,0,0,1-13.36V11.5H200.11ZM246.87,11.5V42a36.4,36.4,0,0,0,.18,4.82,2.6,2.6,0,0,0,1.3,1.58A12.07,12.07,0,0,0,252,49.54a27.69,27.69,0,0,0,6.1.65,19.49,19.49,0,0,0,4.34-.56,4.32,4.32,0,0,0,2.4-.92,1.61,1.61,0,0,1,.83-.47,6,6,0,0,1,1.11.1V11.5Z"/><path class="cls-1" d="M290.94,6.77a79.56,79.56,0,0,1,8,3.16,1.9,1.9,0,0,1,.55,1.2c0,.62-.62,1-1.85,1.12a18,18,0,0,1-3,.37q-.93,4.46-1.95,8.53h8.63V7.42A56.08,56.08,0,0,0,301,0a38.09,38.09,0,0,1,8.81,2c.87.43,1.3.9,1.3,1.39s-.43,1-1.3,1.21a10.85,10.85,0,0,1-3.9,1V21.15h2.23l4.08-4.45c2.23,1.61,4.3,3.12,6.22,4.55a1.31,1.31,0,0,1,.83,1.11c0,.93-.37,1.39-1.11,1.39H305.87V45.83c3.47-1.54,7.43-3.59,11.88-6.12l.37,1.85a77.87,77.87,0,0,1-9.83,6.59c-.81.43-1.61.9-2.42,1.39V78.39a13.18,13.18,0,0,0,.19,2.79,26.73,26.73,0,0,1,.19,2.69q0,3-3,3c-1.51,0-2.26-.47-2.26-1.4q0-2,.18-5.1c.13-2.22.19-4.14.19-5.75V52l-1.86.93a48.1,48.1,0,0,1-8.16,3.53c-.68,2.22-1.18,3.34-1.49,3.34-.49,0-2-2.48-4.45-7.43A56.81,56.81,0,0,0,296,49.54q2.51-.74,5.38-1.85V23.75H292c-.81,2.54-1.58,4.82-2.32,6.87q-1.49,3.52-3.53,7.32l-1.48-1.2c1-2.85,1.85-5.51,2.6-8,.55-2.23,1.08-4.67,1.57-7.33s1-5.16,1.4-7.51Q290.65,10.76,290.94,6.77Zm39.43-6q4.26,1.58,7.23,3a1.61,1.61,0,0,1,.56,1.11c0,.56-.53.93-1.58,1.12a10.28,10.28,0,0,1-2.5.46,115,115,0,0,1-5.29,11.88h33.12l3.34-3.34A22.46,22.46,0,0,1,369.89,18c.61.55.93,1,.93,1.3,0,.62-1.12,1.76-3.34,3.43q-.75,21.9-2.05,34.51-1.2,12.81-2.5,17.81a17.74,17.74,0,0,1-2.88,6.13,7.26,7.26,0,0,1-3.8,2.78c-1.42,1.05-3.87,1.89-7.33,2.5a6.65,6.65,0,0,0-1.21-3,4.14,4.14,0,0,0-2.59-1.58,28.18,28.18,0,0,0-7-1.76l.37-2.14q8.25,2.51,10.39,2.51a9.33,9.33,0,0,0,3.8-.74,6.49,6.49,0,0,0,3.16-2.51,24.18,24.18,0,0,0,3-6Q360,67,361.35,54A331.48,331.48,0,0,0,363,20.78H355.6q-2.78,11.6-5.19,19a124,124,0,0,1-6.22,13.54A66,66,0,0,1,338,62.71a68,68,0,0,1-6.68,7.52Q327,73.94,320,79l-1.49-1.39A87.4,87.4,0,0,0,328,69.86a97.63,97.63,0,0,0,6.87-8.17,85.65,85.65,0,0,0,5.84-9.18,91.37,91.37,0,0,0,5.57-13.17,118,118,0,0,0,4.64-18.56H341.5a58.47,58.47,0,0,1-2.6,8.07,87.35,87.35,0,0,1-3.8,8.26,68.36,68.36,0,0,1-5.57,8.72q-2.88,3.7-6,7.24a86.11,86.11,0,0,1-8.72,7l-1.11-1.77a51.83,51.83,0,0,0,8.16-7.7,53.28,53.28,0,0,0,6.59-9.18,66.63,66.63,0,0,0,5.47-11.13,71.38,71.38,0,0,0,2.78-9.56H327.4a69.7,69.7,0,0,1-5.11,8A86.21,86.21,0,0,1,314,37.94l-1.49-.83a102.2,102.2,0,0,0,7.24-9.65q2.32-4,4.64-8.81t3.9-9.09A75.82,75.82,0,0,0,330.37.74Z"/></g></g></svg>