<svg xmlns="http://www.w3.org/2000/svg" viewBox="0 0 1228.91 92.19"><defs><style>.cls-1{fill:#231815;}</style></defs><title>資產 57</title><g id="圖層_2" data-name="圖層 2"><g id="購物車_我要跟團_手機版_1101_刪運費_OK置圖"><path class="cls-1" d="M43.85,2.25q17.19,0,30.37,13Q87.11,28.52,87.11,46.09q0,17.29-12.89,30.47Q61,89.46,43.85,89.45q-17.58,0-31-12.89Q0,63.37,0,46.09,0,28.53,12.89,15.23,26.27,2.25,43.85,2.25Zm0,84.08q16,0,28.22-11.92,12-12.3,12-28.32,0-16.4-12-28.71Q59.86,5.47,43.85,5.47,27.44,5.47,15,17.38,3.22,29.7,3.22,46.09q0,16,11.82,28.32Q27.45,86.34,43.85,86.33Z"/><path class="cls-1" d="M164,0a49.17,49.17,0,0,1,8.4,3.32,1.35,1.35,0,0,1,.59,1c0,.58-.42,1-1.27,1.36a17.54,17.54,0,0,1-4.2.59A19.42,19.42,0,0,1,166,9.57a27,27,0,0,1-1.66,3.32c-.53.91-1.08,1.79-1.66,2.64a4.41,4.41,0,0,1-.4.49H194l3.13-4.3a18.56,18.56,0,0,1,5.08,4.2,2.12,2.12,0,0,1,.78,1.27c0,.58-1.14,1.63-3.42,3.12v54.3q0,7.32.19,9.57c.07,1.89.1,3.38.1,4.49a2.62,2.62,0,0,1-1.07,2.25,6.24,6.24,0,0,1-2.05.49c-1.31,0-2-.36-2-1.08v-6H139.36V91c0,.78-.66,1.17-2,1.17a6.4,6.4,0,0,1-2.15-.49,2.71,2.71,0,0,1-1-2.25c0-1.1.1-2.6.29-4.49a56.82,56.82,0,0,0,.49-9.57v-57a25.16,25.16,0,0,0-.78-6.64l5.86,4.3h19.24a32.58,32.58,0,0,0,1.36-3.13q.88-2.34,1.66-4.88c.46-1.76.88-3.48,1.27-5.18C163.8,1.92,163.9,1,164,0Zm-24.6,37.11h55.46V18.75H139.36Zm0,21.09h55.46V39.94H139.36Zm0,23.54h55.46V61H139.36Z"/><path class="cls-1" d="M245.21,0a42.45,42.45,0,0,1,8.31,3.32c.45.33.68.65.68,1,0,.58-.46,1-1.37,1.36a15.61,15.61,0,0,1-4.1.59A50,50,0,0,1,244,12q-2.83,2.73-6,5.67a48.75,48.75,0,0,1-6.25,4.59,39.71,39.71,0,0,1-7.62,4.29l-1.56-1.17a46.07,46.07,0,0,0,8.3-5.86,88.31,88.31,0,0,0,7.32-7.42,49.68,49.68,0,0,0,5.57-7.91A14.59,14.59,0,0,0,245.21,0Zm4.69,18.75A50.43,50.43,0,0,1,258.3,22a1.64,1.64,0,0,1,.59,1.08c0,.65-.46,1.11-1.37,1.36a15.61,15.61,0,0,1-4.1.59,58.14,58.14,0,0,1-5.76,7.91c-2.09,2.6-4.37,5.18-6.84,7.71q4,1.77,4,2.74T241.7,45.7V82.13a13.94,13.94,0,0,0,.59,4.69,14.8,14.8,0,0,1,.19,2.24q0,2.94-3.52,3.13c-1.23,0-1.85-.49-1.85-1.47V44.24q-2,1.56-3.81,2.93a53.4,53.4,0,0,1-9.18,6L222.56,52a50.12,50.12,0,0,0,10-7.71,103.8,103.8,0,0,0,8.89-9.67,71.37,71.37,0,0,0,6.73-10.35A20.32,20.32,0,0,0,249.9,18.75Zm4.2,12.5a41,41,0,0,0,11.33,1.27h36L306.15,27q3.72,2.84,7,5.57c.52.33.78.68.78,1.07a1.38,1.38,0,0,1-1.56,1.57H294V82.81a6.63,6.63,0,0,1-1.79,5.08A11.91,11.91,0,0,1,288,90.43a11.71,11.71,0,0,1-4.2,1l-.1-1.18a3.2,3.2,0,0,0-1.27-2,12.39,12.39,0,0,0-4.78-2.05A42.89,42.89,0,0,0,269,84.77V82.52A76.59,76.59,0,0,0,283,84c2.54,0,4.2-.19,5-.58s1.27-1.37,1.27-2.93V35.16H265.43c-4.56.06-7.68.19-9.38.39Zm2.83-24.12A47.4,47.4,0,0,0,268.26,8.2H296l4.68-5.37q3.72,2.64,6.94,5.37a1.42,1.42,0,0,1,.88,1.18c0,1.1-.53,1.66-1.57,1.66H268.26c-4.62.06-7.75.19-9.37.39Z"/><path class="cls-1" d="M349.51.78a38.44,38.44,0,0,1,9.28,2.15c.84.33,1.27.78,1.27,1.37s-.43,1-1.27,1.27a14.09,14.09,0,0,1-4.2,1.17V82.81a14.23,14.23,0,0,0,.2,3,26.72,26.72,0,0,1,.19,2.83c0,2.08-1.06,3.13-3.18,3.13-1.53,0-2.29-.49-2.29-1.47,0-1.43,0-3.25.1-5.47s.19-4.26.19-6V59.08a55.29,55.29,0,0,1-6.54,4.2,80,80,0,0,1-8,4.3,47.36,47.36,0,0,1-7.32,3.12c-.65,2.35-1.17,3.52-1.56,3.52s-2.09-2.6-4.69-7.81a53.56,53.56,0,0,0,9-2.15V20.31a57.8,57.8,0,0,0-.39-7.81,42.62,42.62,0,0,1,9.38,2.05c.84.46,1.27.95,1.27,1.47s-.43,1-1.27,1.27a12.24,12.24,0,0,1-4.2,1.07V62.79a46.17,46.17,0,0,0,5.14-1.95q4.08-1.76,9.21-4.39V8.59A75.57,75.57,0,0,0,349.51.78ZM375.68,0a67.88,67.88,0,0,1,8.4,3.42,2,2,0,0,1,.59,1.27c0,.58-.65,1-2,1.17a19.71,19.71,0,0,1-3.12.39q-2.34,8.29-5.27,16h26L405,16.8c2.47,1.89,4.79,3.71,6.93,5.47a1.42,1.42,0,0,1,.88,1.27c0,1-.52,1.46-1.56,1.46h-11q-1.08,9.67-2.74,17.58a54.24,54.24,0,0,1-5,15.13q-1.75,4.2-3.71,7.82c.91,1.11,1.85,2.24,2.83,3.42a71.44,71.44,0,0,0,9.57,9.17,67.46,67.46,0,0,0,13.19,6.65v1.66a6.51,6.51,0,0,0-5.47,3,82.11,82.11,0,0,1-12.21-8.69,45.15,45.15,0,0,1-8.59-9.67c-.53-.58-1-1.2-1.57-1.85a23.51,23.51,0,0,1-1.36,2,55.27,55.27,0,0,1-10,10.74,72.51,72.51,0,0,1-15.14,9.48l-1.56-2a80.16,80.16,0,0,0,14.94-11,67,67,0,0,0,9.08-11.13A26.26,26.26,0,0,0,384,65a53.24,53.24,0,0,1-3.22-6.64,92.63,92.63,0,0,1-6.05-17.58,87.51,87.51,0,0,1-2.64-13.09q-2.15,5-4.39,9.09a118.12,118.12,0,0,1-8.4,12.4l-1.57-1.17A116.51,116.51,0,0,0,365,35.25q2.34-5.17,4.59-11.52t3.91-12A94.52,94.52,0,0,0,375.68,0Zm-2.14,25a108,108,0,0,0,3.9,17.09A95.69,95.69,0,0,0,383.79,58c.65,1.11,1.37,2.28,2.15,3.51q1.46-2.82,2.63-5.66A85.32,85.32,0,0,0,393,41.5,161.46,161.46,0,0,0,395,25Z"/><path class="cls-1" d="M451.86.39a37.7,37.7,0,0,1,6.44,3.13,1.77,1.77,0,0,1,1,1.56c0,1.11-1.57,1.66-4.69,1.66a50.58,50.58,0,0,1-5.86,6.93,35.29,35.29,0,0,1-3.92,3.22q3.92,1.66,3.92,2.74,0,.87-3.12,2.25v2.34a14.54,14.54,0,0,0,.58,4.78,15.16,15.16,0,0,1,.2,2.25c0,2-1.19,3-3.58,3.13-1.33,0-2-.53-2-1.57V19.63c-2.08,1.24-4.43,2.47-7,3.71A48.93,48.93,0,0,1,423.24,27l-1.17-.78a59.6,59.6,0,0,0,10.35-4.78,68.42,68.42,0,0,0,6.94-4.79,61.37,61.37,0,0,0,5.75-5.27,33.5,33.5,0,0,0,4.3-5.76A24.87,24.87,0,0,0,451.86.39Zm8.2,81.35a73.17,73.17,0,0,1-10.35,4.2q-5.28,1.84-10.45,3.22a92.52,92.52,0,0,1-12.4,2.64l-1.18-1.86a127.55,127.55,0,0,0,15.73-5,64.48,64.48,0,0,0,10.35-4.39,31,31,0,0,0,6.35-4.79c2.4,1.5,4.49,2.83,6.25,4a1.42,1.42,0,0,1,.39,1.07c0,.59-.66.88-2,.88ZM441.21,35.55l5.87,3.12h45.78l2.74-3.12c3.39,2.08,5.08,3.55,5.08,4.39q0,1-2.73,2.64V74.22c0,1.24-1.06,2-3.19,2.34-1.06,0-1.6-.26-1.6-.78V72.66H446v2.73c0,.59-.4,1-1.2,1.37a6.33,6.33,0,0,1-2.39.68c-.8,0-1.2-.42-1.2-1.27ZM446,48.93h47.16V41.41H446Zm0,10h47.16V51.56H446Zm0,11h47.16v-8.3H446ZM467.87.78a54.92,54.92,0,0,1,8.69,1.66q1.08.3,1.08,1.08c.06.58-.36,1.1-1.27,1.56a12.43,12.43,0,0,1-3,1.17V16.8c3-1,5.7-1.92,8.11-2.84a63.16,63.16,0,0,0,8.39-3.51,55.12,55.12,0,0,0,6.84-3.61,22.23,22.23,0,0,0,4.78-3.62q7.43,4.59,7.43,5.76c0,.79-.65,1.18-2,1.18a16.78,16.78,0,0,1-3.12-.39q-4.79,2-10.65,3.71-5.18,1.65-10.84,2.93c-3,.71-6,1.4-9,2.05v5.76a2.42,2.42,0,0,0,.39,1.37,2.18,2.18,0,0,0,1.17,1.07,6.2,6.2,0,0,0,2.15.59,35.08,35.08,0,0,0,7.23.58H494a61.48,61.48,0,0,0,7-.29c1.11-.2,2.15-.39,3.13-.59A3.12,3.12,0,0,0,506,26,3.92,3.92,0,0,0,507,24.22a70.48,70.48,0,0,0,1.86-10.94l1.95.78v7.82c0,1.88.23,3,.68,3.32,1.89.71,2.84,1.72,2.84,3a1.6,1.6,0,0,1-.49,1.17,7.41,7.41,0,0,1-2.05,1.18,19.6,19.6,0,0,1-5.08,1.17q-3.72.39-12.7.39h-9.76a35.86,35.86,0,0,1-8.89-.78,12.11,12.11,0,0,1-4-1.08,5.22,5.22,0,0,1-2-2.05,9,9,0,0,1-.39-2.44V6.25A14.3,14.3,0,0,0,467.87.78ZM480,76.56q6.84,1.17,13.87,2.93a100.44,100.44,0,0,1,10.35,3.22,30.13,30.13,0,0,1,4.69,2.35,13.4,13.4,0,0,1,2.15,2,2.32,2.32,0,0,1,.58,1.56c0,1.37-.52,2-1.56,2a4.5,4.5,0,0,1-1.86-.58,17.61,17.61,0,0,1-2.93-1.66q-2.92-1.67-5.27-2.74-3.22-1.45-7.52-3-4.78-2-13.28-4.49Z"/><path class="cls-1" d="M522.56,47.66a52.09,52.09,0,0,0,10.94.88h2.73L539,45.7q4.69,2.84,4.69,3.91,0,.89-2.73,2.34V72.66a3.56,3.56,0,0,0,1.37,2.54,27,27,0,0,0,8.88,4.68,49.21,49.21,0,0,0,10.74,2.83,179.39,179.39,0,0,0,21.2.88q14.55,0,32-1.46v1.46q-3.23.5-4.3,4.3-10.07.39-23.05.39-12.21,0-19.53-.68A80.56,80.56,0,0,1,556.45,85a35.54,35.54,0,0,1-10.26-4.39,20.8,20.8,0,0,1-7.23-6A100.78,100.78,0,0,1,528.42,84c0,2.61-.26,3.91-.78,3.91-.78,0-2.61-1.92-5.47-5.76a47.57,47.57,0,0,0,7.32-4,40.33,40.33,0,0,0,7.13-5.46V51.17H533.5a61.7,61.7,0,0,0-9.38.39Zm2.34-27a49.89,49.89,0,0,1,9.57,4,14.89,14.89,0,0,1,4.59,3.22,3.09,3.09,0,0,1,1.08,2.15c0,2.08-.65,3.12-2,3.12a5.35,5.35,0,0,1-1.75-.29,4.33,4.33,0,0,1-1.57-1.66,21.23,21.23,0,0,0-4.39-4.88,44.21,44.21,0,0,0-6.74-4.1Zm3.91-19.14a55.94,55.94,0,0,1,9.57,3.91A19.61,19.61,0,0,1,543,8.79,3.19,3.19,0,0,1,544,11c0,2-.65,3-1.95,3a5.11,5.11,0,0,1-1.76-.29,5.62,5.62,0,0,1-1.56-1.66,20,20,0,0,0-4.39-4.79,36.65,36.65,0,0,0-6.74-4.1ZM554.1,18a41,41,0,0,0,11.33,1.27H576v-2a57.7,57.7,0,0,0-.39-7.81,28.33,28.33,0,0,1,8,2.14,1.52,1.52,0,0,1,1.08,1.37,1.31,1.31,0,0,1-.88,1.27,6.42,6.42,0,0,1-3,1.17v3.91h19.53l4.3-4.3q3.12,2.25,6,4.49c.45.26.68.56.68.88,0,1-.39,1.57-1.17,1.57h-29.3v9.37H598l2.73-3q5.09,2.94,5.08,4.3,0,1-2.73,2.64V59.77c0,1.23-1.07,2-3.19,2.34-1.07,0-1.6-.23-1.6-.68V58.2H580.76v9h22.66l4.29-4.69,6.65,4.79a1.33,1.33,0,0,1,.78,1.07c0,1.11-.39,1.66-1.18,1.66h-33.2v8.5q0,2-2.79,2c-1.59,0-2.38-.75-2.38-2.25a31.26,31.26,0,0,1,.19-3.22c.13-1.37.2-2.54.2-3.52V70H556.84q-6.84.09-9.38.29l-2-4.29a44.46,44.46,0,0,0,11.33,1.17H576v-9H560.45v2c0,.65-.4,1.14-1.2,1.46a7.35,7.35,0,0,1-2.39.49c-.8,0-1.2-.36-1.2-1.07V28.22l5.86,3H576V21.88H565.43c-4.56.06-7.68.19-9.38.39ZM555.37.78h1.17v4.3h48.05L607.32,2a57.55,57.55,0,0,1,6,5,.66.66,0,0,1,.29.59c0,.46-.61.85-1.85,1.17-1,.2-1.92.43-2.83.69a31.37,31.37,0,0,1-3.71,2.73c-1.5,1-3,2-4.5,2.83l-1.56-1.27a18.26,18.26,0,0,0,3.42-3.12,10.69,10.69,0,0,0,2.05-2.74H556.45c-.14,1-.27,2.05-.4,3a18.22,18.22,0,0,1-1.36,4.49,8,8,0,0,1-1.86,2.54,5.31,5.31,0,0,1-1.76,1.37,3.29,3.29,0,0,1-1.46.39c-1.63,0-2.44-.55-2.44-1.66a2.9,2.9,0,0,1,1.17-1.86,31.61,31.61,0,0,0,4.1-4.78,25.91,25.91,0,0,0,2-4.3A27.76,27.76,0,0,0,555.37.78Zm5.08,43H576V34H560.45Zm0,11.72H576v-9H560.45ZM580.76,34v9.77h17.48V34Zm0,12.5v9h17.48v-9Z"/><path class="cls-1" d="M623.24,8.59a57.16,57.16,0,0,0,10.94.79h19.53a65,65,0,0,0-.39-9,47.23,47.23,0,0,1,7.52,1.07c1.11.2,1.59.66,1.46,1.37.13.59-.29,1-1.26,1.37-.72.33-1.6.75-2.64,1.27V9.38h17.19V8.2A57.8,57.8,0,0,0,675.2.39a28.31,28.31,0,0,1,8,2.15c.72.39,1.08.85,1.08,1.37a1.33,1.33,0,0,1-.88,1.27,7.1,7.1,0,0,1-3,1.07V9.38h18.75l2.74-3.13c3.38,2.08,5.07,3.52,5.07,4.3s-.91,1.62-2.73,2.73v9.77c0,1.23-1,2-3.13,2.34-1,0-1.46-.26-1.46-.78V22.27H680.37v8.59h25.39l3.13-2.64a30.71,30.71,0,0,1,4.78,3.13,2.24,2.24,0,0,1,.69,1.17c0,.65-1.18,1.4-3.52,2.25a35.81,35.81,0,0,1-1.07,5.66,13.57,13.57,0,0,1-1.57,3.42,4.92,4.92,0,0,1-1.75,1.46,7.85,7.85,0,0,1-2.15.88,6.61,6.61,0,0,1-1.66.29,4.06,4.06,0,0,0-.49-2.14c-.33-.79-2.25-2-5.76-3.62l.39-2q5,2.05,6.64,2a2,2,0,0,0,.88-.19.59.59,0,0,0,.49-.3,4.41,4.41,0,0,0,.68-1.07,6,6,0,0,0,.58-2,26,26,0,0,0,.49-3.52H680.37v5.08c0,1.37-.91,2-2.73,2-1.57,0-2.35-.81-2.35-2.44,0-.78.07-1.82.2-3.12.06-.59.1-1.11.1-1.57H653.22a26.1,26.1,0,0,1-5.86,6.94A33.24,33.24,0,0,1,642.29,44l.19.29h48.83L694,41q5.09,3.12,5.08,4.29c0,.72-.91,1.63-2.73,2.74V71.48a15.05,15.05,0,0,0,.19,3.13,5.73,5.73,0,0,1,.2,1.56c0,1.24-1.18,2-3.52,2.35-1,0-1.57-.23-1.57-.69V75.39h-49a17.67,17.67,0,0,1,.1,2c0,1-1.17,1.6-3.52,1.86q-1.56,0-1.56-1.08V46.09a.3.3,0,0,0-.2.1,67.75,67.75,0,0,1-13.87,4.59l-1.17-1.85a64.08,64.08,0,0,0,13.38-5.38,28.39,28.39,0,0,0,8.2-5.76,17.65,17.65,0,0,0,3.71-4.2H631.93c-.32.85-.62,1.66-.88,2.45a2.6,2.6,0,0,1-.87,1.36,5.34,5.34,0,0,1-2.25.49q-2.34,0-2.34-1.17a3.75,3.75,0,0,1,.39-1.17,75.26,75.26,0,0,0,3.81-9.67A82,82,0,0,0,632.23,16l5.07,3.61h15.63a62.41,62.41,0,0,0,.78-7.52H634.18a61.79,61.79,0,0,0-9.38.39Zm33.69,75.79a57.61,57.61,0,0,1-9.66,2.92c-3.19.92-6.39,1.66-9.57,2.25a104,104,0,0,1-11.63,1.86l-1.17-2a146.4,146.4,0,0,0,14.55-3.71A78.12,78.12,0,0,0,649,82.32a34.91,34.91,0,0,0,6-3.8,56.63,56.63,0,0,1,6.25,4.1,1.13,1.13,0,0,1,.39,1c0,.52-.65.79-2,.79Zm-7.32-53.52.1-.1a34.4,34.4,0,0,0,2.83-8.49h-16.7c-1,3.12-1.89,6-2.73,8.59Zm-7.13,22.36H691.6V46.88H642.48Zm0,9.67H691.6v-7H642.48Zm0,9.77H691.6V65.72H642.48Zm33.11-41.8V22.27H657.52a8.13,8.13,0,0,1-.29,1.27,33.31,33.31,0,0,1-2.54,7.32ZM658.3,12.11q-.09,4.39-.39,7.52h17.68V12.11ZM678.42,79.3q6.15.78,12.3,2c4.1.91,7.2,1.69,9.28,2.34a24.21,24.21,0,0,1,4.2,1.66,11.68,11.68,0,0,1,1.85,1.47,1.46,1.46,0,0,1,.49,1.07c0,1.37-.52,2-1.56,2a4.48,4.48,0,0,1-1.76-.58,13.34,13.34,0,0,1-2.54-1.08c-1.75-.78-3.35-1.43-4.78-2-1.89-.72-4.14-1.43-6.74-2.15q-4.3-1.37-11.91-3.32Zm2-67.19v7.52h19.24V12.11Z"/><path class="cls-1" d="M786.72,58.4A31.51,31.51,0,0,1,782.91,74q-5.37,9.38-16.31,9.38-9,0-14.65-8-6-8.79-6.05-25a43.16,43.16,0,0,1,10.94-29.2A38.25,38.25,0,0,1,784.38,7.71l.58,2q-13.66,2.64-21.87,11.91a35.56,35.56,0,0,0-9,19.92,20.64,20.64,0,0,1,15.24-6.44,15.06,15.06,0,0,1,12.5,6.44Q786.72,47.76,786.72,58.4Zm-6,4.3q.11-10-3.42-16.22Q773.25,39,765,39.55q-7.23.59-10.94,5-2.34,2.64-2.34,9.86,0,12.9,5.27,19.93,4.5,5.85,10.94,5.86a10.94,10.94,0,0,0,8.69-4Q780.67,71.58,780.76,62.7Z"/><path class="cls-1" d="M833.11,46q0,13.57-4,23.63Q823.45,83.4,811.91,83.4T794.73,69.63a64.16,64.16,0,0,1-4-23.63,64.38,64.38,0,0,1,4-23.54Q800.39,8.6,811.91,8.59T829.1,22.46Q833.11,32.53,833.11,46Zm-6.45,0a75.44,75.44,0,0,0-2.73-20.41q-3.91-14.46-12-14.46t-12,14.46A73.44,73.44,0,0,0,797.07,46a73.93,73.93,0,0,0,2.83,20.89q3.92,14,12,14t12-14.06A75.62,75.62,0,0,0,826.66,46Z"/><path class="cls-1" d="M863.09,29.69a44.43,44.43,0,0,0,11.32,1.17h64.16L943.65,25q3.92,3,7.33,5.76a1.68,1.68,0,0,1,.88,1.37c0,1-.53,1.46-1.57,1.46H917.48V78.22a2.78,2.78,0,0,0,1,2.15c.39.59,1.36,1,2.93,1.37a84.28,84.28,0,0,0,10.15.39q6.26,0,11.33-.49a4.83,4.83,0,0,0,3-1.37,5.9,5.9,0,0,0,1.46-3.22q1.17-3.22,2.15-15.33l1.56.39V76.56a4.2,4.2,0,0,0,2.74,4.4,1.49,1.49,0,0,1,.29,2.44A5.33,5.33,0,0,1,951,84.86a26.29,26.29,0,0,1-7.43,1.08c-3.64.32-6.86.49-9.66.49-5.15,0-9-.14-11.43-.39a15.31,15.31,0,0,1-5.58-1,6.07,6.07,0,0,1-3.29-2,4.06,4.06,0,0,1-.89-2.25V33.59H895.9a143.84,143.84,0,0,1-1.27,20.32,48.34,48.34,0,0,1-4.3,13.18,45,45,0,0,1-7,10,64.64,64.64,0,0,1-9.18,7.72,60.54,60.54,0,0,1-11,5.56l-1.18-1.66a89.46,89.46,0,0,0,9.57-5.27,76,76,0,0,0,6.94-5.76,83.39,83.39,0,0,0,5.86-7.72,33.16,33.16,0,0,0,4.2-8.59,93.51,93.51,0,0,0,2-11.13,153.21,153.21,0,0,0,.68-16.61h-16.8q-6.93.1-9.27.39ZM871,7.81A44.43,44.43,0,0,0,882.32,9H929.2l5.08-5.76q3.9,2.83,7.32,5.67a1.59,1.59,0,0,1,.88,1.27,1.38,1.38,0,0,1-1.56,1.56h-58.6c-4.55.06-7.68.19-9.37.39Z"/><path class="cls-1" d="M1010.25,8.59,987.89,83.4h-5.27l22.17-74.81Z"/><path class="cls-1" d="M1037,12.89a44.52,44.52,0,0,0,11.33,1.17h3.91V8.2a75,75,0,0,0-.3-7.81,38.33,38.33,0,0,1,9.28,2.15c.85.39,1.27.85,1.27,1.37s-.42,1-1.27,1.27a12.24,12.24,0,0,1-4.2,1.07v7.81h5.47l3.91-4.29c2.14,1.56,4.1,3.06,5.86,4.49a1.19,1.19,0,0,1,.78,1.07q0,1.47-1.17,1.47H1057v9.37h8.2l3.13-4.29a23.42,23.42,0,0,1,5.18,4.19,2,2,0,0,1,.68,1.37q0,.89-3.52,3V43q0,7.32.2,9.57c.13,1.89.19,3.42.19,4.59a2.78,2.78,0,0,1-1,2.15,6.4,6.4,0,0,1-2.15.49c-1.3,0-2-.39-2-1.18V55.86h-9V67.19h7.52l3.81-4.3,6,4.49c.45.33.68.65.68,1,0,1.11-.39,1.66-1.17,1.66H1057V82.13a14.25,14.25,0,0,0,.2,2.93,26.56,26.56,0,0,1,.19,2.83c0,2.08-1.06,3.13-3.18,3.13-1.53,0-2.29-.53-2.29-1.57,0-1.36,0-3.12.1-5.27q.2-3.51.2-6V70h-3.91q-6.93.09-9.38.29L1037,66a44.52,44.52,0,0,0,11.33,1.17h3.91V55.86h-8.14v4.3c0,.84-.65,1.27-1.94,1.27a5.84,5.84,0,0,1-2.13-.59,2.89,2.89,0,0,1-1-2.25c0-1.1.07-2.6.2-4.49.39-1.5.58-4.65.58-9.47V28.52a25.11,25.11,0,0,0-.78-6.64l5.82,4.29h7.37V16.8h-3.91q-6.93.09-9.38.39Zm7.13,26.56h8.11V28.91h-8.11Zm0,13.77h8.11v-11h-8.11ZM1057,28.91V39.45h8.89V28.91Zm0,13.28v11h8.89v-11ZM1074.51,9a44,44,0,0,0,11.33,1.18h11.72v-2a57.8,57.8,0,0,0-.39-7.81,37.06,37.06,0,0,1,9.37,2.15c.85.39,1.27.85,1.27,1.37s-.42,1-1.27,1.27a12.12,12.12,0,0,1-4.2,1.07v3.91h14.07l4.29-4.69,6.64,4.78a1.59,1.59,0,0,1,.78,1.18c0,1-.35,1.46-1.07,1.46h-24.71v7.42h13.28l3.13-4.29a20.45,20.45,0,0,1,5.18,4.19,2.29,2.29,0,0,1,.68,1.27q0,.89-3.52,3.13v3.22q0,7.23.2,9.47c.13,1.89.19,3.39.19,4.5a2.62,2.62,0,0,1-1,2.15,4.82,4.82,0,0,1-2.15.68c-1.3,0-1.95-.42-1.95-1.27V42.19h-14.07v8.1a9.83,9.83,0,0,1,1.27-.09q6.15-.39,14.07-1.08a22,22,0,0,0-4-3.42l.88-1.07a30.39,30.39,0,0,1,7.23,4.1,11.48,11.48,0,0,1,3.51,3.22,4.2,4.2,0,0,1,.88,2.35c0,1.89-.65,2.83-2,2.83a2.1,2.1,0,0,1-1.17-.39,3.58,3.58,0,0,1-1.27-1.76,20.79,20.79,0,0,0-2.35-4q-7.32,1.26-13.08,2.05-6.8,1-13,1.66-5.56.68-11.82,1.17c-.71,2.34-1.23,3.52-1.56,3.52q-.78,0-4.69-7.82,8.2-.29,14.75-.58l7.52-.39v-8.4h-13.21v2.44c0,.72-.65,1.07-1.94,1.07a6.73,6.73,0,0,1-2.14-.49,2.69,2.69,0,0,1-1-2.24c0-1.11.06-2.6.19-4.49q.59-2.25.59-9.57V22.66a25.16,25.16,0,0,0-.78-6.64l5.83,4.29h12.43V12.89h-11.72q-6.93.11-9.38.39Zm.88,53.13a44.46,44.46,0,0,0,11.33,1.17h21.48v-3.9a13.4,13.4,0,0,0-.78-5.08c5.73,1,8.6,2.05,8.6,3.22,0,.85-1.18,1.46-3.52,1.86v3.9h5.86l4.3-4.69,6.25,4.79c.52.33.78.68.78,1.07,0,1-.39,1.57-1.17,1.57h-16V84a4.1,4.1,0,0,1-1.17,3,6.65,6.65,0,0,1-3,2.35,12.74,12.74,0,0,1-4.39,1.66,5.45,5.45,0,0,0-1.08-3.62,6.61,6.61,0,0,0-2.63-1.17,42,42,0,0,0-8.4-1.85V82.52a46.74,46.74,0,0,0,12.11,1.86c1.75,0,2.89-.23,3.41-.69a2.16,2.16,0,0,0,.88-2V66h-21.48q-6.93.09-9.38.39Zm8.89-22.66h13.28V32.13h-13.28Zm.1-10.15h13.18V23.05h-13.18Zm1.17,38.28a31.06,31.06,0,0,1,6,3.51,13.07,13.07,0,0,1,3,2.84,3,3,0,0,1,.68,1.85c0,2.08-.78,3.13-2.34,3.13a2,2,0,0,1-1.08-.3,3.68,3.68,0,0,1-.87-1.46,16.92,16.92,0,0,0-2.64-4.3,22.77,22.77,0,0,0-4-3.61Zm16.79-44.53V29.3h14V23.05Zm0,9.08v7.32h14.07V32.13Z"/><path class="cls-1" d="M1140.23,14.94l5.82,4.3h7V7.81a57.8,57.8,0,0,0-.39-7.81A42.52,42.52,0,0,1,1162,2.05c.85.46,1.27,1,1.27,1.47s-.42,1-1.27,1.27a12.18,12.18,0,0,1-4.2,1.07V19.24H1166l3.12-4.3a20.14,20.14,0,0,1,5.18,4,2.63,2.63,0,0,1,.68,1.36q0,1-3.91,3.23V45H1182V8.2a25.16,25.16,0,0,0-.78-6.64l5.86,4.3h25L1216.8.78c2.34,1.76,4.55,3.48,6.64,5.18a1.38,1.38,0,0,1,.78,1.17c0,1-.39,1.46-1.17,1.46h-36.72v9.77H1209l4.3-4.69c2.34,1.7,4.56,3.29,6.64,4.79a1.38,1.38,0,0,1,.78,1.17c0,1-.39,1.46-1.17,1.46h-33.2V31.74H1209l4.3-4.79c2.34,1.63,4.56,3.26,6.64,4.89.52.32.78.65.78,1,0,1-.39,1.57-1.17,1.57h-33.2V45h30.08l4.68-5.08q3.53,2.55,6.64,5.08c.52.33.79.68.79,1.07,0,1-.4,1.57-1.18,1.57h-30.27a102.37,102.37,0,0,0,4.2,11.13,67.64,67.64,0,0,0,3.61,6.54q2.14-1.36,3.71-2.54a28.3,28.3,0,0,0,4.3-3.71,26.3,26.3,0,0,0,3.42-3.71,19.71,19.71,0,0,0,2.44-3.81q7.43,4.59,7.42,6c0,.72-.65,1.07-2,1.07a18.22,18.22,0,0,1-3.13-.39,53.06,53.06,0,0,1-5.56,3.91q-2.83,1.66-5.67,3a43.21,43.21,0,0,1-4,1.75c.26.4.52.75.78,1.08a41.23,41.23,0,0,0,6.74,7.62,33.44,33.44,0,0,0,8.2,6,23.4,23.4,0,0,0,7.33,3.13V86c-3.45,0-5.54,1-6.25,3a32.18,32.18,0,0,1-8.7-6.64,45.09,45.09,0,0,1-8.1-9.08,60.33,60.33,0,0,1-6.64-11.82,107.92,107.92,0,0,1-4.69-13.86h-9V78.71c1-.33,1.92-.68,2.83-1.07q5.56-2.16,12.79-5.76l.39,2.05a93.4,93.4,0,0,1-10.45,6.15,95,95,0,0,1-9.45,4.49,61.07,61.07,0,0,1-8.71,3.32c-.72,2.34-1.24,3.52-1.56,3.52q-.78,0-4.69-7.82A76.16,76.16,0,0,0,1178,81.05c.84-.26,1.76-.52,2.73-.78V47.66h-9.67V61.43a9,9,0,0,1-1.17,5,7.2,7.2,0,0,1-2.93,2.44,5.32,5.32,0,0,1-2.93,1.17,6.07,6.07,0,0,0-.68-3.32,7.15,7.15,0,0,0-2.54-2.15,13.24,13.24,0,0,0-3-1V83.2a15,15,0,0,0,.2,3,24.74,24.74,0,0,1,.19,2.83q0,3.14-3.18,3.13c-1.59,0-2.38-.49-2.38-1.47,0-1.43.06-3.25.19-5.47s.2-4.2.2-6V21.88h-7.72V70.31q0,1.17-2,1.17a6.3,6.3,0,0,1-2.15-.48,2.91,2.91,0,0,1-1-2.25,45,45,0,0,1,.3-4.49,58,58,0,0,0,.49-9.57V21.48A24,24,0,0,0,1140.23,14.94Zm17.58,6.94V61.43a27.09,27.09,0,0,0,7,1.07,2,2,0,0,0,1.57-.49,5.2,5.2,0,0,0,.39-2.63V21.88Z"/></g></g></svg>