<svg xmlns="http://www.w3.org/2000/svg" viewBox="0 0 375.55 101.41"><defs><style>.cls-1{fill:#231815;}</style></defs><title>資產 92</title><g id="圖層_2" data-name="圖層 2"><g id="購物車_我要跟團_手機版_1101_刪運費_OK置圖"><path class="cls-1" d="M12,74.34a68.55,68.55,0,0,1,7.52,4.08,1.25,1.25,0,0,1,.65,1.07q0,.65-1.08,1.08a20.21,20.21,0,0,1-3.22.75C15,83,14.14,84.61,13.21,86.26c-1.14,1.72-2.29,3.33-3.43,4.83a52.4,52.4,0,0,1-4,4.41q-2,2.15-4.51,4.29L0,98.4a74.62,74.62,0,0,0,4.62-6.34C5.84,90,7,87.91,8.06,85.83s2-4.3,2.68-6.23A44.51,44.51,0,0,0,12,74.34ZM4.3,1.72l6.44,4.73h15.9l3.44-4.73a25.83,25.83,0,0,1,5.69,4.62,2.16,2.16,0,0,1,.75,1.5q0,1-3.86,3.33V55q0,8.05.21,10.53c.14,2.08.22,3.72.22,4.94A3,3,0,0,1,32,72.94a6.79,6.79,0,0,1-2.36.54c-1.44,0-2.15-.4-2.15-1.19V69.18H9.88v3.87c0,.86-.71,1.29-2.15,1.29a6.79,6.79,0,0,1-2.36-.54A3,3,0,0,1,4.3,71.44a49.48,49.48,0,0,1,.32-5,62.83,62.83,0,0,0,.54-10.53V9A27.75,27.75,0,0,0,4.3,1.72Zm5.58,23.2H27.39V9.45H9.88Zm0,19.45H27.39V27.93H9.88Zm0,21.8H27.39V47.27H9.88Zm14.61,9a32.81,32.81,0,0,1,7.31,6.44,22.54,22.54,0,0,1,3.54,5,9.54,9.54,0,0,1,.75,3.65c0,2.22-.86,3.33-2.57,3.33a1.66,1.66,0,0,1-1.19-.54,6.17,6.17,0,0,1-1.07-2.47A51.17,51.17,0,0,0,28,83.25,28.54,28.54,0,0,0,23.2,77ZM36.42,10.74a45.26,45.26,0,0,0,12.46,1.4h6V9.45A62.85,62.85,0,0,0,54.46.86a60.06,60.06,0,0,1,7.95,1.83c.79.35,1.18.75,1.18,1.18a1,1,0,0,1-.75,1A12.53,12.53,0,0,1,60.16,6v6.12H73.37V9.45A64.53,64.53,0,0,0,72.94.86,66,66,0,0,1,81,2.69c.71.35,1.07.75,1.07,1.18a1,1,0,0,1-.75,1A12.61,12.61,0,0,1,78.63,6v6.12h9.46l4.29-4.3q3.33,2.27,6.13,4.51c.57.29.86.61.86,1,0,1.15-.47,1.72-1.4,1.72H78.63v9h7l4.18-4.29q3.23,2.36,6.13,4.61c.5.29.75.61.75,1,0,1.15-.43,1.72-1.29,1.72H78.63v9H89.8l4.73-4.72c2.29,1.65,4.48,3.29,6.55,4.94.5.36.76.72.76,1.07,0,1.15-.43,1.72-1.29,1.72H70v8.6H84.22L87.66,43a23.31,23.31,0,0,1,5.58,4.62,2.08,2.08,0,0,1,.86,1.5q0,1-4.3,3.33V73.48h1.72l3.87-3.87c2,1.5,3.94,2.94,5.8,4.3a1,1,0,0,1,.65.86c0,1.21-.43,1.82-1.29,1.82H89.8V89.38A9.46,9.46,0,0,1,88.41,95,7.79,7.79,0,0,1,85,97.65a6,6,0,0,1-3.33,1.29l-.21-2a3,3,0,0,0-.76-1.5,6.89,6.89,0,0,0-3.43-2.47,23.73,23.73,0,0,0-6.34-1.4V89a31.06,31.06,0,0,0,9.88,1.82q2.58,0,3.33-.75c.65-.43,1-1.5,1-3.22V76.59H50.27V98.4c0,.93-.71,1.39-2.15,1.39a5.86,5.86,0,0,1-2.36-.64,3.16,3.16,0,0,1-1.07-2.47A48.81,48.81,0,0,1,45,91.74a61.79,61.79,0,0,0,.54-10.42V76.59a74.07,74.07,0,0,0-7.74.43l-2.15-4.73a49.18,49.18,0,0,0,9.89,1.19V50.27a27.75,27.75,0,0,0-.86-7.3L51.1,47.7H64.78V39.1H48.45c-5,.15-8.45.32-10.32.54L36,34.91a53,53,0,0,0,12.46,1.18h6.44v-9H50.6c-5.09.07-8.53.22-10.32.43l-2.15-4.73A48.93,48.93,0,0,0,50.6,24.06h4.29V15h-6c-5,.07-8.45.21-10.32.43ZM50.27,60.59H64.78V50.7H50.27Zm0,12.89H64.78V63.59H50.27Zm23.1-49.42V15H60.16v9Zm-13.21,12H73.37v-9H60.16ZM70,60.59h15V50.7H70Zm0,12.89h15V63.59H70Z"/><path class="cls-1" d="M144.48,7.84a91.49,91.49,0,0,1,9.24,3.65,2.26,2.26,0,0,1,.65,1.4c0,.72-.72,1.15-2.15,1.29a19.69,19.69,0,0,1-3.44.43q-1.08,5.16-2.26,9.88h10V8.59A62.85,62.85,0,0,0,156.08,0a44,44,0,0,1,10.21,2.26c1,.5,1.5,1,1.5,1.61s-.5,1.11-1.5,1.39a12.31,12.31,0,0,1-4.51,1.19v18h2.58l4.72-5.15q3.87,2.79,7.2,5.26a1.55,1.55,0,0,1,1,1.29c0,1.07-.43,1.61-1.29,1.61H161.78V53.07q6-2.68,13.75-7.09l.43,2.14a89.85,89.85,0,0,1-11.39,7.63c-.93.5-1.86,1-2.79,1.61V90.77A16,16,0,0,0,162,94a30.77,30.77,0,0,1,.22,3.12q0,3.44-3.5,3.44c-1.75,0-2.63-.54-2.63-1.61q0-2.37.22-5.91.21-3.87.21-6.66V60.16l-2.14,1.07a54.77,54.77,0,0,1-9.46,4.08c-.79,2.58-1.36,3.87-1.72,3.87q-.85,0-5.15-8.59a66.25,66.25,0,0,0,12.24-3.23c1.94-.57,4-1.29,6.23-2.15V27.5H145.66q-1.4,4.41-2.68,8-1.72,4.08-4.08,8.49l-1.72-1.4q1.71-4.93,3-9.24,1-3.87,1.82-8.49c.65-3.07,1.18-6,1.61-8.7Q144.16,12.47,144.48,7.84Zm45.66-7c3.29,1.22,6.08,2.36,8.38,3.44a1.85,1.85,0,0,1,.64,1.29q0,1-1.83,1.29a12.29,12.29,0,0,1-2.9.53,131.48,131.48,0,0,1-6.12,13.75h38.35l3.87-3.87a25.87,25.87,0,0,1,5.37,3.55c.71.64,1.07,1.15,1.07,1.5,0,.72-1.29,2-3.86,4q-.87,25.35-2.37,40-1.4,14.82-2.9,20.62c-1.07,3.44-2.18,5.81-3.33,7.09a8.38,8.38,0,0,1-4.4,3.23q-2.48,1.82-8.49,2.9a7.75,7.75,0,0,0-1.4-3.44,4.83,4.83,0,0,0-3-1.83q-1.83-1-8.06-2l.43-2.47q9.56,2.91,12,2.9a10.65,10.65,0,0,0,4.41-.86,7.5,7.5,0,0,0,3.65-2.9,27.83,27.83,0,0,0,3.44-7q1.38-4.94,2.9-20,1.92-19.33,1.93-38.46h-8.59q-3.23,13.44-6,22a143.19,143.19,0,0,1-7.2,15.69A78.23,78.23,0,0,1,199,72.62a81.83,81.83,0,0,1-7.74,8.7q-4.94,4.29-13.1,10.2l-1.72-1.61a101.94,101.94,0,0,0,11-9,114.56,114.56,0,0,0,7.95-9.45,100.22,100.22,0,0,0,6.77-10.64,106.63,106.63,0,0,0,6.45-15.25,137.3,137.3,0,0,0,5.37-21.49H203a69,69,0,0,1-3,9.35,103.3,103.3,0,0,1-4.4,9.56,80.07,80.07,0,0,1-6.45,10.1q-3.33,4.29-7,8.38a100.46,100.46,0,0,1-10.1,8.16l-1.29-2a59.83,59.83,0,0,0,9.45-8.92A62.36,62.36,0,0,0,187.88,48a76.89,76.89,0,0,0,6.34-12.89,84.47,84.47,0,0,0,3.22-11.07H186.7a80.59,80.59,0,0,1-5.91,9.24,102.06,102.06,0,0,1-9.56,10.64l-1.72-1a119.75,119.75,0,0,0,8.38-11.17q2.69-4.62,5.37-10.21t4.51-10.53A87,87,0,0,0,190.14.86Z"/><path class="cls-1" d="M277,14.61A48.85,48.85,0,0,0,289.5,15.9h32.23V9A64.53,64.53,0,0,0,321.3.43a39.14,39.14,0,0,1,10.2,2.36c1,.43,1.51.93,1.51,1.51s-.5,1.11-1.51,1.39A12.31,12.31,0,0,1,327,6.88v9h30.08l5.59-6.45q4.29,3.33,8,6.34a1.81,1.81,0,0,1,1,1.5c0,1.08-.57,1.62-1.72,1.62H327V30.62h24.06l3-3.55q5.6,3.43,5.59,4.73c0,.79-1,1.82-3,3.11V67.14c0,1.29-1.17,2.11-3.51,2.47-1.17,0-1.75-.29-1.75-.86V65.31H327V78.63h33.95l5.58-6.34q4.31,3.12,8.06,6.24a1.77,1.77,0,0,1,1,1.39,1.52,1.52,0,0,1-1.72,1.72H327v9.88a15.89,15.89,0,0,0,.22,3.33,28,28,0,0,1,.21,3.12q0,3.44-3.5,3.44c-1.75,0-2.62-.54-2.62-1.62,0-1.57.07-3.58.21-6s.22-4.62.22-6.55V81.64H286.06c-5,.07-8.45.22-10.31.43l-2.15-4.73a48.85,48.85,0,0,0,12.46,1.29h35.67V65.31H297.34v3a1.88,1.88,0,0,1-1.2,1.61,10.09,10.09,0,0,1-2.74.54,1.15,1.15,0,0,1-1.32-1.29V27.07l6.45,3.55h23.2V18.91H289.5q-7.51.11-10.31.43Zm20.3,32.23h24.39V33.52H297.34Zm0,15.57h24.39V49.84H297.34ZM327,33.52V46.84h24.39V33.52Zm0,16.32V62.41h24.39V49.84Z"/></g></g></svg>