<svg xmlns="http://www.w3.org/2000/svg" viewBox="0 0 791.5 92.19"><defs><style>.cls-1{fill:#ea609e;}</style></defs><title>資產 91</title><g id="圖層_2" data-name="圖層 2"><g id="購物車_我要跟團_手機版_1101_刪運費_OK置圖"><path class="cls-1" d="M41.8.39a36.91,36.91,0,0,1,9.27,2.15c.92.39,1.37.85,1.37,1.37s-.45,1-1.37,1.27A11.23,11.23,0,0,1,47,6.25v8.2H77.44l5.08-5.86q3.9,3,7.32,5.77a1.64,1.64,0,0,1,.88,1.36q0,1.47-1.56,1.47H11.33q-6.94.09-9.28.39l-2-4.3a44.46,44.46,0,0,0,11.33,1.17H42.19V8.2A57.8,57.8,0,0,0,41.8.39ZM59.47,36a25,25,0,0,1,7.13,3.41A2.1,2.1,0,0,1,67.68,41c0,.91-1.7,1.43-5.08,1.56q-5.09,9.66-9.18,16.31a72.59,72.59,0,0,1-5,6.73L51,67.77A42.87,42.87,0,0,0,62.5,75.39a66,66,0,0,0,13.77,5.76,116.59,116.59,0,0,0,15.23,4v1.56q-5.56,0-7,3.61a103.45,103.45,0,0,1-16-6.64A72,72,0,0,1,55,75.59a50.77,50.77,0,0,1-9-7.33c-.59.72-1.14,1.34-1.66,1.86a90.61,90.61,0,0,1-11.63,9.27,76.39,76.39,0,0,1-14.06,7.43A102.36,102.36,0,0,1,.88,92.19L.1,90.33q12.3-3,19.53-6.83A73.46,73.46,0,0,0,33.5,75a72.69,72.69,0,0,0,9.86-9.57,47,47,0,0,1-6.93-10.16A47.71,47.71,0,0,1,30.57,41a46.35,46.35,0,0,1-3,7.71A73.61,73.61,0,0,1,22,57.13q-.2,2.64-.78,2.64c-.52,0-2.08-1.44-4.69-4.3a39.1,39.1,0,0,0,7.91-7.81,23.35,23.35,0,0,0,4.59-9,1.45,1.45,0,0,1,1.57-1.17q1.75,0,2,1.17A23.93,23.93,0,0,0,35,47.75,53.14,53.14,0,0,0,41.7,57.91a57.74,57.74,0,0,0,3.91,4.79A101.17,101.17,0,0,0,53.71,50,61.5,61.5,0,0,0,59.47,36ZM27.83,21.09a36.43,36.43,0,0,1,6.84,3.81.94.94,0,0,1,.58.88c0,.39-.32.72-1,1a19.36,19.36,0,0,1-2.93.68A71.56,71.56,0,0,1,26,33a49.92,49.92,0,0,1-6.64,5.37,62.29,62.29,0,0,1-7.62,5q-4.11,2.45-8.89,4.69L1.66,46.88A103.07,103.07,0,0,0,11.72,40a92.63,92.63,0,0,0,7.42-6.64A79.69,79.69,0,0,0,25,26.76,25.34,25.34,0,0,0,27.83,21.09Zm28.91,1.57a86.86,86.86,0,0,1,11.42,5.86,62.48,62.48,0,0,1,8.11,5.66,22.74,22.74,0,0,1,4.2,3.91,5.58,5.58,0,0,1,1.66,2.53,5.81,5.81,0,0,1,.39,2c0,1.37-.52,2.05-1.56,2.05a3.38,3.38,0,0,1-1.66-.49,13.05,13.05,0,0,1-3-2.83,40.08,40.08,0,0,0-5.76-6.25,72.22,72.22,0,0,0-6.94-5.86,64.15,64.15,0,0,0-8.39-5.27Z"/><path class="cls-1" d="M129.39.39a37.48,37.48,0,0,1,6.45,3.13,1.77,1.77,0,0,1,1,1.56c0,1.11-1.57,1.66-4.69,1.66a50.58,50.58,0,0,1-5.86,6.93,36.23,36.23,0,0,1-3.92,3.22q3.91,1.66,3.92,2.74c0,.58-1,1.33-3.13,2.25v2.34a14.49,14.49,0,0,0,.59,4.78,15.16,15.16,0,0,1,.2,2.25c0,2-1.2,3-3.58,3.13-1.33,0-2-.53-2-1.57V19.63c-2.08,1.24-4.43,2.47-7,3.71A48.93,48.93,0,0,1,100.78,27l-1.17-.78A59.6,59.6,0,0,0,110,21.39a67.1,67.1,0,0,0,6.93-4.79,60.34,60.34,0,0,0,5.76-5.27A33.5,33.5,0,0,0,127,5.57,24.82,24.82,0,0,0,129.39.39Zm8.21,81.35a74.38,74.38,0,0,1-10.35,4.2Q122,87.79,116.8,89.16a92.33,92.33,0,0,1-12.41,2.64l-1.17-1.86A127.55,127.55,0,0,0,119,85a64.48,64.48,0,0,0,10.35-4.39,30.62,30.62,0,0,0,6.34-4.79c2.41,1.5,4.5,2.83,6.25,4a1.43,1.43,0,0,1,.4,1.07c0,.59-.66.88-2,.88ZM118.75,35.55l5.87,3.12H170.4l2.74-3.12c3.39,2.08,5.08,3.55,5.08,4.39q0,1-2.73,2.64V74.22c0,1.24-1.07,2-3.19,2.34-1.07,0-1.6-.26-1.6-.78V72.66H123.54v2.73c0,.59-.4,1-1.2,1.37a6.33,6.33,0,0,1-2.39.68c-.8,0-1.2-.42-1.2-1.27Zm4.79,13.38H170.7V41.41H123.54Zm0,10H170.7V51.56H123.54Zm0,11H170.7v-8.3H123.54ZM145.41.78a54.92,54.92,0,0,1,8.69,1.66q1.08.3,1.08,1.08c.06.58-.36,1.1-1.27,1.56a12.43,12.43,0,0,1-3,1.17V16.8c3-1,5.7-1.92,8.1-2.84a62.75,62.75,0,0,0,8.4-3.51,55.12,55.12,0,0,0,6.84-3.61A22.23,22.23,0,0,0,179,3.22q7.42,4.59,7.43,5.76c0,.79-.66,1.18-2,1.18a16.78,16.78,0,0,1-3.12-.39q-4.78,2-10.65,3.71-5.17,1.65-10.84,2.93c-3,.71-6,1.4-9,2.05v5.76a2.42,2.42,0,0,0,.39,1.37,2.14,2.14,0,0,0,1.17,1.07,6.2,6.2,0,0,0,2.15.59,35.08,35.08,0,0,0,7.23.58h9.76a61.48,61.48,0,0,0,7-.29c1.11-.2,2.15-.39,3.13-.59a3.12,3.12,0,0,0,1.76-1,3.92,3.92,0,0,0,1.07-1.76,70.48,70.48,0,0,0,1.86-10.94l1.95.78v7.82c0,1.88.23,3,.68,3.32,1.89.71,2.83,1.72,2.83,3a1.59,1.59,0,0,1-.48,1.17,7.41,7.41,0,0,1-2,1.18,19.6,19.6,0,0,1-5.08,1.17q-3.72.39-12.7.39h-9.76a35.8,35.8,0,0,1-8.89-.78,12.36,12.36,0,0,1-4-1.08,5.22,5.22,0,0,1-2-2.05,9,9,0,0,1-.39-2.44V6.25A14.3,14.3,0,0,0,145.41.78Zm12.11,75.78q6.84,1.17,13.87,2.93a100.44,100.44,0,0,1,10.35,3.22,30.13,30.13,0,0,1,4.69,2.35,12.88,12.88,0,0,1,2.14,2,2.33,2.33,0,0,1,.59,1.56c0,1.37-.52,2-1.56,2a4.5,4.5,0,0,1-1.86-.58,17.61,17.61,0,0,1-2.93-1.66q-2.92-1.67-5.27-2.74c-2.15-1-4.66-2-7.52-3q-4.78-2-13.28-4.49Z"/><path class="cls-1" d="M241.41.39a38.47,38.47,0,0,1,9.37,2.15c.91.39,1.37.85,1.37,1.37s-.46,1-1.37,1.27a12.24,12.24,0,0,1-4.2,1.07V17.58h32l5.08-5.86q3.9,2.92,7.33,5.76a1.6,1.6,0,0,1,.87,1.27,1.38,1.38,0,0,1-1.56,1.56H243a151,151,0,0,1-1,16.51c-.07.65-.14,1.27-.2,1.85h30.95l3.52-3.51a25.89,25.89,0,0,1,4.88,3.32c.65.58,1,1.07,1,1.46q0,1-3.52,3.42a242.74,242.74,0,0,1-2.15,25.88q-1.17,9.47-2.53,13.28a12.49,12.49,0,0,1-3,4.59,9.21,9.21,0,0,1-3.81,2A24.78,24.78,0,0,1,259.47,91,9.13,9.13,0,0,0,258,87.5a6.81,6.81,0,0,0-3.32-2,55.77,55.77,0,0,0-8.91-2l.4-2.34q10.56,3.51,13.29,3.52a14.84,14.84,0,0,0,3.91-.49,7,7,0,0,0,3.22-1.86,15.93,15.93,0,0,0,3-4.39q1.26-3,2.54-12.5a168,168,0,0,0,1.76-24.12H241.5a59.41,59.41,0,0,1-2.24,10.05,51.68,51.68,0,0,1-4.88,13,68.68,68.68,0,0,1-6.94,10.75,54.54,54.54,0,0,1-10.74,9.08A58.12,58.12,0,0,1,203.91,91l-1.18-2q10.65-5,15.82-9.86a50.5,50.5,0,0,0,9.09-10.45,49.78,49.78,0,0,0,6.15-13.18,66.23,66.23,0,0,0,3.32-14.75q.67-7.32.78-20.51h-25c-4.62.07-7.75.2-9.37.39l-2-4.29a43.83,43.83,0,0,0,11.33,1.17H241.8V8.2A57.8,57.8,0,0,0,241.41.39Z"/><path class="cls-1" d="M300.88,20.7a44.4,44.4,0,0,0,11.33,1.18h42.38q-.19-4.39-.2-7.82Q354.3,3.52,353.61,0c5.21,1.3,7.82,2.38,7.82,3.22,0,.59-.92,1.21-2.74,1.86q0,9.08.39,16.8h17.58L381.74,16q3.9,2.93,7.32,5.76a1.59,1.59,0,0,1,.88,1.27,1.38,1.38,0,0,1-1.56,1.56h-29.2c.26,4.17.59,8.1,1,11.82A130.22,130.22,0,0,0,363,54.2a41.77,41.77,0,0,0,3.81,11.62A43,43,0,0,0,372.75,75a40,40,0,0,0,6.74,7.13,4.81,4.81,0,0,0,3,1.46,1.93,1.93,0,0,0,1.27-.68q.78-1.75,5.37-20.8l1.56,1.17q-3.51,15.33-3.51,20.31a3.46,3.46,0,0,0,1.56,3,3.85,3.85,0,0,1,1.17,2.83c0,1.3-.91,2-2.73,2a6.9,6.9,0,0,1-2.74-.59,19,19,0,0,1-6.25-4.2,36.7,36.7,0,0,1-8.88-8.79,52.79,52.79,0,0,1-6.64-10.94,75.2,75.2,0,0,1-4.4-13.47,144.34,144.34,0,0,1-2.83-19.14q-.39-5.28-.68-9.67H312.21c-4.63.06-7.75.19-9.38.39Zm3,21.49a44.43,44.43,0,0,0,11.32,1.17h23.54l4.69-5.47q3.71,2.84,6.93,5.47a1.44,1.44,0,0,1,.88,1.27c0,1-.52,1.46-1.56,1.46H329V74.22q2.64-.69,5.28-1.56,8.4-2.44,19.33-6.64l.39,2q-9.47,4.48-16.89,7.13-8,3-15.33,5.08a119.18,119.18,0,0,1-14,3.8c-.65,2.35-1.17,3.52-1.56,3.52s-2.08-2.6-4.69-7.81a140.35,140.35,0,0,0,17-3q2.74-.5,5.67-1.17V46.09h-9q-6.93.1-9.37.39ZM367.68,2.44a36.91,36.91,0,0,1,8.49,3.71,16.89,16.89,0,0,1,4.2,3,3.32,3.32,0,0,1,1,2.25c0,2-.78,3-2.35,3a2.88,2.88,0,0,1-1.46-.39,3.3,3.3,0,0,1-1.37-1.46,18.68,18.68,0,0,0-3.81-4.69,30.76,30.76,0,0,0-5.86-4Z"/><path class="cls-1" d="M445.8,33.59a9.85,9.85,0,0,1,9.67,10.16,10.61,10.61,0,0,1-2.64,7,9.69,9.69,0,0,1-7,3.13,9.34,9.34,0,0,1-7.42-3.13,10.42,10.42,0,0,1-2.74-7,10.76,10.76,0,0,1,3-7.81A10.84,10.84,0,0,1,445.8,33.59Z"/><path class="cls-1" d="M499.71,76.56A41,41,0,0,0,511,77.83h66.79l5.47-6.74q4.49,3.33,8.4,6.45c.65.45,1,.91,1,1.37a1.39,1.39,0,0,1-1.57,1.56H511c-4.63.06-7.75.19-9.38.39Zm7.81-66.79A41.38,41.38,0,0,0,518.85,11H570.8l5.47-6.35q4,3.12,7.62,6.15c.65.39,1,.81,1,1.27a1.38,1.38,0,0,1-1.56,1.56H518.85q-6.84.11-9.38.39Zm6.25,31A47.27,47.27,0,0,0,525.1,41.8h40.23L570.41,36q3.9,2.82,7.32,5.76a1.37,1.37,0,0,1,.88,1.17c0,1.11-.49,1.66-1.46,1.66h-52c-4.63.06-7.75.19-9.38.39Z"/><path class="cls-1" d="M599.71,47.27a58,58,0,0,0,10.93.78h3.52l2.73-2.74q4.7,2.94,4.69,3.91c0,.58-.91,1.37-2.73,2.34v22a3.21,3.21,0,0,0,1.27,2.24,27,27,0,0,0,8.59,4.4,44.74,44.74,0,0,0,10.55,2.53,167,167,0,0,0,20.41.88q14.45,0,31.44-1.46v1.46q-3.23.5-4.29,4.3-9.87.39-22.46.39-11.82,0-18.85-.68A76.91,76.91,0,0,1,634,85.16a35.44,35.44,0,0,1-10.05-4.11,20.06,20.06,0,0,1-7-5.66,100.89,100.89,0,0,1-10.54,9.38q0,3.9-.78,3.9c-.78,0-2.61-2-5.47-5.86a42.1,42.1,0,0,0,7.32-3.9,47.78,47.78,0,0,0,7.23-5.37V50.78h-4a61.62,61.62,0,0,0-9.37.39Zm3.51-27a47.56,47.56,0,0,1,6.55,3.42q2.93,1.56,4.59,2.64a20,20,0,0,1,2.44,1.95,6.82,6.82,0,0,1,.88,1.27,2.24,2.24,0,0,1,.39,1.27c-.07,1.82-.72,2.73-2,2.73A2,2,0,0,1,615,33.3a16.24,16.24,0,0,1-2.44-2.83,27.35,27.35,0,0,0-4.2-4.4c-1.56-1.3-3.65-2.83-6.25-4.59Zm3.91-17.87a47.51,47.51,0,0,1,6.54,3.22c2,1.11,3.48,2.05,4.59,2.84a12.42,12.42,0,0,1,2.44,1.75,7.2,7.2,0,0,1,.88,1.47,2.1,2.1,0,0,1,.39,1.17c-.06,1.89-.71,2.83-2,2.83a2.07,2.07,0,0,1-1.07-.29,16,16,0,0,1-2.45-2.93,26.06,26.06,0,0,0-4.2-4.39A51.64,51.64,0,0,0,606,3.52ZM629.3,45.31a44.43,44.43,0,0,0,11.32,1.17h2V44.63a57.47,57.47,0,0,0-.39-7.91c2.91.58,5.36,1.14,7.32,1.66.65.26,1,.62,1,1.07a.94.94,0,0,1-.69.88,9,9,0,0,1-2.44,1.08v5.07h16.31V44.63a57.47,57.47,0,0,0-.39-7.91c2.92.58,5.36,1.14,7.33,1.66.65.26,1,.62,1,1.07s-.26.69-.78.88a7.66,7.66,0,0,1-2.34,1.08v5.07h6.25L679,42.19c2.15,1.56,4.11,3.06,5.86,4.49.52.26.78.59.78,1q0,1.56-1.17,1.56h-16V59.77h11.33l4.29-4.3L690,60a1.2,1.2,0,0,1,.68,1.08c0,1-.36,1.46-1.07,1.46H634.38q-6.84.11-9.38.39l-2-4.3a44,44,0,0,0,11.33,1.18h8.2V49.22h-2q-6.93.09-9.37.39Zm2.05-26.56v7a3.41,3.41,0,0,0,.58,1.95A5.48,5.48,0,0,0,634.18,29a19.4,19.4,0,0,0,5.76.69h2.35a24.51,24.51,0,0,0,5.07-.49,3.32,3.32,0,0,0,2.35-1.08c.78-1.1,1.69-3.45,2.73-7l1.56.39V25a4.46,4.46,0,0,0,1.37,3,2.87,2.87,0,0,1,1.37,2,1.68,1.68,0,0,1-.69,1.27,4.9,4.9,0,0,1-2.34,1.27,27.06,27.06,0,0,1-4.88.68c-2.15.2-4.33.29-6.54.29h-2.35a30.87,30.87,0,0,1-4.88-.39,15.42,15.42,0,0,1-3.52-.78,5.53,5.53,0,0,1-2.63-1.56A4.38,4.38,0,0,1,627.54,29a9,9,0,0,1-.39-2.83V2.83l5,2.25h13.28L648.14,2q5.08,3.14,5.08,4.3T650.49,9v9.77c0,1.24-1.07,2-3.19,2.34-1.07,0-1.6-.26-1.6-.78V18.75Zm16,52a27,27,0,0,1-5.47,3.62,44.09,44.09,0,0,1-5.46,2.73,38.8,38.8,0,0,1-6.64,2.25l-1.18-1.86a60.4,60.4,0,0,0,8.11-4.39,30.21,30.21,0,0,0,5.37-3.81,25.41,25.41,0,0,0,3.32-4.3,59.43,59.43,0,0,1,6.25,3.91,1.4,1.4,0,0,1,.49,1.17c0,.46-.69.68-2,.68Zm-16-62.89V16H645.7V7.81Zm16,52h16.31V49.22H647.36Zm16.8-41v7a3.42,3.42,0,0,0,.59,1.95A5.5,5.5,0,0,0,667,29a19.4,19.4,0,0,0,5.76.69h3.91a25.52,25.52,0,0,0,5.08-.49A3.27,3.27,0,0,0,684,28a31.52,31.52,0,0,0,2.84-7.33l1.56.39V25a4.33,4.33,0,0,0,1.46,3,2.87,2.87,0,0,1,1.27,2,1.78,1.78,0,0,1-.58,1.27,5.79,5.79,0,0,1-2.44,1.27,25.52,25.52,0,0,1-4.89.68c-2.21.2-4.39.29-6.54.29h-3.91a31,31,0,0,1-4.88-.39,17,17,0,0,1-3.61-.78,5.53,5.53,0,0,1-2.54-1.56A3.77,3.77,0,0,1,660.45,29a6.26,6.26,0,0,1-.59-2.83V2.83l5.08,2.25H679L681.74,2c3.38,2.09,5.08,3.52,5.08,4.3S685.9,7.88,684.08,9v9.77c0,1.24-1.06,2-3.19,2.34q-1.59,0-1.59-.78V18.75Zm-1.95,47a67.56,67.56,0,0,1,8.88,2.64,66.18,66.18,0,0,1,6.74,3,11,11,0,0,1,2.93,2.24,15.63,15.63,0,0,1,1.47,1.86,3.73,3.73,0,0,1,.29,1.46c0,1.3-.52,2-1.56,2a2.66,2.66,0,0,1-1.27-.49,16.16,16.16,0,0,1-1.76-1.56c-1.24-1-2.38-1.92-3.42-2.64q-1.95-1.27-4.69-2.74-3.12-1.76-8.39-4.29Zm1.95-57.91V16H679.3V7.81Z"/><path class="cls-1" d="M699.71,40.72A48,48,0,0,0,711,41.8h66.4l5.47-6.25c2.73,2.08,5.31,4.13,7.71,6.15A1.59,1.59,0,0,1,791.5,43c0,1.11-.52,1.66-1.56,1.66H711c-4.63.06-7.75.19-9.38.39Z"/></g></g></svg>