<svg xmlns="http://www.w3.org/2000/svg" viewBox="0 0 86.33 88.38"><defs><style>.cls-1{fill:#231815;}</style></defs><title>資產 73</title><g id="圖層_2" data-name="圖層 2"><g id="購物車_我要跟團_手機版_1101_刪運費_OK置圖"><path class="cls-1" d="M38.77,60.25q0,15.73-18.65,18.46v9.67H17.29V78.71A31.25,31.25,0,0,1,0,73.54V60.06H1.76q2,8.68,5.08,12.21,3.4,3.8,10.35,3.8V44.82q-8.12-5.35-11.43-9a18.85,18.85,0,0,1-5-12.79A15.65,15.65,0,0,1,4.39,12.5q4.31-5,12.9-5.76V0h2.83V6.74Q31.54,8.4,35.64,12.21V23.54h-2Q32.33,15.34,28.32,12q-2.84-2.34-8.2-2.93V36.43Q31,43.56,34.08,47,38.78,52.15,38.77,60.25ZM17.19,35.74V8.89Q6.74,11,6.74,20.8a13,13,0,0,0,2.54,7.81A45.44,45.44,0,0,0,17.19,35.74Zm15.23,27A14.28,14.28,0,0,0,29,53.12a49.74,49.74,0,0,0-8.88-7V76.27q5.46-1.27,7.61-2.83Q32.42,70.22,32.42,62.7Z"/><path class="cls-1" d="M86.33,42.77q0,13.57-4,23.64Q76.66,80.18,65.14,80.18T48,66.41q-4-10.15-4-23.64a64.33,64.33,0,0,1,4-23.53Q53.61,5.38,65.14,5.37T82.32,19.24Q86.32,29.29,86.33,42.77Zm-6.45,0a75.49,75.49,0,0,0-2.73-20.41q-3.91-14.44-12-14.45t-12,14.45a73.92,73.92,0,0,0-2.83,20.41,74.31,74.31,0,0,0,2.83,20.9q3.91,14,12,14t12-14.07A75.56,75.56,0,0,0,79.88,42.77Z"/></g></g></svg>