<svg xmlns="http://www.w3.org/2000/svg" viewBox="0 0 590.72 91.41"><defs><style>.cls-1{fill:#231815;}</style></defs><title>資產 79</title><g id="圖層_2" data-name="圖層 2"><g id="購物車_我要跟團_手機版_1101_刪運費_OK置圖"><path class="cls-1" d="M11,.78l5.85,4.3H71.58L74.71.78A21.46,21.46,0,0,1,79.79,5a1.85,1.85,0,0,1,.78,1.27q0,1-3.42,3.13V23.05q0,7.32.19,9.57c.07,1.82.1,3.32.1,4.49a2.8,2.8,0,0,1-1.07,2.25,5.24,5.24,0,0,1-2.05.58c-1.31,0-2-.42-2-1.27v-2H46.58V48.93H70l4.69-5.57q3.71,2.84,7,5.57A1.33,1.33,0,0,1,82.52,50,1.38,1.38,0,0,1,81,51.56H46.58V63.67H77.83l5.08-5.86q3.9,3,7.32,5.76a1.65,1.65,0,0,1,.88,1.37,1.3,1.3,0,0,1-1.46,1.47H11.33q-6.94.09-9.28.39L0,62.5a44.46,44.46,0,0,0,11.33,1.17H41.8V51.56H22.66q-6.84.11-9.38.39l-1.95-4.29a41.38,41.38,0,0,0,11.33,1.27H41.8V36.72H16.1V41q0,1.17-2,1.17A6.07,6.07,0,0,1,12,41.7a2.71,2.71,0,0,1-1-2.25A44.61,44.61,0,0,1,11.33,35a58,58,0,0,0,.49-9.57V7.52A25.64,25.64,0,0,0,11,.78Zm2.34,71.1,1.27.39a74.61,74.61,0,0,1-2.05,8.3,21.53,21.53,0,0,1-2.44,4.88,9.68,9.68,0,0,1-2.64,3.12,12.67,12.67,0,0,1-2.73,1.66,4.74,4.74,0,0,1-2,.49c-1.3,0-1.95-.68-1.95-2a2.88,2.88,0,0,1,.39-1.46,26.73,26.73,0,0,1,3.42-2.74,21,21,0,0,0,4.49-4.1,16.56,16.56,0,0,0,2.34-3.71A17.27,17.27,0,0,0,13.38,71.88ZM16.11,34H41.8V7.81H16.11ZM24.32,12.5a30.06,30.06,0,0,1,6.05,5.57,17.8,17.8,0,0,1,3,4.59,7.81,7.81,0,0,1,.68,3.12c0,2.09-.78,3.13-2.34,3.13a1.71,1.71,0,0,1-1.08-.39,7.41,7.41,0,0,1-.87-2.25,41.36,41.36,0,0,0-2.54-6.54,36.31,36.31,0,0,0-4.11-5.67Zm8.59,59.38a28.26,28.26,0,0,1,1.86,4.49,21.54,21.54,0,0,1,1.36,4.88,34,34,0,0,1,.3,4.3,9.37,9.37,0,0,1-.49,3.12,3.66,3.66,0,0,1-1.47,1.66,2.43,2.43,0,0,1-1.17.39c-1.3,0-1.95-.68-1.95-2a8.32,8.32,0,0,1,.39-2,20,20,0,0,0,.19-5,46.5,46.5,0,0,0-1-9.37ZM46.58,7.81V34H72.36V7.81Zm6.64,63.28a33.75,33.75,0,0,1,5.18,7,21.08,21.08,0,0,1,2.73,5.08,10.71,10.71,0,0,1,.69,3.52,5.31,5.31,0,0,1-.69,2.54c-.71,1-1.4,1.46-2.05,1.46a2.88,2.88,0,0,1-1.56-.49,3.63,3.63,0,0,1-.78-2.34,45,45,0,0,0-1.56-8.69,45.58,45.58,0,0,0-3-7.32Zm7-59.37q7.81,3.51,7.82,5.08c0,.71-1.57,1.1-4.69,1.17a42.93,42.93,0,0,1-4.2,5.76,53.81,53.81,0,0,1-5.18,6l-1.17-.78a74.25,74.25,0,0,0,3.62-6.64A37.73,37.73,0,0,0,58.79,17C59.38,15.17,59.86,13.41,60.25,11.72ZM75.1,71.88a61.9,61.9,0,0,1,5.47,4.58A35.37,35.37,0,0,1,85,80.66a12.11,12.11,0,0,1,2.44,3.62A7.6,7.6,0,0,1,88,87.11a5,5,0,0,1-.49,2.44,2.23,2.23,0,0,1-1.86,1.17,1.67,1.67,0,0,1-1.36-.58A4.21,4.21,0,0,1,83.2,87.6a19.37,19.37,0,0,0-2-5,40.27,40.27,0,0,0-2.93-4.69,33.31,33.31,0,0,0-4.29-4.88Z"/><path class="cls-1" d="M100,32.13a48.09,48.09,0,0,0,11.33,1.07h3.51V8.2a75.57,75.57,0,0,0-.29-7.81,38.44,38.44,0,0,1,9.28,2.15c.84.39,1.27.85,1.27,1.37s-.43,1-1.27,1.27a12.24,12.24,0,0,1-4.2,1.07v27h5.47l3.9-3.9q3,2.14,5.57,4.2c.45.26.68.55.68.88,0,1.1-.39,1.66-1.17,1.66H119.63v7.81c1.5,1.11,2.86,2.21,4.1,3.32a46.32,46.32,0,0,1,3.52,3.51A10.87,10.87,0,0,1,129.1,53a11.08,11.08,0,0,1,.78,1.66,4.32,4.32,0,0,1,.3,1.56c-.07,1.82-.72,2.73-2,2.73a.94.94,0,0,1-.78-.39c-.39-.26-1-1.4-2-3.41a29.72,29.72,0,0,0-3.32-5.38,30.62,30.62,0,0,0-2.54-3.22V82.52a14.47,14.47,0,0,0,.19,2.93,27,27,0,0,1,.2,2.83c0,2.08-1.06,3.13-3.18,3.13-1.53,0-2.29-.49-2.29-1.47,0-1.43,0-3.22.1-5.37q.19-3.51.19-6V48.83a80.23,80.23,0,0,1-3.41,8.49q-2,4.4-4.4,8.79-2.64,4.2-6.25,8.89l-1.17-1.46a84.26,84.26,0,0,0,5.18-10.16,68.42,68.42,0,0,0,3.9-10.06,71,71,0,0,0,2.74-9.77c.65-2.66,1.17-5.17,1.56-7.51h-1.66q-6.94.09-9.28.39ZM102.15,8.2a51.39,51.39,0,0,1,4.49,7.33,23.27,23.27,0,0,1,2.15,5.37,12,12,0,0,1,.68,3.71,5.18,5.18,0,0,1-.58,2.34c-.59.85-1.18,1.27-1.76,1.27a2.88,2.88,0,0,1-1.56-.49,3.57,3.57,0,0,1-.78-2.34,60.44,60.44,0,0,0-1.27-9A57.83,57.83,0,0,0,100.88,9Zm25.68,0A36.43,36.43,0,0,1,134.67,12a.94.94,0,0,1,.58.88c0,.39-.32.72-1,1a13,13,0,0,1-2.93.58c-.52,1.44-1,2.8-1.56,4.1a33.66,33.66,0,0,1-1.86,4c-.65,1.17-1.4,2.41-2.25,3.71a40.85,40.85,0,0,1-2.54,3.42L122,28.52a57,57,0,0,0,2.25-5.28c.58-1.76,1.14-3.55,1.66-5.37s1-3.61,1.37-5.17S127.7,9.57,127.83,8.2ZM159,.39a35.45,35.45,0,0,1,9.28,2.15c.91.39,1.37.85,1.37,1.37s-.46,1-1.37,1.27a11.29,11.29,0,0,1-4.1,1.07V12.5H179l4.3-4.69c2.34,1.63,4.56,3.26,6.64,4.89.52.26.78.58.78,1,0,1.11-.36,1.66-1.07,1.66H141V37.5h19.53v-9h-3.91a61.53,61.53,0,0,0-9.37.39L145.7,25a58.16,58.16,0,0,0,10.94.78h3.91V24.61a57.7,57.7,0,0,0-.39-7.81,29.48,29.48,0,0,1,7.91,2.05c.78.45,1.17.94,1.17,1.46a1.33,1.33,0,0,1-1,1.27,6.33,6.33,0,0,1-2.93,1.08v3.12h12.5l2.74-3.12q5.07,3.12,5.07,4.29c0,.72-.91,1.63-2.73,2.74v7L185.64,34c1.83,1.37,3.58,2.67,5.28,3.91a.88.88,0,0,1,.58.78c0,1.11-.39,1.66-1.17,1.66h-7.42V53.52c0,1.23-1.06,2-3.19,2.34-1.06,0-1.6-.26-1.6-.78V52H165.23v6.64c0,1.31-.91,2-2.73,2a2.07,2.07,0,0,1-2.34-2.35c0-.78.06-1.82.19-3.12a27,27,0,0,0,.2-3.13h-5.47c-5.21,0-8.34.17-9.38.49l-1.56-3.9a67.93,67.93,0,0,0,10.94.68h5.47V40.33H141q0,8-.49,14.06a98.69,98.69,0,0,1-1.27,10.94,43.44,43.44,0,0,1-2.15,6.74,26.12,26.12,0,0,1-3,6.54,25.11,25.11,0,0,1-4.1,6,27.92,27.92,0,0,1-5,5.37l-1.56-1.66a35.74,35.74,0,0,0,4.2-5.47,32.38,32.38,0,0,0,3-5.37,55.79,55.79,0,0,0,2.45-6.35,48.37,48.37,0,0,0,1.85-8.2A92.89,92.89,0,0,0,136,52.83q.28-7.51.29-14.55.48-19.92-1.17-29.69l6.64,3.91h17.58V8.2A57.45,57.45,0,0,0,159,.39Zm-12.5,59.77,5.88,3.12H178.6l2.74-3.12q5.08,3.12,5.09,4.29c0,.72-.92,1.63-2.74,2.74V88.28c0,1.24-1.06,2-3.19,2.44q-1.59,0-1.59-.78V85.16H151.27v4.29q0,1-1.2,1.47a7.62,7.62,0,0,1-2.39.49q-1.2,0-1.2-1.08Zm4.79,22.36h27.64V66H151.27Zm14.06-54v9h12.79v-9Zm0,11.81v8.89h12.79V40.33Z"/><path class="cls-1" d="M210.25,1.56l5.47,3.52h52.74l3.12-4.3q7,5.08,7,6.74,0,1.17-5.07,3.52,0,24.9,1.07,36.23a98.16,98.16,0,0,0,3,18.06,67.47,67.47,0,0,0,5.27,13.58q.88,1.56,1.56,1.56c.39,0,.72-.33,1-1q1.07-2.73,4.49-17.77l1.17,1.17q-2,16.22-1.95,18a6.53,6.53,0,0,0,.59,2.93,10.1,10.1,0,0,1,.58,3.71c0,1.89-.78,2.83-2.34,2.83-1.11,0-2.28-.68-3.52-2q-2.93-2.53-6.25-9A70.82,70.82,0,0,1,273,64.45a107.4,107.4,0,0,1-3-20.6q-1.08-11.82-1.07-36H215.33V32.13q0,9.18-.68,17.28a143.53,143.53,0,0,1-1.56,14.65,94.68,94.68,0,0,1-2.64,11.14A52.67,52.67,0,0,1,206.54,84a34.88,34.88,0,0,1-5.66,7.43l-1.17-.69a44.08,44.08,0,0,0,3.9-7.13,77.85,77.85,0,0,0,2.84-7.42,91.18,91.18,0,0,0,2.05-10.06c.65-4.42,1.13-8.92,1.46-13.47q.69-9.18.68-20.51Q210.75,13,210.25,1.56Zm45.32,17.19q-5.48,1.37-11.33,2.25V34.77h10.55l2.73-3c3.38,1.95,5.08,3.38,5.08,4.3,0,.65-.91,1.53-2.74,2.63V60.16c0,1.23-1.06,2-3.19,2.34q-1.59,0-1.59-.78V57.81H244.24V75.88c.39-.07.71-.13,1-.2q6.25-.68,14.17-1.75a9,9,0,0,0-.49-1,41.26,41.26,0,0,0-6.06-6.15L254,65.33a35.76,35.76,0,0,1,8.5,6.15,19.07,19.07,0,0,1,4.2,5.08,7.61,7.61,0,0,1,1,3.52c0,2.08-.66,3.12-2,3.12a2.88,2.88,0,0,1-1.56-.49,5.2,5.2,0,0,1-1.37-2.44,39.33,39.33,0,0,0-2.05-4.39c-4.75,1.11-9,2-12.79,2.64q-6.84,1.26-13.09,2.24-5.76,1-12.11,1.76c-.65,2.34-1.17,3.52-1.56,3.52s-2.08-2.61-4.69-7.82q8.4-.48,15-1.17,3.72-.28,8.11-.68V57.81H228.22v4.3a1.69,1.69,0,0,1-1.09,1.46,9.09,9.09,0,0,1-2.5.49,1,1,0,0,1-1.19-1.17V31.74l5.89,3h10.32V21.68c-.85.07-1.66.16-2.44.29q-7,1.08-15.63,1.57l-.78-1.66a148.1,148.1,0,0,0,22-4.2q6.84-1.86,10.06-4.4a67.37,67.37,0,0,1,7,4.1c.52.33.78.65.78,1a1.2,1.2,0,0,1-1.17,1.27,5.34,5.34,0,0,1-1.56-.39A4.43,4.43,0,0,0,255.57,18.75ZM228.22,55.08h11.43V37.5H228.22Zm16-17.58V55.08h10.84V37.5Z"/><path class="cls-1" d="M302.83,9.38l5.86,4.29h11.72l3.13-4.29a20.6,20.6,0,0,1,5.17,4.19,2,2,0,0,1,.68,1.37q0,.88-3.51,3V46.88q0,7.32.19,9.57c.13,1.88.2,3.41.2,4.59a2.77,2.77,0,0,1-1,2.14,6.78,6.78,0,0,1-2.15.49q-2,0-1.95-1.17v-5H307.91v8.2q0,1.08-2,1.08a6.07,6.07,0,0,1-2.15-.49,2.72,2.72,0,0,1-1-2.25c0-1.1.1-2.6.29-4.49a56.82,56.82,0,0,0,.49-9.57V16A25.11,25.11,0,0,0,302.83,9.38Zm5.08,45.31h13.18V16.41H307.91Zm22.17-35.94A40.36,40.36,0,0,0,341.41,20h11.32V7.81A57.8,57.8,0,0,0,352.34,0a42.62,42.62,0,0,1,9.38,2.05c.84.46,1.27,1,1.27,1.47s-.43,1-1.27,1.27a12.24,12.24,0,0,1-4.2,1.07V20H370.8l4.69-5.57q3.7,2.84,7,5.57c.52.33.78.68.78,1.07a1.38,1.38,0,0,1-1.56,1.57H357.52V40.33h18.36l4.69-5.56q3.9,2.82,7.32,5.56c.59.33.88.69.88,1.08A1.38,1.38,0,0,1,387.21,43H359.38a75.35,75.35,0,0,0,6.24,11.42,91.1,91.1,0,0,0,8.21,10.26,65.14,65.14,0,0,0,9.18,8.2,37.68,37.68,0,0,0,8.49,4.59v1.47q-5,0-6.64,2.83A39.45,39.45,0,0,1,377,75a54.58,54.58,0,0,1-6.83-8.79,87.64,87.64,0,0,1-6.35-9.47A125.43,125.43,0,0,1,357.52,44V82.52a14.47,14.47,0,0,0,.19,2.93,27,27,0,0,1,.2,2.83c0,2.08-1.06,3.13-3.18,3.13-1.59,0-2.39-.49-2.39-1.47,0-1.43.07-3.22.2-5.37q.19-3.51.19-6V45.12a61.57,61.57,0,0,1-5.17,9.18,76.27,76.27,0,0,1-8.4,10.93,93.9,93.9,0,0,1-9.28,9.18,134.26,134.26,0,0,1-12.69,9.18L316,82.13a118.41,118.41,0,0,0,12.59-10.55,73,73,0,0,0,9.18-10.45A70.1,70.1,0,0,0,344.53,51a69.85,69.85,0,0,0,3.71-8h-9.57q-6.84.09-9.37.39l-2-4.3a41,41,0,0,0,11.33,1.27h14.06V22.66H341.41c-4.63.06-7.75.19-9.38.39Z"/><path class="cls-1" d="M420,0a47.81,47.81,0,0,1,7.94,2.15,1.07,1.07,0,0,1,.68,1.07c0,.52-.59,1-1.76,1.37-.92.2-1.8.36-2.65.49a59.35,59.35,0,0,1,5.88,3.32q3.82,2.34,6.07,3.9A23.27,23.27,0,0,1,439.36,15,6.71,6.71,0,0,1,440.62,17a3.22,3.22,0,0,1,.49,1.76q-.09,2.73-1.95,2.73a3.06,3.06,0,0,1-1.56-.39,25.66,25.66,0,0,1-3.23-3.9,36,36,0,0,0-5.68-6.06,55.76,55.76,0,0,0-6.17-4.78A41.62,41.62,0,0,1,420.36,11c-1.24,2-2.58,4-4,5.95q-2.66,3.23-4.71,5.37a52.1,52.1,0,0,0,9.11.69h5.1l3.92-3.81c2,1.37,3.92,2.73,5.68,4.1a1.09,1.09,0,0,1,.59.88c0,1-.4,1.56-1.18,1.56H420.75q-7,.11-9.4.39l-1-2.34q-1.86,1.67-3.63,3.12l-2.05,1.66L411,33.2h19.59l2.74-3.12q5.08,3.12,5.09,4.3c0,.65-.91,1.56-2.74,2.73V59.38c0,1.23-1.06,2-3.19,2.34-1.06,0-1.59-.23-1.59-.68V59.38h-21V82c.65-.19,1.24-.39,1.76-.58a76.74,76.74,0,0,0,9.18-2.84q4.29-1.65,9.77-4.1c-.07-.19-.13-.39-.2-.58a75.69,75.69,0,0,0-2.93-7.13l1.17-1.08A46.59,46.59,0,0,1,432.13,71q1.47,2.53,2.34,4.29c.52,1.17.95,2.18,1.27,3a8.78,8.78,0,0,1,.49,2.15,9.49,9.49,0,0,1,.2,2c-.07,2-.85,3-2.35,3-.19,0-.39-.17-.58-.49s-.49-1.79-1.08-4.4c-.32-1.43-.68-2.8-1.07-4.1q-4.5,2.84-7.81,4.49A80.78,80.78,0,0,1,415.43,85a49.53,49.53,0,0,1-7.56,2.93c-.67,2.34-1.2,3.52-1.6,3.52s-2.1-2.61-4.71-7.82a28.41,28.41,0,0,0,3.52-.58V35.55a54.87,54.87,0,0,0-.39-6.94,31.15,31.15,0,0,1-3.91,2.64l-1.56-1.95a51,51,0,0,0,6.45-5.18q2.64-2.84,5.29-6.05,2.44-3.42,4.5-6.55a33.3,33.3,0,0,0,2.75-5.86A22.15,22.15,0,0,0,420,0ZM409.86,36v8.2h21V36Zm0,10.84v9.86h21V46.88Zm50.39-19.44a67.5,67.5,0,0,1,8,1c.91.19,1.37.49,1.37.88,0,.58-.46,1.07-1.37,1.46l-2.54,1.37c-.06,3.78-.26,7.16-.58,10.16q.48,3.6,1.17,6.83A60.73,60.73,0,0,0,470,60.84a41.11,41.11,0,0,0,5,9.37,31.38,31.38,0,0,0,6.74,8.21,65.75,65.75,0,0,0,10.15,8l-.39,1.07q-4.2,0-5.46,2.44a47.19,47.19,0,0,1-8-7.52c-2.09-2.8-4.1-5.79-6.06-9q-2.54-5.18-4.88-11.43a80.58,80.58,0,0,1-3.22-11,93.76,93.76,0,0,1-2.64,10.74A52.76,52.76,0,0,1,456,72.36a36.88,36.88,0,0,1-8,9.09,77.21,77.21,0,0,1-14.26,10l-1.17-2A71.24,71.24,0,0,0,442.87,82,64.83,64.83,0,0,0,450,74a40.47,40.47,0,0,0,5.66-10.45,52.23,52.23,0,0,0,3.72-12.89,76.52,76.52,0,0,0,1.46-14.55A45.82,45.82,0,0,0,460.25,27.44ZM456,.78A47.59,47.59,0,0,1,464.26,4a1.58,1.58,0,0,1,.68,1.08c0,.58-.45,1-1.37,1.37a13.68,13.68,0,0,1-4.1.68,78.21,78.21,0,0,1-3.42,9.18c-.39.91-.78,1.89-1.17,2.93h28.81L486.43,16a40,40,0,0,1,5.95,4.88.83.83,0,0,1,.3.58c0,.53-.59.95-1.76,1.27a19.28,19.28,0,0,0-2.93.79,80.47,80.47,0,0,1-4.79,8.2,79.15,79.15,0,0,1-5.76,8.2l-1.56-1.27a50.33,50.33,0,0,0,4.88-8.79,46.77,46.77,0,0,0,2.93-8h-30c-.59,1.23-1.17,2.44-1.76,3.61a65.68,65.68,0,0,1-4.29,7.42,44.31,44.31,0,0,1-5.37,7l-1.57-1.27a43,43,0,0,0,5.57-8.88q2.64-5.19,4.88-10.94A122.64,122.64,0,0,0,455,7,44.69,44.69,0,0,0,456,.78Z"/><path class="cls-1" d="M503.22,45.7l5.86,4.3h23.05l3.12-4.3a20.49,20.49,0,0,1,5.18,4.2,1.93,1.93,0,0,1,.68,1.27q0,.88-3.51,3.13V72.66q0,7.32.19,9.57c.13,1.82.2,3.32.2,4.49A2.87,2.87,0,0,1,537,89a6.12,6.12,0,0,1-2.15.49q-2,0-2-1.17V83.2H508.3v6.25c0,.85-.65,1.27-1.95,1.27a5.3,5.3,0,0,1-2.15-.58,2.91,2.91,0,0,1-1-2.25,45,45,0,0,1,.3-4.49,57.46,57.46,0,0,0,.48-9.47V52.44A26.34,26.34,0,0,0,503.22,45.7Zm5.08,34.77h24.51V52.83H508.3ZM520.41,1.56l5.86,4.3h35.94l3.12-4.3a20.72,20.72,0,0,1,5.18,4.2,2,2,0,0,1,.68,1.37c0,.58-1.17,1.6-3.51,3V23.05q0,7.32.19,9.57c.13,1.82.2,3.32.2,4.49a2.91,2.91,0,0,1-1,2.25,5.91,5.91,0,0,1-2.15.58c-1.3,0-2-.42-2-1.27V34.38h-37.5v5.56q0,1.08-2,1.08a6.3,6.3,0,0,1-2.15-.49,2.91,2.91,0,0,1-1-2.25c0-1.11.1-2.6.29-4.49a57.82,57.82,0,0,0,.49-9.57V8.2A25.16,25.16,0,0,0,520.41,1.56Zm5.08,30.18h37.4V8.59h-37.4Zm26.17,14,5.86,4.3h24.22l3.12-4.3A20.49,20.49,0,0,1,590,49.9a1.93,1.93,0,0,1,.68,1.27q0,.88-3.51,3.13V72.66a94.1,94.1,0,0,0,.29,9.57c.06,1.82.1,3.32.1,4.49a2.87,2.87,0,0,1-1,2.24,6.78,6.78,0,0,1-2.15.49q-2,0-2-1.17V83.2H556.74v6.25c0,.85-.65,1.27-2,1.27a5.86,5.86,0,0,1-2.15-.58,2.91,2.91,0,0,1-1-2.25c0-1.11.06-2.6.2-4.49q.58-2.25.58-9.47V52.44A26.34,26.34,0,0,0,551.66,45.7Zm5.08,34.77h25.68V52.83H556.74Z"/></g></g></svg>