<svg xmlns="http://www.w3.org/2000/svg" viewBox="0 0 1388.96 96.09"><defs><style>.cls-1{fill:#231815;}</style></defs><title>資產 59</title><g id="圖層_2" data-name="圖層 2"><g id="購物車_我要跟團_手機版_1101_刪運費_OK置圖"><path class="cls-1" d="M43.85,2.25q17.19,0,30.37,13Q87.11,28.52,87.11,46.09q0,17.29-12.89,30.47Q61,89.46,43.85,89.45q-17.58,0-31-12.89Q0,63.37,0,46.09,0,28.53,12.89,15.23,26.27,2.25,43.85,2.25Zm0,84.08q16,0,28.22-11.92,12-12.3,12-28.32,0-16.4-12-28.71Q59.86,5.47,43.85,5.47,27.44,5.47,15,17.38,3.22,29.7,3.22,46.09q0,16,11.82,28.32Q27.45,86.34,43.85,86.33Z"/><path class="cls-1" d="M127.25,1.17l5.86,4.3h70.31l3.12-4.3a21.05,21.05,0,0,1,5.08,4.2,1.89,1.89,0,0,1,.78,1.37q0,.87-3.51,3V74.61a94.1,94.1,0,0,0,.29,9.57c.06,1.89.1,3.38.1,4.49a2.72,2.72,0,0,1-1,2.25,7.07,7.07,0,0,1-2.15.49q-2,0-2-1.08V86.72H132.32v3.61q0,1.08-1.95,1.08a7.07,7.07,0,0,1-2.15-.49,2.71,2.71,0,0,1-1-2.25c0-1.11.06-2.6.19-4.49q.59-2.25.59-9.57V7.81A25.16,25.16,0,0,0,127.25,1.17ZM132.32,84H204.1V8.2H132.32Zm2.35-21.09A44.46,44.46,0,0,0,146,64.06h34V61.72a13.12,13.12,0,0,0-.78-5c5.73,1,8.59,2,8.59,3s-1.17,1.62-3.51,1.95v2.34h6.64l3.9-4.29c2.09,1.56,4.07,3.06,6,4.49a1.18,1.18,0,0,1,.68,1.07q0,1.47-1.17,1.47h-16V75a4.54,4.54,0,0,1-1.08,3,8.38,8.38,0,0,1-2.93,2.44,22.56,22.56,0,0,1-4.2,1.66,6.63,6.63,0,0,0-.87-3.71,4.13,4.13,0,0,0-2-1.27,29,29,0,0,0-6.54-1.76V73.54a28.83,28.83,0,0,0,9.37,1.85,5.05,5.05,0,0,0,3.13-.68,2.42,2.42,0,0,0,.78-2V66.8H146c-4.63.06-7.75.19-9.38.39ZM137,16a43.3,43.3,0,0,0,11.23,1.17H165a52.55,52.55,0,0,0-.39-7.42A66.42,66.42,0,0,1,172,11.43c.65.26,1,.62,1,1.07a1,1,0,0,1-.68.88,16.52,16.52,0,0,1-2.45,1.07v2.74H187.4l4.3-4.3,6,4.49c.45.33.68.65.68,1,0,1.11-.39,1.66-1.17,1.66H169.82v5.76h16.41L189,22.66Q194,25.78,194,27c0,.72-.91,1.63-2.73,2.74v16c0,1.24-1,2-3.13,2.35q-1.56,0-1.56-.78v-.79h-16.8v5.77q8.12-.3,16.22-.88a35.45,35.45,0,0,0-4.11-2.44l.78-1.27A41.6,41.6,0,0,1,190.53,51a10.78,10.78,0,0,1,3.81,2.73,2.55,2.55,0,0,1,.87,1.76q0,2.73-2,2.73a2.75,2.75,0,0,1-1.27-.29,4.42,4.42,0,0,1-1.37-1.46,18.86,18.86,0,0,0-2.44-3q-8.79,1-18.26,1.76-10.54,1.07-18.26,1.66l-8.11.68c-.78,2.34-1.43,3.52-2,3.52s-1.43-2.61-3.12-7.82q2.82,0,10.35-.19,6.93-.11,16.21-.49V46.48H148.73v2.06c0,.58-.4,1-1.2,1.36a7.3,7.3,0,0,1-2.39.49A1,1,0,0,1,144,49.22V22.66l5.85,3.12H165V20h-16.8q-6.84.09-9.37.29Zm11.72,18.75H165V28.52H148.73Zm0,9H165V37.5H148.73ZM151.46,68a27.83,27.83,0,0,1,6.06,3.32,9.75,9.75,0,0,1,3,2.73,2.92,2.92,0,0,1,.68,1.76c0,2.08-.65,3.13-1.95,3.13a2.39,2.39,0,0,1-1.08-.3c-.32-.13-.65-.58-1-1.36a19.44,19.44,0,0,0-2.74-4.2,23.88,23.88,0,0,0-4.2-3.42Zm18.36-39.45v6.25h16.7V28.52Zm0,9v6.25h16.7V37.5Z"/><path class="cls-1" d="M256.84.39A38.13,38.13,0,0,1,266,6.74a18.75,18.75,0,0,1,4.78,5.08,6.82,6.82,0,0,1,1,3.51,3.78,3.78,0,0,1-.39,1.86h25.78l5.08-5.76q3.9,2.84,7.32,5.66a1.6,1.6,0,0,1,.88,1.27c0,1.11-.52,1.66-1.56,1.66H270.61V47.66h20.31l4.69-5.47q3.7,2.84,6.93,5.47a1.61,1.61,0,0,1,.88,1.27c0,1-.52,1.46-1.56,1.46H270.61V84h29.68l5.08-5.76q3.9,2.84,7.33,5.67a1.6,1.6,0,0,1,.87,1.27c0,1-.48,1.56-1.46,1.56H234.18q-6.93.09-9.38.39l-2-4.3A44.52,44.52,0,0,0,234.18,84h31.64V50.39H245.9q-6.93.11-9.38.39l-2-4.3a44,44,0,0,0,11.33,1.18h19.92V20H237.3c-4.55.06-7.68.16-9.37.29L226,16a44.43,44.43,0,0,0,11.32,1.17h29.92a6.87,6.87,0,0,1-.9-1.76,37.05,37.05,0,0,0-4.21-7.23A37.22,37.22,0,0,0,255.66,2Z"/><path class="cls-1" d="M322.56,5.47a41,41,0,0,0,11.33,1.27h67.18l4.69-5.57q3.72,2.84,7,5.57c.52.33.78.68.78,1.07,0,1-.48,1.57-1.46,1.57H369.24a45.56,45.56,0,0,1-4.3,8.1A56.23,56.23,0,0,1,358.69,27h42.38l3.13-4.29a23.42,23.42,0,0,1,5.18,4.2,2.25,2.25,0,0,1,.68,1.36q0,.88-3.52,3v43q0,7.23.2,9.57c.13,1.89.19,3.38.19,4.49a2.9,2.9,0,0,1-1,2.25,6.4,6.4,0,0,1-2.15.49q-1.95,0-1.95-1.08V84.38H334.67v6c0,.72-.65,1.08-2,1.08a6.3,6.3,0,0,1-2.14-.49,2.72,2.72,0,0,1-1-2.25c0-1.11.1-2.6.29-4.49a56.82,56.82,0,0,0,.49-9.57V29.3a25.16,25.16,0,0,0-.78-6.64L335.45,27h20.7A45.71,45.71,0,0,0,361,17.19a30.07,30.07,0,0,0,2.73-7.81H333.89q-6.94.09-9.28.39Zm12.11,76.27H351v-52H334.67Zm21.09-38.38h22.56V29.69H355.76Zm0,18.07h22.56V46.09H355.76Zm0,20.31h22.56V64.06H355.76Zm27.35,0h18.65v-52H383.11Z"/><path class="cls-1" d="M464.26.39a37,37,0,0,1,9.28,2.15c.91.39,1.36.85,1.36,1.37s-.45,1-1.36,1.27a11.34,11.34,0,0,1-4.11,1.07v8.2H499.9L505,8.59c2.6,2,5,3.94,7.32,5.77a1.64,1.64,0,0,1,.88,1.36q0,1.47-1.56,1.47H433.79c-4.62.06-7.72.19-9.28.39l-2.05-4.3a44.52,44.52,0,0,0,11.33,1.17h30.86V8.2A57.8,57.8,0,0,0,464.26.39ZM481.93,36a25,25,0,0,1,7.13,3.41c.72.53,1.08,1,1.08,1.57,0,.91-1.7,1.43-5.08,1.56q-5.08,9.66-9.18,16.31a72.59,72.59,0,0,1-5,6.73l2.54,2.15A42.87,42.87,0,0,0,485,75.39a66,66,0,0,0,13.77,5.76,117,117,0,0,0,15.23,4v1.56q-5.57,0-7,3.61a103.45,103.45,0,0,1-16-6.64,72,72,0,0,1-13.48-8.1,51.13,51.13,0,0,1-9-7.33c-.59.72-1.14,1.34-1.66,1.86a90.51,90.51,0,0,1-11.62,9.27,76.8,76.8,0,0,1-14.07,7.43,102.09,102.09,0,0,1-17.77,5.37l-.78-1.86q12.3-3,19.53-6.83A73.46,73.46,0,0,0,456,75a72.69,72.69,0,0,0,9.86-9.57,47.39,47.39,0,0,1-6.93-10.16A47.71,47.71,0,0,1,453,41a45.5,45.5,0,0,1-3,7.71,73.61,73.61,0,0,1-5.57,8.4q-.19,2.64-.78,2.64c-.52,0-2.08-1.44-4.69-4.3a39.17,39.17,0,0,0,7.92-7.81,23.47,23.47,0,0,0,4.58-9A1.45,1.45,0,0,1,453,37.5q1.75,0,2,1.17a23.88,23.88,0,0,0,2.44,9.08,52.83,52.83,0,0,0,6.74,10.16,57.74,57.74,0,0,0,3.91,4.79,100,100,0,0,0,8.1-12.7A61,61,0,0,0,481.93,36ZM450.29,21.09a36.43,36.43,0,0,1,6.84,3.81.94.94,0,0,1,.58.88c0,.39-.32.72-1,1a19.36,19.36,0,0,1-2.93.68A71.56,71.56,0,0,1,448.44,33a49.29,49.29,0,0,1-6.64,5.37,62.29,62.29,0,0,1-7.62,5q-4.1,2.45-8.89,4.69l-1.17-1.17A101.86,101.86,0,0,0,434.18,40a92.63,92.63,0,0,0,7.42-6.64,77.9,77.9,0,0,0,5.86-6.64A25.34,25.34,0,0,0,450.29,21.09Zm28.91,1.57a88.09,88.09,0,0,1,11.42,5.86,62.48,62.48,0,0,1,8.11,5.66,23.09,23.09,0,0,1,4.2,3.91,5.5,5.5,0,0,1,1.66,2.53,5.81,5.81,0,0,1,.39,2c0,1.37-.52,2.05-1.56,2.05a3.38,3.38,0,0,1-1.66-.49,13.05,13.05,0,0,1-3-2.83A40.08,40.08,0,0,0,493,35.06,73.28,73.28,0,0,0,486,29.2a65,65,0,0,0-8.4-5.27Z"/><path class="cls-1" d="M560.39,0a44.51,44.51,0,0,1,7.23,3.91c.66.45,1,.84,1,1.17s-.52.72-1.56,1a13.61,13.61,0,0,1-3.91.69c-.66,1-1.34,2-2.06,3h27.49l4.3-3.91A42.41,42.41,0,0,1,599,12.11a1.69,1.69,0,0,1,.59,1.17c0,.39-.65.68-2,.88-2.22.2-3.55.29-4,.29a123.91,123.91,0,0,1-12.91,11.62,81.25,81.25,0,0,1-8.21,6.45H596l2.74-3.22q5.09,3.12,5.08,4.29c0,.66-.91,1.6-2.74,2.84V57.81c0,1.24-1.06,2-3.19,2.35q-1.59,0-1.59-.78V56.25H574.9v25A2.85,2.85,0,0,0,576,83.59c.45.59,1.49,1,3.12,1.18a96.17,96.17,0,0,0,10.94.39q6.65,0,12.11-.39a5.94,5.94,0,0,0,3.22-1.08,5.47,5.47,0,0,0,1.56-2.83q1.27-2.64,2.35-12.89l1.56.39V79.69a5.1,5.1,0,0,0,.59,2.63,4.56,4.56,0,0,0,2.14,1.86,1.41,1.41,0,0,1,.79,1.37,2.18,2.18,0,0,1-.49,1.07,7.21,7.21,0,0,1-3.32,1.47,34.5,34.5,0,0,1-7.91,1c-3.85.26-7.23.39-10.16.39q-8.21,0-12-.39a18.46,18.46,0,0,1-5.87-.88,6.58,6.58,0,0,1-3.49-1.85,4.68,4.68,0,0,1-1-2.35V56.25h-2.35a36.55,36.55,0,0,1-5.47,12.3,46.7,46.7,0,0,1-9.18,10.06,87.18,87.18,0,0,1-12.2,7.82,109.46,109.46,0,0,1-14.55,5.37l-1.17-1.47q7.41-2.73,13.08-5.47a69.52,69.52,0,0,0,9.28-5.66,100.65,100.65,0,0,0,8.1-7.81,31,31,0,0,0,5.57-8.6,37.91,37.91,0,0,0,2-6.54H540.43a1.85,1.85,0,0,0,.19,1,14.3,14.3,0,0,1,.2,2.54c0,1-1.17,1.69-3.52,1.95q-1.56,0-1.56-1.17V33.69l-.39.2a53.41,53.41,0,0,1-11.72,4.78l-.78-1.56a98.15,98.15,0,0,0,11-5.18,52.28,52.28,0,0,0,7.43-5.56,59.84,59.84,0,0,0,7.92-8.11A62.51,62.51,0,0,0,556,8.69,47,47,0,0,0,560.39,0ZM540.53,32.52H570q5.28-4.59,9.28-8.5a111.15,111.15,0,0,0,9.27-11.52H559.28q-2.64,3.72-4.69,6.15A65.93,65.93,0,0,1,546,26.76a54.78,54.78,0,0,1-6.55,4.69Zm0,21h23.34c.13-.59.22-1.18.29-1.76a125.55,125.55,0,0,0,1-16.6H540.53Zm29.2-18.36a111.64,111.64,0,0,1-1.37,18.36h27.93V35.16Z"/><path class="cls-1" d="M622.56,47.66a52.09,52.09,0,0,0,10.94.88h2.73L639,45.7q4.69,2.84,4.69,3.91,0,.89-2.73,2.34V72.66a3.56,3.56,0,0,0,1.37,2.54,27,27,0,0,0,8.88,4.68,49.21,49.21,0,0,0,10.74,2.83,179.39,179.39,0,0,0,21.2.88q14.55,0,32-1.46v1.46q-3.23.5-4.3,4.3-10.07.39-23.05.39-12.21,0-19.53-.68A80.56,80.56,0,0,1,656.45,85a35.54,35.54,0,0,1-10.26-4.39,20.8,20.8,0,0,1-7.23-6A100.78,100.78,0,0,1,628.42,84c0,2.61-.26,3.91-.78,3.91-.78,0-2.61-1.92-5.47-5.76a47.57,47.57,0,0,0,7.32-4,40.33,40.33,0,0,0,7.13-5.46V51.17H633.5a61.7,61.7,0,0,0-9.38.39Zm2.34-27a49.89,49.89,0,0,1,9.57,4,14.89,14.89,0,0,1,4.59,3.22,3.09,3.09,0,0,1,1.08,2.15c0,2.08-.65,3.12-2,3.12a5.35,5.35,0,0,1-1.75-.29,4.33,4.33,0,0,1-1.57-1.66,21.23,21.23,0,0,0-4.39-4.88,44.21,44.21,0,0,0-6.74-4.1Zm3.91-19.14a55.94,55.94,0,0,1,9.57,3.91A19.61,19.61,0,0,1,643,8.79,3.19,3.19,0,0,1,644,11c0,2-.65,3-1.95,3a5.11,5.11,0,0,1-1.76-.29,5.62,5.62,0,0,1-1.56-1.66,20,20,0,0,0-4.39-4.79,36.65,36.65,0,0,0-6.74-4.1ZM654.1,18a41,41,0,0,0,11.33,1.27H676v-2a57.7,57.7,0,0,0-.39-7.81,28.33,28.33,0,0,1,8,2.14,1.52,1.52,0,0,1,1.08,1.37,1.31,1.31,0,0,1-.88,1.27,6.42,6.42,0,0,1-3,1.17v3.91h19.53l4.3-4.3q3.12,2.25,6,4.49c.45.26.68.56.68.88,0,1-.39,1.57-1.17,1.57h-29.3v9.37H698l2.73-3q5.09,2.94,5.08,4.3,0,1-2.73,2.64V59.77c0,1.23-1.07,2-3.19,2.34-1.07,0-1.6-.23-1.6-.68V58.2H680.76v9h22.66l4.29-4.69,6.65,4.79a1.33,1.33,0,0,1,.78,1.07c0,1.11-.39,1.66-1.18,1.66h-33.2v8.5q0,2-2.79,2c-1.59,0-2.38-.75-2.38-2.25a31.26,31.26,0,0,1,.19-3.22c.13-1.37.2-2.54.2-3.52V70H656.84q-6.84.09-9.38.29l-2-4.29a44.46,44.46,0,0,0,11.33,1.17H676v-9H660.45v2c0,.65-.4,1.14-1.2,1.46a7.35,7.35,0,0,1-2.39.49c-.8,0-1.2-.36-1.2-1.07V28.22l5.86,3H676V21.88H665.43c-4.56.06-7.68.19-9.38.39ZM655.37.78h1.17v4.3h48.05L707.32,2a57.55,57.55,0,0,1,6,5,.66.66,0,0,1,.29.59c0,.46-.61.85-1.85,1.17-1,.2-1.92.43-2.83.69a31.37,31.37,0,0,1-3.71,2.73c-1.5,1-3,2-4.5,2.83l-1.56-1.27a18.26,18.26,0,0,0,3.42-3.12,10.69,10.69,0,0,0,2.05-2.74H656.45c-.14,1-.27,2.05-.4,3a18.22,18.22,0,0,1-1.36,4.49,8,8,0,0,1-1.86,2.54,5.31,5.31,0,0,1-1.76,1.37,3.29,3.29,0,0,1-1.46.39c-1.63,0-2.44-.55-2.44-1.66a2.9,2.9,0,0,1,1.17-1.86,31.61,31.61,0,0,0,4.1-4.78,25.91,25.91,0,0,0,2-4.3A27.76,27.76,0,0,0,655.37.78Zm5.08,43H676V34H660.45Zm0,11.72H676v-9H660.45ZM680.76,34v9.77h17.48V34Zm0,12.5v9h17.48v-9Z"/><path class="cls-1" d="M767.09,33.2A7.93,7.93,0,0,1,773,35.55a8.84,8.84,0,0,1,1.95,5.86,19.81,19.81,0,0,1-2.73,10.15,26.1,26.1,0,0,1-8.21,7l-1.17-2q6.94-5.18,6.94-10.55c-.07-1.17-1.05-1.92-2.93-2.24-3.26-.72-4.89-2.57-4.89-5.57a5,5,0,0,1,1.57-3.51A4.76,4.76,0,0,1,767.09,33.2Z"/><path class="cls-1" d="M829.2,2.44l5.47,3.42h14.45l3.13-4.3a21.17,21.17,0,0,1,5.07,4.2,1.91,1.91,0,0,1,.79,1.37c0,.58-1.31,1.6-3.91,3V81.74a7.55,7.55,0,0,1-1.47,5,7.65,7.65,0,0,1-3.41,2.44A6.44,6.44,0,0,1,846,90.33a5,5,0,0,0-.88-3.32A7.71,7.71,0,0,0,842,84.86a21.59,21.59,0,0,0-5.76-1.27V81.25a41.44,41.44,0,0,0,10.55,1.56,4.1,4.1,0,0,0,2.44-.49c.45-.32.68-1.2.68-2.63V56.25H833.59c-.19,3.39-.55,6.77-1.07,10.16a96.65,96.65,0,0,1-1.95,10,53.31,53.31,0,0,1-2.93,8,32.62,32.62,0,0,1-4.3,6.64l-1.17-.69a60,60,0,0,0,2.73-6.44q1-3.14,1.76-6.64a79.67,79.67,0,0,0,1.46-9.09c.53-4,.88-8,1.08-12.11q.39-8.29.39-18.55Q829.68,15.63,829.2,2.44Zm4.59,51.08H849.9V31.25H834.28V37.5q0,8.4-.49,15.72Zm.49-25H849.9V8.59H834.28ZM865.92,2.44l5.86,4.3h26.56l3.91-3.52A25.11,25.11,0,0,1,907.62,7c.58.52.88.91.88,1.17,0,.92-1.31,2-3.91,3.23a68.66,68.66,0,0,1-1.86,11.62,31.72,31.72,0,0,1-2.53,7.32,10.49,10.49,0,0,1-2.84,3.13,25.16,25.16,0,0,1-3.71,1.85,7.53,7.53,0,0,1-2.73.69,4.21,4.21,0,0,0-.69-2.64q-.78-1.17-8.3-4.1l.39-1.86a58.16,58.16,0,0,0,9.38,1.47,6.37,6.37,0,0,0,2-.3,2.28,2.28,0,0,0,1.37-.88A14.39,14.39,0,0,0,896.88,25a25.56,25.56,0,0,0,1.46-5.76,82.21,82.21,0,0,0,1.27-9.86H871v33.2h30.07l3.13-3.91A46.43,46.43,0,0,1,909,42.58a1.84,1.84,0,0,1,.69,1.17,2.7,2.7,0,0,1-1.08,1.56,7,7,0,0,1-2.05,1.17,63,63,0,0,1-4.2,13.58,62.85,62.85,0,0,1-6.25,10.84q-1.26,1.56-2.34,3.12a1.89,1.89,0,0,0,.2.2,55.19,55.19,0,0,0,8.59,6,63.92,63.92,0,0,0,11.82,4.5v1.66a5.57,5.57,0,0,0-4.69,2.63,69,69,0,0,1-11-5.86A37.15,37.15,0,0,1,891.11,77a37.49,37.49,0,0,1-3.61,3.71,67.72,67.72,0,0,1-12.6,9.28l-1.56-1.27A56.58,56.58,0,0,0,884,80.18a57.75,57.75,0,0,0,5-5.47,41.52,41.52,0,0,1-4.78-6.84,57.5,57.5,0,0,1-5.57-12,49.66,49.66,0,0,1-2.44-10.55H871v45c0,.72-.66,1.08-2,1.08a7.13,7.13,0,0,1-2.15-.49,2.71,2.71,0,0,1-1-2.25c0-1.11.06-2.6.19-4.49q.58-2.25.59-9.57V9A24.07,24.07,0,0,0,865.92,2.44Zm12,42.87a52,52,0,0,0,3.42,10.94,52.17,52.17,0,0,0,5.56,10.64,59.87,59.87,0,0,0,4.2,4.69,9.67,9.67,0,0,0,.69-1,70.6,70.6,0,0,0,6.25-12.41,38.14,38.14,0,0,0,3.41-12.89Z"/><path class="cls-1" d="M922.46,33.2A57.32,57.32,0,0,0,933.4,34h23.92l2.74-3.12a45.55,45.55,0,0,1,6,5,.67.67,0,0,1,.29.59q0,.68-1.86,1.17c-.91.19-1.85.42-2.83.68a57.54,57.54,0,0,1-4.1,6.54,46.24,46.24,0,0,1-4.88,6.35L951.07,50A45.1,45.1,0,0,0,955,43.07a36.47,36.47,0,0,0,2.34-6.35h-9.76V82.81a8.17,8.17,0,0,1-1.3,5.08,9.51,9.51,0,0,1-3.39,2.54,7.19,7.19,0,0,1-3.22,1l-.2-1.66a3.5,3.5,0,0,0-.68-1.57,7.94,7.94,0,0,0-3.52-2.05,21.86,21.86,0,0,0-6.15-1.36V82.52A37.28,37.28,0,0,0,938.87,84c1.62,0,2.67-.19,3.12-.58s.78-1.37.78-2.93v-35l-1,2.73a98.5,98.5,0,0,1-5.28,10.84,93,93,0,0,1-5.76,9.28,109.16,109.16,0,0,1-7.91,9.47l-1.17-1.66a90.67,90.67,0,0,0,7.23-10.55A85.75,85.75,0,0,0,934.18,55,89.24,89.24,0,0,0,938,44.82c.84-2.86,1.53-5.56,2-8.1H933.4a61.7,61.7,0,0,0-9.38.39Zm1.66-27.34a51.48,51.48,0,0,0,10.94.88h19.53l3.91-3.52A40.65,40.65,0,0,1,964.26,9a1.91,1.91,0,0,1,.49,1.18c0,.45-.59.78-1.76,1-2,.2-3.26.3-3.71.3a97.27,97.27,0,0,1-8.5,8.59q-2.84,2.64-5.17,4.59a7.56,7.56,0,0,1,1.27,1.66,5.4,5.4,0,0,1,1.07,3c0,1.89-.65,2.83-2,2.83a3,3,0,0,1-1.66-.49,5.56,5.56,0,0,1-1.47-2.25,29.58,29.58,0,0,0-4.1-6.34,41.43,41.43,0,0,0-6.45-5.47l.79-1.17a42.46,42.46,0,0,1,9.27,5.47,8.37,8.37,0,0,1,1.86,1.56c1.69-1.89,3.16-3.68,4.39-5.37a97.34,97.34,0,0,0,5.57-8.69H935.06q-7.81,0-9.38.39Zm35.16,50a51.37,51.37,0,0,0,10.93.88h8.31a50.09,50.09,0,0,0,.29-5.18,24.47,24.47,0,0,0-.78-6.93,66.42,66.42,0,0,1,7.52,1.17q1.56.39,1.56,1.08,0,.87-1.47,1.56a7.56,7.56,0,0,1-2.53,1.17q-.11,3.9-.49,7.13h18.06l3.13-3.22a16.46,16.46,0,0,1,4.78,3.22,2.29,2.29,0,0,1,.69,1.46c0,.92-1.31,1.86-3.91,2.84a121,121,0,0,1-1,14.74q-1.17,7.91-2.73,10.74a4.89,4.89,0,0,1-2,2.35,13.88,13.88,0,0,1-2.25,1.07,14.73,14.73,0,0,1-4.88.78,5.14,5.14,0,0,0-.78-2.44,3.77,3.77,0,0,0-1.56-1.46,82.33,82.33,0,0,0-9-2.84l.39-2.24q11.13,3,12.89,3a5.17,5.17,0,0,0,2.05-.39,2.64,2.64,0,0,0,1.18-1.18,12.86,12.86,0,0,0,1.07-2.63,37.07,37.07,0,0,0,1.37-8.11,130.78,130.78,0,0,0,.58-13.08H982.23a26.65,26.65,0,0,1-.88,4.49,28.67,28.67,0,0,1-3.42,9.76,23,23,0,0,1-5.76,7.62,32.37,32.37,0,0,1-8.6,6A45.23,45.23,0,0,1,951.86,91l-.4-2a33.94,33.94,0,0,0,11.14-4.39A32.74,32.74,0,0,0,970,78.32a33.44,33.44,0,0,0,5.37-8.2,52.22,52.22,0,0,0,2.54-9.38c.06-.52.13-1,.19-1.36h-7.91a61.62,61.62,0,0,0-9.37.39ZM977.64,0a62.49,62.49,0,0,1,7.61,3.22,1.42,1.42,0,0,1,.59,1.08q0,.87-1.56,1.17a16.65,16.65,0,0,1-2.74.39,59.13,59.13,0,0,1-3.81,7h24.52l4.29-4.69,6.64,4.79c.52.33.78.68.78,1.07,0,1.11-.39,1.66-1.17,1.66h-11.13a73.52,73.52,0,0,1-4.49,9.57,91.31,91.31,0,0,1-5.37,8c1.43,1,3.06,2.12,4.88,3.22a45.85,45.85,0,0,0,9.47,4.5,38.2,38.2,0,0,0,8.6,2.34v1.27q-5.19,0-6.25,3a42.54,42.54,0,0,1-10.36-5.08A45.29,45.29,0,0,1,989.06,36c-1.5,1.36-3,2.67-4.59,3.9a46.33,46.33,0,0,1-7.71,4.59A47.82,47.82,0,0,1,968,48.24a42.32,42.32,0,0,1-8.69,2.54l-.78-1.56q4.88-1.56,8.79-3A37.57,37.57,0,0,0,976,41.8a64.79,64.79,0,0,0,7.61-5.18c1-1,2-2,2.93-3a42.83,42.83,0,0,1-5.86-7.22,57.15,57.15,0,0,1-5.27-9.57c-1.63,2.21-3.22,4.2-4.78,5.95a66,66,0,0,1-7.82,6.94l-1.56-.78a73.85,73.85,0,0,0,6.64-7.72c1.43-2.08,2.87-4.43,4.3-7s2.54-4.91,3.51-7.13A34.49,34.49,0,0,0,977.64,0Zm0,15.72a60.93,60.93,0,0,0,4.78,8.21,49.9,49.9,0,0,0,6.35,6.83,4.2,4.2,0,0,1,.39-.49,32,32,0,0,0,4.39-7.42c1.05-2.15,2.06-4.52,3-7.13Z"/><path class="cls-1" d="M1023.24,8.59a57.16,57.16,0,0,0,10.94.79h19.53a65,65,0,0,0-.39-9,47.23,47.23,0,0,1,7.52,1.07c1.11.2,1.59.66,1.46,1.37.13.59-.29,1-1.26,1.37-.72.33-1.6.75-2.64,1.27V9.38h17.19V8.2a57.8,57.8,0,0,0-.39-7.81,28.31,28.31,0,0,1,8,2.15c.72.39,1.08.85,1.08,1.37a1.33,1.33,0,0,1-.88,1.27,7.1,7.1,0,0,1-3,1.07V9.38h18.75l2.74-3.13c3.38,2.08,5.07,3.52,5.07,4.3s-.91,1.62-2.73,2.73v9.77c0,1.23-1,2-3.13,2.34-1,0-1.46-.26-1.46-.78V22.27h-19.24v8.59h25.39l3.13-2.64a30.71,30.71,0,0,1,4.78,3.13,2.24,2.24,0,0,1,.69,1.17c0,.65-1.18,1.4-3.52,2.25a35.81,35.81,0,0,1-1.07,5.66,13.57,13.57,0,0,1-1.57,3.42,4.92,4.92,0,0,1-1.75,1.46,7.85,7.85,0,0,1-2.15.88,6.61,6.61,0,0,1-1.66.29,4.06,4.06,0,0,0-.49-2.14c-.33-.79-2.25-2-5.76-3.62l.39-2q5,2.05,6.64,2a2,2,0,0,0,.88-.19.59.59,0,0,0,.49-.3,4.41,4.41,0,0,0,.68-1.07,6,6,0,0,0,.58-2,26,26,0,0,0,.49-3.52h-26.17v5.08c0,1.37-.91,2-2.73,2-1.57,0-2.35-.81-2.35-2.44,0-.78.07-1.82.2-3.12.06-.59.1-1.11.1-1.57h-22.37a26.1,26.1,0,0,1-5.86,6.94,33.24,33.24,0,0,1-5.07,3.42l.19.29h48.83L1094,41q5.09,3.12,5.08,4.29c0,.72-.91,1.63-2.73,2.74V71.48a15.05,15.05,0,0,0,.19,3.13,5.73,5.73,0,0,1,.2,1.56c0,1.24-1.18,2-3.52,2.35-1,0-1.57-.23-1.57-.69V75.39h-49a17.67,17.67,0,0,1,.1,2c0,1-1.17,1.6-3.52,1.86q-1.56,0-1.56-1.08V46.09a.3.3,0,0,0-.2.1,67.75,67.75,0,0,1-13.87,4.59l-1.17-1.85a64.08,64.08,0,0,0,13.38-5.38,28.39,28.39,0,0,0,8.2-5.76,17.65,17.65,0,0,0,3.71-4.2h-15.82c-.32.85-.62,1.66-.88,2.45a2.6,2.6,0,0,1-.87,1.36,5.34,5.34,0,0,1-2.25.49q-2.34,0-2.34-1.17a3.75,3.75,0,0,1,.39-1.17,75.26,75.26,0,0,0,3.81-9.67,82,82,0,0,0,2.44-9.86l5.07,3.61h15.63a62.41,62.41,0,0,0,.78-7.52h-19.53a61.79,61.79,0,0,0-9.38.39Zm33.69,75.79a57.61,57.61,0,0,1-9.66,2.92c-3.19.92-6.39,1.66-9.57,2.25a104.41,104.41,0,0,1-11.63,1.86l-1.17-2a146.4,146.4,0,0,0,14.55-3.71,78.12,78.12,0,0,0,9.57-3.42,34.91,34.91,0,0,0,6-3.8,56.63,56.63,0,0,1,6.25,4.1,1.13,1.13,0,0,1,.39,1c0,.52-.65.79-1.95.79Zm-7.32-53.52.1-.1a34.4,34.4,0,0,0,2.83-8.49h-16.7c-1,3.12-1.89,6-2.73,8.59Zm-7.13,22.36h49.12V46.88h-49.12Zm0,9.67h49.12v-7h-49.12Zm0,9.77h49.12V65.72h-49.12Zm33.11-41.8V22.27h-18.07a8.13,8.13,0,0,1-.29,1.27,33.31,33.31,0,0,1-2.54,7.32ZM1058.3,12.11q-.09,4.39-.39,7.52h17.68V12.11Zm20.12,67.19q6.15.78,12.3,2c4.1.91,7.2,1.69,9.28,2.34a24.21,24.21,0,0,1,4.2,1.66,11.68,11.68,0,0,1,1.85,1.47,1.46,1.46,0,0,1,.49,1.07c0,1.37-.52,2-1.56,2a4.48,4.48,0,0,1-1.76-.58,13.34,13.34,0,0,1-2.54-1.08c-1.75-.78-3.35-1.43-4.78-2-1.89-.72-4.14-1.43-6.74-2.15q-4.31-1.37-11.91-3.32Zm1.95-67.19v7.52h19.24V12.11Z"/><path class="cls-1" d="M1118.26,93h175v3.12h-175Z"/><path class="cls-1" d="M1297.46,29.69a44.52,44.52,0,0,0,11.33,1.17H1373L1378,25q3.9,3,7.32,5.76a1.65,1.65,0,0,1,.88,1.37c0,1-.52,1.46-1.56,1.46h-32.81V78.22a2.77,2.77,0,0,0,1,2.15c.39.59,1.37,1,2.93,1.37a84.48,84.48,0,0,0,10.16.39q6.24,0,11.33-.49a4.83,4.83,0,0,0,3-1.37,6,6,0,0,0,1.47-3.22q1.17-3.22,2.15-15.33l1.56.39V76.56a4.21,4.21,0,0,0,2.73,4.4,1.69,1.69,0,0,1,.78,1.56,1.74,1.74,0,0,1-.48.88,5.37,5.37,0,0,1-3.13,1.46,26.27,26.27,0,0,1-7.42,1.08c-3.65.32-6.87.49-9.67.49-5.14,0-9-.14-11.42-.39a15.31,15.31,0,0,1-5.58-1,6.07,6.07,0,0,1-3.29-2,4.08,4.08,0,0,1-.9-2.25V33.59h-16.8A140.87,140.87,0,0,1,1329,53.91a48.35,48.35,0,0,1-4.29,13.18,45.29,45.29,0,0,1-7,10,64.64,64.64,0,0,1-9.18,7.72,60.33,60.33,0,0,1-11,5.56l-1.17-1.66a91.46,91.46,0,0,0,9.57-5.27,77.25,77.25,0,0,0,6.93-5.76,83.39,83.39,0,0,0,5.86-7.72,32.85,32.85,0,0,0,4.2-8.59,91.54,91.54,0,0,0,2.05-11.13,150.16,150.16,0,0,0,.69-16.61h-16.8c-4.62.07-7.72.2-9.28.39Zm7.91-21.88A44.52,44.52,0,0,0,1316.7,9h46.87l5.08-5.76q3.91,2.83,7.33,5.67a1.61,1.61,0,0,1,.88,1.27,1.39,1.39,0,0,1-1.57,1.56H1316.7c-4.56.06-7.68.19-9.38.39Z"/></g></g></svg>