<svg xmlns="http://www.w3.org/2000/svg" viewBox="0 0 352 102"><defs><style>.cls-1{fill:#231815;}.cls-2{fill:#d3d3d4;}.cls-3{fill:none;stroke:#231815;stroke-linecap:round;stroke-linejoin:round;stroke-width:2px;}</style></defs><title>資產 69</title><g id="圖層_2" data-name="圖層 2"><g id="購物車_我要跟團_手機版_1101_刪運費_OK置圖"><path class="cls-1" d="M193.8,65l-4.19,11.76H159.32v-.4l14-17.08q11.11-13.62,11.76-23.93a14.6,14.6,0,0,0-2.66-9.43,11.43,11.43,0,0,0-10.15-5.39q-4.66,0-7.57,4.75a69.38,69.38,0,0,0-3.55,8.54l-1.61-.24q1.62-9.2,6.53-13.62a14,14,0,0,1,9.67-3.7,13,13,0,0,1,9.75,4.19,16.57,16.57,0,0,1,4.35,11.76q0,11.52-8.46,21.75L166.33,72.35h18a5.4,5.4,0,0,0,4.11-1.53q1.37-1.21,3.7-5.8Z"/><rect class="cls-2" x="1" y="1" width="75" height="100"/><path class="cls-1" d="M47.81,59.3h-19V53.66h19Z"/><rect class="cls-2" x="276" y="1" width="75" height="100"/><path class="cls-1" d="M333.4,55.83h-18v21h-3v-21H294.32V52.45h18.13v-21h3v21h18Z"/><rect class="cls-3" x="1" y="1" width="350" height="100"/></g></g></svg>